%TF.GenerationSoftware,KiCad,Pcbnew,7.0.5*%
%TF.CreationDate,2023-07-25T09:46:53+02:00*%
%TF.ProjectId,XOL Breakout,584f4c20-4272-4656-916b-6f75742e6b69,rev?*%
%TF.SameCoordinates,Original*%
%TF.FileFunction,Copper,L2,Bot*%
%TF.FilePolarity,Positive*%
%FSLAX46Y46*%
G04 Gerber Fmt 4.6, Leading zero omitted, Abs format (unit mm)*
G04 Created by KiCad (PCBNEW 7.0.5) date 2023-07-25 09:46:53*
%MOMM*%
%LPD*%
G01*
G04 APERTURE LIST*
G04 Aperture macros list*
%AMRoundRect*
0 Rectangle with rounded corners*
0 $1 Rounding radius*
0 $2 $3 $4 $5 $6 $7 $8 $9 X,Y pos of 4 corners*
0 Add a 4 corners polygon primitive as box body*
4,1,4,$2,$3,$4,$5,$6,$7,$8,$9,$2,$3,0*
0 Add four circle primitives for the rounded corners*
1,1,$1+$1,$2,$3*
1,1,$1+$1,$4,$5*
1,1,$1+$1,$6,$7*
1,1,$1+$1,$8,$9*
0 Add four rect primitives between the rounded corners*
20,1,$1+$1,$2,$3,$4,$5,0*
20,1,$1+$1,$4,$5,$6,$7,0*
20,1,$1+$1,$6,$7,$8,$9,0*
20,1,$1+$1,$8,$9,$2,$3,0*%
%AMHorizOval*
0 Thick line with rounded ends*
0 $1 width*
0 $2 $3 position (X,Y) of the first rounded end (center of the circle)*
0 $4 $5 position (X,Y) of the second rounded end (center of the circle)*
0 Add line between two ends*
20,1,$1,$2,$3,$4,$5,0*
0 Add two circle primitives to create the rounded ends*
1,1,$1,$2,$3*
1,1,$1,$4,$5*%
%AMFreePoly0*
4,1,6,1.000000,0.000000,0.500000,-0.750000,-0.500000,-0.750000,-0.500000,0.750000,0.500000,0.750000,1.000000,0.000000,1.000000,0.000000,$1*%
%AMFreePoly1*
4,1,7,0.700000,0.000000,1.200000,-0.750000,-1.200000,-0.750000,-0.700000,0.000000,-1.200000,0.750000,1.200000,0.750000,0.700000,0.000000,0.700000,0.000000,$1*%
%AMFreePoly2*
4,1,6,0.500000,-0.750000,-0.650000,-0.750000,-0.150000,0.000000,-0.650000,0.750000,0.500000,0.750000,0.500000,-0.750000,0.500000,-0.750000,$1*%
G04 Aperture macros list end*
%TA.AperFunction,ComponentPad*%
%ADD10RoundRect,0.250001X0.499999X0.759999X-0.499999X0.759999X-0.499999X-0.759999X0.499999X-0.759999X0*%
%TD*%
%TA.AperFunction,ComponentPad*%
%ADD11O,1.500000X2.020000*%
%TD*%
%TA.AperFunction,ComponentPad*%
%ADD12RoundRect,0.250000X-0.350000X-0.625000X0.350000X-0.625000X0.350000X0.625000X-0.350000X0.625000X0*%
%TD*%
%TA.AperFunction,ComponentPad*%
%ADD13O,1.200000X1.750000*%
%TD*%
%TA.AperFunction,ComponentPad*%
%ADD14C,5.600000*%
%TD*%
%TA.AperFunction,ComponentPad*%
%ADD15RoundRect,0.250000X-0.194454X0.689429X-0.689429X0.194454X0.194454X-0.689429X0.689429X-0.194454X0*%
%TD*%
%TA.AperFunction,ComponentPad*%
%ADD16HorizOval,1.200000X-0.194454X0.194454X0.194454X-0.194454X0*%
%TD*%
%TA.AperFunction,ComponentPad*%
%ADD17RoundRect,0.250000X0.625000X-0.350000X0.625000X0.350000X-0.625000X0.350000X-0.625000X-0.350000X0*%
%TD*%
%TA.AperFunction,ComponentPad*%
%ADD18O,1.750000X1.200000*%
%TD*%
%TA.AperFunction,ComponentPad*%
%ADD19RoundRect,0.250001X-0.499999X-0.499999X0.499999X-0.499999X0.499999X0.499999X-0.499999X0.499999X0*%
%TD*%
%TA.AperFunction,ComponentPad*%
%ADD20C,1.500000*%
%TD*%
%TA.AperFunction,ComponentPad*%
%ADD21RoundRect,0.200000X-0.450000X0.200000X-0.450000X-0.200000X0.450000X-0.200000X0.450000X0.200000X0*%
%TD*%
%TA.AperFunction,ComponentPad*%
%ADD22O,1.300000X0.800000*%
%TD*%
%TA.AperFunction,SMDPad,CuDef*%
%ADD23FreePoly0,90.000000*%
%TD*%
%TA.AperFunction,SMDPad,CuDef*%
%ADD24FreePoly1,90.000000*%
%TD*%
%TA.AperFunction,SMDPad,CuDef*%
%ADD25FreePoly0,270.000000*%
%TD*%
%TA.AperFunction,SMDPad,CuDef*%
%ADD26FreePoly0,0.000000*%
%TD*%
%TA.AperFunction,SMDPad,CuDef*%
%ADD27FreePoly2,0.000000*%
%TD*%
%TA.AperFunction,SMDPad,CuDef*%
%ADD28FreePoly0,180.000000*%
%TD*%
%TA.AperFunction,SMDPad,CuDef*%
%ADD29FreePoly2,180.000000*%
%TD*%
%TA.AperFunction,ViaPad*%
%ADD30C,0.800000*%
%TD*%
%TA.AperFunction,Conductor*%
%ADD31C,0.700000*%
%TD*%
%TA.AperFunction,Conductor*%
%ADD32C,0.500000*%
%TD*%
%TA.AperFunction,Conductor*%
%ADD33C,2.000000*%
%TD*%
G04 APERTURE END LIST*
D10*
%TO.P,TH0,1,Pin_1*%
%TO.N,TH0*%
X107000000Y-108030000D03*
D11*
%TO.P,TH0,2,Pin_2*%
%TO.N,AGND*%
X104000000Y-108030000D03*
%TD*%
D12*
%TO.P,PCF2,1,Pin_1*%
%TO.N,PCF+*%
X81498263Y-108736417D03*
D13*
%TO.P,PCF2,2,Pin_2*%
%TO.N,PCF SW GND*%
X83498263Y-108736417D03*
%TD*%
D14*
%TO.P,H1,1,1*%
%TO.N,GND*%
X78075000Y-100000000D03*
%TD*%
D15*
%TO.P,ESTEP1,1,Pin_1*%
%TO.N,Stepper 1B*%
X85500000Y-86500000D03*
D16*
%TO.P,ESTEP1,2,Pin_2*%
%TO.N,Stepper 1A*%
X84085786Y-87914214D03*
%TO.P,ESTEP1,3,Pin_3*%
%TO.N,Stepper 2A*%
X82671573Y-89328427D03*
%TO.P,ESTEP1,4,Pin_4*%
%TO.N,Stepper 2B*%
X81257359Y-90742641D03*
%TD*%
D17*
%TO.P,HEF1,1,Pin_1*%
%TO.N,HEF+*%
X104450000Y-103000000D03*
D18*
%TO.P,HEF1,2,Pin_2*%
%TO.N,HEF TACHO*%
X104450000Y-101000000D03*
%TO.P,HEF1,3,Pin_3*%
%TO.N,HEF SW GND*%
X104450000Y-99000000D03*
%TD*%
D14*
%TO.P,H2,1,1*%
%TO.N,GND*%
X121925000Y-100000000D03*
%TD*%
D12*
%TO.P,PCF1,1,Pin_1*%
%TO.N,PCF+*%
X116500000Y-108700000D03*
D13*
%TO.P,PCF1,2,Pin_2*%
%TO.N,PCF SW GND*%
X118500000Y-108700000D03*
%TD*%
D17*
%TO.P,LED1,1,Pin_1*%
%TO.N,5V*%
X95450000Y-103000000D03*
D18*
%TO.P,LED1,2,Pin_2*%
%TO.N,GND*%
X95450000Y-101000000D03*
%TO.P,LED1,3,Pin_3*%
%TO.N,LED*%
X95450000Y-99000000D03*
%TD*%
D19*
%TO.P,MCU1,1,Pin_1*%
%TO.N,HEATER 1 GND*%
X94500000Y-91500000D03*
D20*
%TO.P,MCU1,2,Pin_2*%
%TO.N,5V*%
X97500000Y-91500000D03*
%TO.P,MCU1,3,Pin_3*%
%TO.N,HEF SW GND*%
X100500000Y-91500000D03*
%TO.P,MCU1,4,Pin_4*%
%TO.N,Stepper 2B*%
X103500000Y-91500000D03*
%TO.P,MCU1,5,Pin_5*%
%TO.N,Stepper 2A*%
X106500000Y-91500000D03*
%TO.P,MCU1,6,Pin_6*%
%TO.N,Stepper 1A*%
X109500000Y-91500000D03*
%TO.P,MCU1,7,Pin_7*%
%TO.N,Stepper 1B*%
X112500000Y-91500000D03*
%TO.P,MCU1,8,Pin_8*%
%TO.N,PROBE SIGNAL*%
X94500000Y-94500000D03*
%TO.P,MCU1,9,Pin_9*%
%TO.N,24V*%
X97500000Y-94500000D03*
%TO.P,MCU1,10,Pin_10*%
%TO.N,PCF SW GND*%
X100500000Y-94500000D03*
%TO.P,MCU1,11,Pin_11*%
%TO.N,AGND*%
X103500000Y-94500000D03*
%TO.P,MCU1,12,Pin_12*%
%TO.N,TH0*%
X106500000Y-94500000D03*
%TO.P,MCU1,13,Pin_13*%
%TO.N,GND*%
X109500000Y-94500000D03*
%TO.P,MCU1,14,Pin_14*%
%TO.N,AUX*%
X112500000Y-94500000D03*
%TD*%
D10*
%TO.P,HE0,1,Pin_1*%
%TO.N,HEATER 1 GND*%
X96000000Y-108030000D03*
D11*
%TO.P,HE0,2,Pin_2*%
%TO.N,24V*%
X93000000Y-108030000D03*
%TD*%
D21*
%TO.P,PCF3,1,Pin_1*%
%TO.N,PCF SW GND*%
X122781785Y-108536417D03*
D22*
%TO.P,PCF3,2,Pin_2*%
%TO.N,PCF+*%
X122781785Y-109786417D03*
%TD*%
D17*
%TO.P,PROBE1,1,Pin_1*%
%TO.N,PROBE+*%
X86450000Y-103000000D03*
D18*
%TO.P,PROBE1,2,Pin_2*%
%TO.N,GND*%
X86450000Y-101000000D03*
%TO.P,PROBE1,3,Pin_3*%
%TO.N,PROBE SIGNAL*%
X86450000Y-99000000D03*
%TD*%
D17*
%TO.P,FS1,1,Pin_1*%
%TO.N,FS+*%
X113450000Y-103000000D03*
D18*
%TO.P,FS1,2,Pin_2*%
%TO.N,GND*%
X113450000Y-101000000D03*
%TO.P,FS1,3,Pin_3*%
%TO.N,FS SIGNAL*%
X113450000Y-99000000D03*
%TD*%
D21*
%TO.P,PCF4,1,Pin_1*%
%TO.N,PCF SW GND*%
X76427718Y-108576964D03*
D22*
%TO.P,PCF4,2,Pin_2*%
%TO.N,PCF+*%
X76427718Y-109826964D03*
%TD*%
D19*
%TO.P,MCU2,1,Pin_1*%
%TO.N,FS SIGNAL*%
X121500000Y-91585000D03*
D20*
%TO.P,MCU2,2,Pin_2*%
%TO.N,LED*%
X121500000Y-94585000D03*
%TD*%
D23*
%TO.P,JP1,1,A*%
%TO.N,12V*%
X116500000Y-95500000D03*
D24*
%TO.P,JP1,2,C*%
%TO.N,AUX*%
X116500000Y-93500000D03*
D25*
%TO.P,JP1,3,B*%
%TO.N,HEF TACHO*%
X116500000Y-91500000D03*
%TD*%
D26*
%TO.P,JP8,1,A*%
%TO.N,24V*%
X82000000Y-99500000D03*
D27*
%TO.P,JP8,2,B*%
%TO.N,PROBE+*%
X83450000Y-99500000D03*
%TD*%
D28*
%TO.P,JP11,1,A*%
%TO.N,24V*%
X117450000Y-99500000D03*
D29*
%TO.P,JP11,2,B*%
%TO.N,FS+*%
X116000000Y-99500000D03*
%TD*%
D28*
%TO.P,JP4,1,A*%
%TO.N,5V*%
X109500000Y-104500000D03*
D29*
%TO.P,JP4,2,B*%
%TO.N,HEF+*%
X108050000Y-104500000D03*
%TD*%
D28*
%TO.P,JP7,1,A*%
%TO.N,5V*%
X101000000Y-104500000D03*
D29*
%TO.P,JP7,2,B*%
%TO.N,PCF+*%
X99550000Y-104500000D03*
%TD*%
D28*
%TO.P,JP5,1,A*%
%TO.N,24V*%
X101000000Y-99500000D03*
D29*
%TO.P,JP5,2,B*%
%TO.N,PCF+*%
X99550000Y-99500000D03*
%TD*%
D28*
%TO.P,JP3,1,A*%
%TO.N,12V*%
X109500000Y-102000000D03*
D29*
%TO.P,JP3,2,B*%
%TO.N,HEF+*%
X108050000Y-102000000D03*
%TD*%
D28*
%TO.P,JP6,1,A*%
%TO.N,12V*%
X101000000Y-102000000D03*
D29*
%TO.P,JP6,2,B*%
%TO.N,PCF+*%
X99550000Y-102000000D03*
%TD*%
D26*
%TO.P,JP10,1,A*%
%TO.N,5V*%
X82000000Y-104500000D03*
D27*
%TO.P,JP10,2,B*%
%TO.N,PROBE+*%
X83450000Y-104500000D03*
%TD*%
D28*
%TO.P,JP13,1,A*%
%TO.N,5V*%
X117450000Y-104500000D03*
D29*
%TO.P,JP13,2,B*%
%TO.N,FS+*%
X116000000Y-104500000D03*
%TD*%
D28*
%TO.P,JP2,1,A*%
%TO.N,24V*%
X109500000Y-99500000D03*
D29*
%TO.P,JP2,2,B*%
%TO.N,HEF+*%
X108050000Y-99500000D03*
%TD*%
D28*
%TO.P,JP12,1,A*%
%TO.N,12V*%
X117450000Y-102000000D03*
D29*
%TO.P,JP12,2,B*%
%TO.N,FS+*%
X116000000Y-102000000D03*
%TD*%
D30*
%TO.N,GND*%
X114888374Y-100802583D03*
X95929481Y-104927454D03*
X111757912Y-101049354D03*
X111399312Y-97399312D03*
%TO.N,24V*%
X99000000Y-97000000D03*
X108000000Y-96500000D03*
X110000000Y-97500000D03*
%TO.N,5V*%
X97475000Y-105025000D03*
X101000000Y-106500000D03*
%TO.N,12V*%
X118500000Y-102000000D03*
X110500000Y-102000000D03*
X114500000Y-95500000D03*
X108000000Y-106000000D03*
%TD*%
D31*
%TO.N,Stepper 2A*%
X82671573Y-89328427D02*
X87671573Y-89328427D01*
X106500000Y-89000000D02*
X106500000Y-91500000D01*
X92000000Y-85000000D02*
X102500000Y-85000000D01*
X87671573Y-89328427D02*
X92000000Y-85000000D01*
X102500000Y-85000000D02*
X106500000Y-89000000D01*
%TO.N,Stepper 2B*%
X81257359Y-90742641D02*
X89030151Y-90742641D01*
X101500000Y-89500000D02*
X103500000Y-91500000D01*
X89030151Y-90742641D02*
X90272792Y-89500000D01*
X90272792Y-89500000D02*
X101500000Y-89500000D01*
D32*
%TO.N,FS+*%
X116000000Y-104500000D02*
X116000000Y-99500000D01*
X115000000Y-103000000D02*
X116000000Y-102000000D01*
X113450000Y-103000000D02*
X115000000Y-103000000D01*
%TO.N,GND*%
X96898959Y-102448959D02*
X96898959Y-103957976D01*
X111399312Y-97399312D02*
X111399312Y-98949312D01*
X95450000Y-101000000D02*
X96898959Y-102448959D01*
X111399312Y-98949312D02*
X113450000Y-101000000D01*
X96898959Y-103957976D02*
X95929481Y-104927454D01*
D33*
%TO.N,HEATER 1 GND*%
X96000000Y-108012284D02*
X92000000Y-104012284D01*
X92000000Y-94000000D02*
X94500000Y-91500000D01*
X96000000Y-108030000D02*
X96000000Y-108012284D01*
X92000000Y-104012284D02*
X92000000Y-94000000D01*
D32*
%TO.N,24V*%
X109500000Y-99500000D02*
X109500000Y-98000000D01*
X83413604Y-97500000D02*
X87500000Y-97500000D01*
X90000000Y-100000000D02*
X90000000Y-105030000D01*
X109500000Y-98000000D02*
X110000000Y-97500000D01*
X111000000Y-96500000D02*
X115036396Y-96500000D01*
X115036396Y-96500000D02*
X117450000Y-98913604D01*
X82000000Y-99500000D02*
X82000000Y-98913604D01*
X101000000Y-98913604D02*
X99086396Y-97000000D01*
X99000000Y-97000000D02*
X99500000Y-96500000D01*
X99500000Y-96500000D02*
X108000000Y-96500000D01*
X82000000Y-98913604D02*
X83413604Y-97500000D01*
X90000000Y-105030000D02*
X93000000Y-108030000D01*
X87500000Y-97500000D02*
X90000000Y-100000000D01*
X110000000Y-97500000D02*
X111000000Y-96500000D01*
X117450000Y-98913604D02*
X117450000Y-99500000D01*
X101000000Y-99500000D02*
X101000000Y-98913604D01*
X99086396Y-97000000D02*
X99000000Y-97000000D01*
%TO.N,HEF+*%
X107050000Y-103000000D02*
X108050000Y-102000000D01*
X108050000Y-99500000D02*
X108050000Y-104500000D01*
X104450000Y-103000000D02*
X107050000Y-103000000D01*
%TO.N,HEF TACHO*%
X111000000Y-95000000D02*
X108500000Y-97500000D01*
X113010050Y-93000000D02*
X112000000Y-93000000D01*
X112000000Y-93000000D02*
X111000000Y-94000000D01*
X107000000Y-97500000D02*
X106000000Y-98500000D01*
X111000000Y-94000000D02*
X111000000Y-95000000D01*
X108500000Y-97500000D02*
X107000000Y-97500000D01*
X114510050Y-91500000D02*
X113010050Y-93000000D01*
X106000000Y-99450000D02*
X104450000Y-101000000D01*
X116500000Y-91500000D02*
X114510050Y-91500000D01*
X106000000Y-98500000D02*
X106000000Y-99450000D01*
%TO.N,5V*%
X97450000Y-109050000D02*
X97010000Y-109490000D01*
X95700000Y-93300000D02*
X95700000Y-96990076D01*
X97450000Y-105050000D02*
X97450000Y-109050000D01*
X101000000Y-104500000D02*
X101000000Y-108000000D01*
X88490000Y-109490000D02*
X85249652Y-106249652D01*
X94000000Y-98690076D02*
X94000000Y-101550000D01*
X108010000Y-109490000D02*
X110700000Y-106800000D01*
X109500000Y-104500000D02*
X110700000Y-105700000D01*
X85249652Y-106249652D02*
X83163256Y-106249652D01*
X94000000Y-101550000D02*
X95450000Y-103000000D01*
X102490000Y-109490000D02*
X108010000Y-109490000D01*
X110700000Y-106800000D02*
X110700000Y-105700000D01*
X97010000Y-109490000D02*
X88490000Y-109490000D01*
X95700000Y-96990076D02*
X94000000Y-98690076D01*
X117450000Y-105086396D02*
X117450000Y-104500000D01*
X97500000Y-91500000D02*
X95700000Y-93300000D01*
X110700000Y-105700000D02*
X116836396Y-105700000D01*
X101000000Y-108000000D02*
X102490000Y-109490000D01*
X116836396Y-105700000D02*
X117450000Y-105086396D01*
X83163256Y-106249652D02*
X82000000Y-105086396D01*
X97475000Y-105025000D02*
X97450000Y-105050000D01*
X82000000Y-105086396D02*
X82000000Y-104500000D01*
%TO.N,LED*%
X119000000Y-89500000D02*
X109202943Y-89500000D01*
X99702943Y-93000000D02*
X99000000Y-93702943D01*
X120000000Y-93085000D02*
X120000000Y-90500000D01*
X108000000Y-92000000D02*
X107000000Y-93000000D01*
X99000000Y-93702943D02*
X99000000Y-95450000D01*
X109202943Y-89500000D02*
X108000000Y-90702943D01*
X107000000Y-93000000D02*
X99702943Y-93000000D01*
X99000000Y-95450000D02*
X95450000Y-99000000D01*
X108000000Y-90702943D02*
X108000000Y-92000000D01*
X120000000Y-90500000D02*
X119000000Y-89500000D01*
X121500000Y-94585000D02*
X120000000Y-93085000D01*
%TO.N,AUX*%
X114000000Y-93500000D02*
X113000000Y-94500000D01*
X116500000Y-93500000D02*
X114000000Y-93500000D01*
X113000000Y-94500000D02*
X112500000Y-94500000D01*
%TO.N,PCF+*%
X99550000Y-108800000D02*
X99550000Y-108900000D01*
X101000000Y-110350000D02*
X98000000Y-110350000D01*
X122218202Y-110350000D02*
X114000000Y-110350000D01*
X114000000Y-110350000D02*
X101000000Y-110350000D01*
X99550000Y-108800000D02*
X98000000Y-110350000D01*
X99550000Y-108900000D02*
X101000000Y-110350000D01*
X114850000Y-110350000D02*
X114000000Y-110350000D01*
X122781785Y-109786417D02*
X122218202Y-110350000D01*
X77036846Y-110350000D02*
X83500000Y-110350000D01*
X99550000Y-104500000D02*
X99550000Y-108800000D01*
X76548263Y-109861417D02*
X77036846Y-110350000D01*
X83500000Y-110350000D02*
X83111846Y-110350000D01*
X116500000Y-108700000D02*
X114850000Y-110350000D01*
X99550000Y-99500000D02*
X99550000Y-104500000D01*
X98000000Y-110350000D02*
X83500000Y-110350000D01*
X83111846Y-110350000D02*
X81498263Y-108736417D01*
%TO.N,PROBE+*%
X86450000Y-103000000D02*
X84450000Y-103000000D01*
X83450000Y-99500000D02*
X83450000Y-104500000D01*
X84450000Y-103000000D02*
X83450000Y-102000000D01*
%TO.N,12V*%
X101000000Y-102000000D02*
X105000000Y-106000000D01*
X114500000Y-95500000D02*
X116500000Y-95500000D01*
X109500000Y-102000000D02*
X110500000Y-102000000D01*
X105000000Y-106000000D02*
X108000000Y-106000000D01*
X118500000Y-102000000D02*
X117450000Y-102000000D01*
%TD*%
%TA.AperFunction,Conductor*%
%TO.N,GND*%
G36*
X88024780Y-99086148D02*
G01*
X89213181Y-100274549D01*
X89246666Y-100335872D01*
X89249500Y-100362230D01*
X89249500Y-104966294D01*
X89248191Y-104984263D01*
X89244710Y-105008025D01*
X89249264Y-105060064D01*
X89249500Y-105065470D01*
X89249500Y-105073712D01*
X89253202Y-105105391D01*
X89253386Y-105107185D01*
X89260000Y-105182792D01*
X89261461Y-105189867D01*
X89261403Y-105189878D01*
X89263034Y-105197237D01*
X89263092Y-105197224D01*
X89264757Y-105204249D01*
X89264758Y-105204254D01*
X89264759Y-105204255D01*
X89287969Y-105268027D01*
X89290708Y-105275551D01*
X89291299Y-105277253D01*
X89315182Y-105349326D01*
X89318236Y-105355874D01*
X89318182Y-105355898D01*
X89321470Y-105362688D01*
X89321521Y-105362663D01*
X89324761Y-105369113D01*
X89324762Y-105369114D01*
X89324763Y-105369117D01*
X89366494Y-105432567D01*
X89367443Y-105434058D01*
X89407076Y-105498313D01*
X89407289Y-105498657D01*
X89411766Y-105504319D01*
X89411719Y-105504356D01*
X89416482Y-105510202D01*
X89416528Y-105510164D01*
X89421173Y-105515699D01*
X89476364Y-105567769D01*
X89477658Y-105569026D01*
X90596891Y-106688259D01*
X91713181Y-107804548D01*
X91746666Y-107865871D01*
X91749500Y-107892229D01*
X91749500Y-108346151D01*
X91764622Y-108514186D01*
X91764623Y-108514192D01*
X91783479Y-108582511D01*
X91782339Y-108652371D01*
X91743611Y-108710525D01*
X91679591Y-108738509D01*
X91663948Y-108739500D01*
X88852230Y-108739500D01*
X88785191Y-108719815D01*
X88764549Y-108703181D01*
X85825381Y-105764013D01*
X85813601Y-105750382D01*
X85802272Y-105735165D01*
X85799264Y-105731124D01*
X85799262Y-105731122D01*
X85759239Y-105697538D01*
X85755264Y-105693896D01*
X85752342Y-105690974D01*
X85749431Y-105688062D01*
X85724388Y-105668261D01*
X85722990Y-105667122D01*
X85664866Y-105618350D01*
X85658832Y-105614381D01*
X85658864Y-105614332D01*
X85652505Y-105610280D01*
X85652474Y-105610331D01*
X85646332Y-105606543D01*
X85646330Y-105606542D01*
X85646329Y-105606541D01*
X85577524Y-105574456D01*
X85575904Y-105573671D01*
X85536164Y-105553713D01*
X85508085Y-105539612D01*
X85508083Y-105539611D01*
X85508082Y-105539611D01*
X85501297Y-105537141D01*
X85501317Y-105537085D01*
X85494201Y-105534611D01*
X85494183Y-105534667D01*
X85487326Y-105532395D01*
X85412980Y-105517043D01*
X85411221Y-105516653D01*
X85337370Y-105499151D01*
X85330199Y-105498313D01*
X85330205Y-105498253D01*
X85322707Y-105497487D01*
X85322702Y-105497547D01*
X85315512Y-105496917D01*
X85239620Y-105499126D01*
X85237817Y-105499152D01*
X84562928Y-105499152D01*
X84495889Y-105479467D01*
X84450134Y-105426663D01*
X84440190Y-105357505D01*
X84440421Y-105355898D01*
X84455647Y-105250000D01*
X84455647Y-103874500D01*
X84475332Y-103807461D01*
X84528136Y-103761706D01*
X84579647Y-103750500D01*
X85121042Y-103750500D01*
X85188081Y-103770185D01*
X85226580Y-103809402D01*
X85232288Y-103818656D01*
X85356344Y-103942712D01*
X85505666Y-104034814D01*
X85672203Y-104089999D01*
X85774991Y-104100500D01*
X87125008Y-104100499D01*
X87227797Y-104089999D01*
X87394334Y-104034814D01*
X87543656Y-103942712D01*
X87667712Y-103818656D01*
X87759814Y-103669334D01*
X87814999Y-103502797D01*
X87825500Y-103400009D01*
X87825499Y-102599992D01*
X87814999Y-102497203D01*
X87759814Y-102330666D01*
X87667712Y-102181344D01*
X87543656Y-102057288D01*
X87479806Y-102017905D01*
X87433083Y-101965958D01*
X87421860Y-101896995D01*
X87449704Y-101832913D01*
X87468254Y-101814895D01*
X87487540Y-101799728D01*
X87625105Y-101640969D01*
X87625114Y-101640958D01*
X87730144Y-101459039D01*
X87730147Y-101459032D01*
X87798855Y-101260517D01*
X87798855Y-101260515D01*
X87800368Y-101250000D01*
X86729560Y-101250000D01*
X86768278Y-101207941D01*
X86818551Y-101093330D01*
X86828886Y-100968605D01*
X86798163Y-100847281D01*
X86734606Y-100750000D01*
X87796257Y-100750000D01*
X87769229Y-100638590D01*
X87681959Y-100447492D01*
X87560110Y-100276380D01*
X87560104Y-100276374D01*
X87408067Y-100131408D01*
X87366641Y-100104784D01*
X87320887Y-100051979D01*
X87310944Y-99982821D01*
X87339970Y-99919265D01*
X87357030Y-99902999D01*
X87487886Y-99800092D01*
X87625519Y-99641256D01*
X87641649Y-99613319D01*
X87730601Y-99459249D01*
X87730602Y-99459247D01*
X87730604Y-99459244D01*
X87799344Y-99260633D01*
X87814361Y-99156180D01*
X87843386Y-99092627D01*
X87902164Y-99054852D01*
X87972033Y-99054852D01*
X88024780Y-99086148D01*
G37*
%TD.AperFunction*%
%TA.AperFunction,Conductor*%
G36*
X98178682Y-97435198D02*
G01*
X98234615Y-97477070D01*
X98242735Y-97489380D01*
X98267465Y-97532214D01*
X98394129Y-97672888D01*
X98547265Y-97784148D01*
X98547270Y-97784151D01*
X98720192Y-97861142D01*
X98720193Y-97861142D01*
X98720197Y-97861144D01*
X98895045Y-97898308D01*
X98956526Y-97931500D01*
X98956945Y-97931917D01*
X99062743Y-98037715D01*
X99096228Y-98099038D01*
X99091244Y-98168730D01*
X99049372Y-98224663D01*
X98983909Y-98249080D01*
X98978039Y-98249499D01*
X98978034Y-98249500D01*
X98839949Y-98290045D01*
X98718873Y-98367856D01*
X98624623Y-98476626D01*
X98624622Y-98476628D01*
X98564834Y-98607543D01*
X98552023Y-98696653D01*
X98544354Y-98749997D01*
X98544353Y-98750001D01*
X98544352Y-98750003D01*
X98544352Y-100250000D01*
X98544353Y-100250002D01*
X98549499Y-100321960D01*
X98549500Y-100321965D01*
X98590045Y-100460050D01*
X98590047Y-100460053D01*
X98667857Y-100581128D01*
X98667858Y-100581129D01*
X98754387Y-100656106D01*
X98792162Y-100714884D01*
X98792162Y-100784753D01*
X98754388Y-100843532D01*
X98740225Y-100854134D01*
X98718873Y-100867856D01*
X98718866Y-100867862D01*
X98624625Y-100976622D01*
X98624622Y-100976628D01*
X98564834Y-101107543D01*
X98544353Y-101250000D01*
X98544352Y-102750000D01*
X98544353Y-102750002D01*
X98549499Y-102821960D01*
X98549500Y-102821965D01*
X98590045Y-102960050D01*
X98590047Y-102960053D01*
X98667857Y-103081128D01*
X98667858Y-103081129D01*
X98754387Y-103156106D01*
X98792162Y-103214884D01*
X98792162Y-103284753D01*
X98754388Y-103343532D01*
X98740225Y-103354134D01*
X98718873Y-103367856D01*
X98718866Y-103367862D01*
X98624625Y-103476622D01*
X98624622Y-103476628D01*
X98564834Y-103607543D01*
X98555950Y-103669340D01*
X98544354Y-103749997D01*
X98544353Y-103750001D01*
X98544353Y-104619144D01*
X98524668Y-104686183D01*
X98471864Y-104731938D01*
X98402706Y-104741882D01*
X98339150Y-104712857D01*
X98305628Y-104662301D01*
X98304825Y-104662659D01*
X98302695Y-104657877D01*
X98302423Y-104657466D01*
X98302181Y-104656721D01*
X98302178Y-104656715D01*
X98207533Y-104492784D01*
X98080871Y-104352112D01*
X98080870Y-104352111D01*
X97927734Y-104240851D01*
X97927729Y-104240848D01*
X97754807Y-104163857D01*
X97754802Y-104163855D01*
X97609001Y-104132865D01*
X97569646Y-104124500D01*
X97380354Y-104124500D01*
X97347897Y-104131398D01*
X97195197Y-104163855D01*
X97195192Y-104163857D01*
X97022270Y-104240848D01*
X97022265Y-104240851D01*
X96869129Y-104352111D01*
X96742466Y-104492785D01*
X96647821Y-104656715D01*
X96647818Y-104656722D01*
X96592979Y-104825500D01*
X96589326Y-104836744D01*
X96569540Y-105025000D01*
X96589326Y-105213256D01*
X96589327Y-105213259D01*
X96647818Y-105393277D01*
X96647821Y-105393284D01*
X96682887Y-105454019D01*
X96699500Y-105516019D01*
X96699500Y-106290394D01*
X96679815Y-106357433D01*
X96627011Y-106403188D01*
X96557853Y-106413132D01*
X96494297Y-106384107D01*
X96487819Y-106378075D01*
X94313455Y-104203711D01*
X94279970Y-104142388D01*
X94284954Y-104072696D01*
X94326826Y-104016763D01*
X94392290Y-103992346D01*
X94460563Y-104007198D01*
X94466214Y-104010480D01*
X94505666Y-104034814D01*
X94672203Y-104089999D01*
X94774991Y-104100500D01*
X96125008Y-104100499D01*
X96227797Y-104089999D01*
X96394334Y-104034814D01*
X96543656Y-103942712D01*
X96667712Y-103818656D01*
X96759814Y-103669334D01*
X96814999Y-103502797D01*
X96825500Y-103400009D01*
X96825499Y-102599992D01*
X96814999Y-102497203D01*
X96759814Y-102330666D01*
X96667712Y-102181344D01*
X96543656Y-102057288D01*
X96479806Y-102017905D01*
X96433083Y-101965958D01*
X96421860Y-101896995D01*
X96449704Y-101832913D01*
X96468254Y-101814895D01*
X96487540Y-101799728D01*
X96625105Y-101640969D01*
X96625114Y-101640958D01*
X96730144Y-101459039D01*
X96730147Y-101459032D01*
X96798855Y-101260517D01*
X96798855Y-101260515D01*
X96800368Y-101250000D01*
X95729560Y-101250000D01*
X95768278Y-101207941D01*
X95818551Y-101093330D01*
X95828886Y-100968605D01*
X95798163Y-100847281D01*
X95734606Y-100750000D01*
X96796257Y-100750000D01*
X96769229Y-100638590D01*
X96681959Y-100447492D01*
X96560110Y-100276380D01*
X96560104Y-100276374D01*
X96408067Y-100131408D01*
X96366641Y-100104784D01*
X96320887Y-100051979D01*
X96310944Y-99982821D01*
X96339970Y-99919265D01*
X96357030Y-99902999D01*
X96487886Y-99800092D01*
X96625519Y-99641256D01*
X96641649Y-99613319D01*
X96730601Y-99459249D01*
X96730602Y-99459247D01*
X96730604Y-99459244D01*
X96799344Y-99260633D01*
X96829254Y-99052602D01*
X96819254Y-98842670D01*
X96806277Y-98789178D01*
X96809602Y-98719389D01*
X96839099Y-98672267D01*
X98047669Y-97463697D01*
X98108990Y-97430214D01*
X98178682Y-97435198D01*
G37*
%TD.AperFunction*%
%TA.AperFunction,Conductor*%
G36*
X114741205Y-97270185D02*
G01*
X114761847Y-97286819D01*
X115209666Y-97734638D01*
X115512743Y-98037714D01*
X115546228Y-98099037D01*
X115541244Y-98168728D01*
X115499372Y-98224662D01*
X115433918Y-98249078D01*
X115428047Y-98249498D01*
X115428034Y-98249500D01*
X115289949Y-98290045D01*
X115168873Y-98367856D01*
X115074623Y-98476626D01*
X115074622Y-98476628D01*
X115014834Y-98607544D01*
X115014833Y-98607547D01*
X115012389Y-98624547D01*
X114983363Y-98688102D01*
X114924584Y-98725875D01*
X114854715Y-98725873D01*
X114795937Y-98688098D01*
X114772972Y-98643543D01*
X114771636Y-98644006D01*
X114769705Y-98638429D01*
X114769704Y-98638424D01*
X114755601Y-98607543D01*
X114682401Y-98447256D01*
X114682398Y-98447251D01*
X114682397Y-98447250D01*
X114682396Y-98447247D01*
X114560486Y-98276048D01*
X114560484Y-98276046D01*
X114560479Y-98276040D01*
X114408379Y-98131014D01*
X114231574Y-98017388D01*
X114217011Y-98011558D01*
X114064221Y-97950390D01*
X114036455Y-97939274D01*
X113830086Y-97899500D01*
X113830085Y-97899500D01*
X113122575Y-97899500D01*
X112965782Y-97914472D01*
X112965778Y-97914473D01*
X112764127Y-97973683D01*
X112577313Y-98069991D01*
X112412116Y-98199905D01*
X112412112Y-98199909D01*
X112274478Y-98358746D01*
X112169398Y-98540750D01*
X112100656Y-98739365D01*
X112100656Y-98739367D01*
X112071125Y-98944767D01*
X112070746Y-98947401D01*
X112080745Y-99157327D01*
X112130296Y-99361578D01*
X112130298Y-99361582D01*
X112217598Y-99552743D01*
X112217601Y-99552748D01*
X112217602Y-99552750D01*
X112217604Y-99552753D01*
X112339514Y-99723952D01*
X112339515Y-99723953D01*
X112339520Y-99723959D01*
X112491619Y-99868984D01*
X112533386Y-99895826D01*
X112579141Y-99948630D01*
X112589085Y-100017789D01*
X112560060Y-100081345D01*
X112542999Y-100097612D01*
X112412462Y-100200268D01*
X112412459Y-100200271D01*
X112274894Y-100359030D01*
X112274885Y-100359041D01*
X112169855Y-100540960D01*
X112169852Y-100540967D01*
X112101144Y-100739482D01*
X112101144Y-100739484D01*
X112099632Y-100750000D01*
X113170440Y-100750000D01*
X113131722Y-100792059D01*
X113081449Y-100906670D01*
X113071114Y-101031395D01*
X113101837Y-101152719D01*
X113165394Y-101250000D01*
X112103742Y-101250000D01*
X112130770Y-101361409D01*
X112218040Y-101552507D01*
X112339889Y-101723619D01*
X112339900Y-101723631D01*
X112442521Y-101821479D01*
X112477457Y-101881987D01*
X112474132Y-101951778D01*
X112433604Y-102008692D01*
X112422049Y-102016760D01*
X112356347Y-102057285D01*
X112356343Y-102057288D01*
X112232289Y-102181342D01*
X112140187Y-102330663D01*
X112140185Y-102330668D01*
X112113490Y-102411229D01*
X112085001Y-102497203D01*
X112085001Y-102497204D01*
X112085000Y-102497204D01*
X112074500Y-102599983D01*
X112074500Y-103400001D01*
X112074501Y-103400019D01*
X112085000Y-103502796D01*
X112085001Y-103502799D01*
X112140185Y-103669331D01*
X112140187Y-103669336D01*
X112145552Y-103678034D01*
X112232288Y-103818656D01*
X112356344Y-103942712D01*
X112505666Y-104034814D01*
X112672203Y-104089999D01*
X112774991Y-104100500D01*
X114125008Y-104100499D01*
X114227797Y-104089999D01*
X114394334Y-104034814D01*
X114543656Y-103942712D01*
X114667712Y-103818656D01*
X114673419Y-103809402D01*
X114725368Y-103762678D01*
X114778958Y-103750500D01*
X114870353Y-103750500D01*
X114937392Y-103770185D01*
X114983147Y-103822989D01*
X114994353Y-103874500D01*
X114994353Y-104825500D01*
X114974668Y-104892539D01*
X114921864Y-104938294D01*
X114870353Y-104949500D01*
X111062230Y-104949500D01*
X110995191Y-104929815D01*
X110974549Y-104913181D01*
X110541966Y-104480598D01*
X110508481Y-104419275D01*
X110505647Y-104392917D01*
X110505647Y-103750000D01*
X110505647Y-103749999D01*
X110500500Y-103678039D01*
X110497943Y-103669331D01*
X110459954Y-103539949D01*
X110436078Y-103502797D01*
X110382143Y-103418872D01*
X110295612Y-103343893D01*
X110257838Y-103285115D01*
X110257838Y-103215245D01*
X110295612Y-103156467D01*
X110309770Y-103145868D01*
X110331128Y-103132143D01*
X110425377Y-103023373D01*
X110448386Y-102972989D01*
X110494141Y-102920185D01*
X110561181Y-102900500D01*
X110594644Y-102900500D01*
X110594646Y-102900500D01*
X110779803Y-102861144D01*
X110952730Y-102784151D01*
X111105871Y-102672888D01*
X111232533Y-102532216D01*
X111327179Y-102368284D01*
X111385674Y-102188256D01*
X111405460Y-102000000D01*
X111385674Y-101811744D01*
X111327179Y-101631716D01*
X111232533Y-101467784D01*
X111105871Y-101327112D01*
X111068581Y-101300019D01*
X110952734Y-101215851D01*
X110952729Y-101215848D01*
X110779807Y-101138857D01*
X110779802Y-101138855D01*
X110618715Y-101104616D01*
X110594646Y-101099500D01*
X110594645Y-101099500D01*
X110565934Y-101099500D01*
X110498895Y-101079815D01*
X110461618Y-101042539D01*
X110459953Y-101039949D01*
X110459953Y-101039947D01*
X110382143Y-100918872D01*
X110295612Y-100843893D01*
X110257838Y-100785115D01*
X110257838Y-100715245D01*
X110295612Y-100656467D01*
X110309770Y-100645868D01*
X110331128Y-100632143D01*
X110425377Y-100523373D01*
X110485165Y-100392457D01*
X110505647Y-100250000D01*
X110505647Y-98750000D01*
X110500500Y-98678039D01*
X110490507Y-98644006D01*
X110459954Y-98539949D01*
X110459954Y-98539948D01*
X110408405Y-98459737D01*
X110388720Y-98392697D01*
X110408404Y-98325658D01*
X110447662Y-98288231D01*
X110447473Y-98287971D01*
X110449420Y-98286556D01*
X110450739Y-98285299D01*
X110452713Y-98284158D01*
X110452730Y-98284151D01*
X110605871Y-98172888D01*
X110732533Y-98032216D01*
X110827179Y-97868284D01*
X110882522Y-97697955D01*
X110912769Y-97648597D01*
X111274547Y-97286818D01*
X111335871Y-97253334D01*
X111362229Y-97250500D01*
X114674166Y-97250500D01*
X114741205Y-97270185D01*
G37*
%TD.AperFunction*%
%TA.AperFunction,Conductor*%
G36*
X85189240Y-98270185D02*
G01*
X85234995Y-98322989D01*
X85244939Y-98392147D01*
X85229588Y-98436500D01*
X85169398Y-98540750D01*
X85100656Y-98739365D01*
X85100656Y-98739367D01*
X85071125Y-98944767D01*
X85070746Y-98947401D01*
X85080745Y-99157327D01*
X85130296Y-99361578D01*
X85130298Y-99361582D01*
X85217598Y-99552743D01*
X85217601Y-99552748D01*
X85217602Y-99552750D01*
X85217604Y-99552753D01*
X85339514Y-99723952D01*
X85339515Y-99723953D01*
X85339520Y-99723959D01*
X85491619Y-99868984D01*
X85533386Y-99895826D01*
X85579141Y-99948630D01*
X85589085Y-100017789D01*
X85560060Y-100081345D01*
X85542999Y-100097612D01*
X85412462Y-100200268D01*
X85412459Y-100200271D01*
X85274894Y-100359030D01*
X85274885Y-100359041D01*
X85169855Y-100540960D01*
X85169852Y-100540967D01*
X85101144Y-100739482D01*
X85101144Y-100739484D01*
X85099632Y-100750000D01*
X86170440Y-100750000D01*
X86131722Y-100792059D01*
X86081449Y-100906670D01*
X86071114Y-101031395D01*
X86101837Y-101152719D01*
X86165394Y-101250000D01*
X85103742Y-101250000D01*
X85130770Y-101361409D01*
X85218040Y-101552507D01*
X85339889Y-101723619D01*
X85339900Y-101723631D01*
X85442521Y-101821479D01*
X85477457Y-101881987D01*
X85474132Y-101951778D01*
X85433604Y-102008692D01*
X85422049Y-102016760D01*
X85356347Y-102057285D01*
X85356343Y-102057288D01*
X85232287Y-102181344D01*
X85226580Y-102190598D01*
X85174632Y-102237322D01*
X85121042Y-102249500D01*
X84812229Y-102249500D01*
X84745190Y-102229815D01*
X84724548Y-102213181D01*
X84236819Y-101725451D01*
X84203334Y-101664128D01*
X84200500Y-101637770D01*
X84200500Y-100751668D01*
X84220185Y-100684629D01*
X84257458Y-100647354D01*
X84281128Y-100632143D01*
X84375377Y-100523373D01*
X84435165Y-100392457D01*
X84455647Y-100250000D01*
X84455647Y-98750000D01*
X84450500Y-98678039D01*
X84440507Y-98644006D01*
X84409954Y-98539949D01*
X84346710Y-98441539D01*
X84327026Y-98374500D01*
X84346711Y-98307460D01*
X84399515Y-98261706D01*
X84451026Y-98250500D01*
X85122201Y-98250500D01*
X85189240Y-98270185D01*
G37*
%TD.AperFunction*%
%TA.AperFunction,Conductor*%
G36*
X114927173Y-99324375D02*
G01*
X114977740Y-99372591D01*
X114994353Y-99434591D01*
X114994353Y-100250002D01*
X114999499Y-100321960D01*
X114999500Y-100321965D01*
X115040045Y-100460050D01*
X115040047Y-100460053D01*
X115117857Y-100581128D01*
X115117858Y-100581129D01*
X115204387Y-100656106D01*
X115242162Y-100714884D01*
X115242162Y-100784753D01*
X115204388Y-100843532D01*
X115190225Y-100854134D01*
X115168873Y-100867856D01*
X115168866Y-100867862D01*
X115074625Y-100976622D01*
X115074622Y-100976628D01*
X115014834Y-101107543D01*
X115005387Y-101173252D01*
X114976361Y-101236807D01*
X114917583Y-101274581D01*
X114847713Y-101274581D01*
X114809465Y-101250000D01*
X113729560Y-101250000D01*
X113768278Y-101207941D01*
X113818551Y-101093330D01*
X113828886Y-100968605D01*
X113798163Y-100847281D01*
X113734606Y-100750000D01*
X114796257Y-100750000D01*
X114769229Y-100638590D01*
X114681959Y-100447492D01*
X114560110Y-100276380D01*
X114560104Y-100276374D01*
X114408067Y-100131408D01*
X114366641Y-100104784D01*
X114320887Y-100051979D01*
X114310944Y-99982821D01*
X114339970Y-99919265D01*
X114357030Y-99902999D01*
X114487886Y-99800092D01*
X114625519Y-99641256D01*
X114641649Y-99613319D01*
X114697919Y-99515856D01*
X114730604Y-99459244D01*
X114753173Y-99394034D01*
X114793701Y-99337120D01*
X114858566Y-99311152D01*
X114927173Y-99324375D01*
G37*
%TD.AperFunction*%
%TA.AperFunction,Conductor*%
G36*
X111778051Y-90270185D02*
G01*
X111823806Y-90322989D01*
X111833750Y-90392147D01*
X111804725Y-90455703D01*
X111782135Y-90476075D01*
X111693121Y-90538402D01*
X111538402Y-90693121D01*
X111412900Y-90872357D01*
X111412898Y-90872361D01*
X111320426Y-91070668D01*
X111320422Y-91070677D01*
X111263793Y-91282020D01*
X111263793Y-91282024D01*
X111244723Y-91499997D01*
X111244723Y-91500002D01*
X111263793Y-91717975D01*
X111263793Y-91717979D01*
X111320422Y-91929322D01*
X111320424Y-91929326D01*
X111320425Y-91929330D01*
X111412898Y-92127639D01*
X111516134Y-92275076D01*
X111538461Y-92341280D01*
X111521451Y-92409048D01*
X111504753Y-92431293D01*
X111462214Y-92476380D01*
X111460958Y-92477674D01*
X110514358Y-93424272D01*
X110500729Y-93436051D01*
X110481468Y-93450390D01*
X110447898Y-93490397D01*
X110444253Y-93494376D01*
X110435875Y-93502758D01*
X110434816Y-93501700D01*
X110380612Y-93535455D01*
X110310749Y-93534461D01*
X110276250Y-93517568D01*
X110127387Y-93413333D01*
X109929159Y-93320898D01*
X109929150Y-93320894D01*
X109717894Y-93264289D01*
X109717884Y-93264287D01*
X109500001Y-93245225D01*
X109499999Y-93245225D01*
X109282115Y-93264287D01*
X109282105Y-93264289D01*
X109070849Y-93320894D01*
X109070840Y-93320898D01*
X108872614Y-93413332D01*
X108872612Y-93413333D01*
X108810428Y-93456875D01*
X108810427Y-93456875D01*
X109358634Y-94005081D01*
X109354839Y-94005627D01*
X109221438Y-94066549D01*
X109110605Y-94162587D01*
X109031318Y-94285960D01*
X109008867Y-94362419D01*
X108456875Y-93810427D01*
X108456875Y-93810428D01*
X108413333Y-93872612D01*
X108413332Y-93872614D01*
X108320898Y-94070840D01*
X108320894Y-94070849D01*
X108264289Y-94282105D01*
X108264287Y-94282115D01*
X108245225Y-94499999D01*
X108245225Y-94500000D01*
X108264287Y-94717884D01*
X108264289Y-94717894D01*
X108320894Y-94929150D01*
X108320898Y-94929159D01*
X108413335Y-95127391D01*
X108456873Y-95189571D01*
X108456875Y-95189572D01*
X109008866Y-94637580D01*
X109031318Y-94714040D01*
X109110605Y-94837413D01*
X109221438Y-94933451D01*
X109354839Y-94994373D01*
X109358632Y-94994918D01*
X108810426Y-95543124D01*
X108872611Y-95586666D01*
X108872617Y-95586669D01*
X109039024Y-95664266D01*
X109091464Y-95710438D01*
X109110616Y-95777632D01*
X109090400Y-95844513D01*
X109074301Y-95864329D01*
X108934030Y-96004600D01*
X108872707Y-96038085D01*
X108803015Y-96033101D01*
X108747082Y-95991229D01*
X108738962Y-95978918D01*
X108732536Y-95967788D01*
X108732534Y-95967785D01*
X108605870Y-95827111D01*
X108452734Y-95715851D01*
X108452729Y-95715848D01*
X108279807Y-95638857D01*
X108279802Y-95638855D01*
X108133944Y-95607853D01*
X108094646Y-95599500D01*
X107905354Y-95599500D01*
X107872897Y-95606398D01*
X107720197Y-95638855D01*
X107720192Y-95638857D01*
X107547270Y-95715848D01*
X107547265Y-95715851D01*
X107533548Y-95725818D01*
X107467742Y-95749298D01*
X107460663Y-95749500D01*
X107288988Y-95749500D01*
X107221949Y-95729815D01*
X107176194Y-95677011D01*
X107166250Y-95607853D01*
X107195275Y-95544297D01*
X107217864Y-95523926D01*
X107252352Y-95499777D01*
X107306877Y-95461598D01*
X107461598Y-95306877D01*
X107587102Y-95127639D01*
X107679575Y-94929330D01*
X107736207Y-94717977D01*
X107755277Y-94500000D01*
X107736207Y-94282023D01*
X107679575Y-94070670D01*
X107587102Y-93872362D01*
X107587100Y-93872359D01*
X107587099Y-93872357D01*
X107483865Y-93724923D01*
X107461538Y-93658717D01*
X107478548Y-93590950D01*
X107495240Y-93568713D01*
X107537799Y-93523601D01*
X107538994Y-93522371D01*
X108485642Y-92575724D01*
X108499257Y-92563958D01*
X108518530Y-92549610D01*
X108552123Y-92509574D01*
X108555757Y-92505608D01*
X108561591Y-92499776D01*
X108561593Y-92499773D01*
X108564152Y-92497215D01*
X108565376Y-92498439D01*
X108618707Y-92465015D01*
X108688572Y-92465808D01*
X108723406Y-92482802D01*
X108872361Y-92587102D01*
X109070670Y-92679575D01*
X109282023Y-92736207D01*
X109464926Y-92752208D01*
X109499998Y-92755277D01*
X109500000Y-92755277D01*
X109500002Y-92755277D01*
X109528254Y-92752805D01*
X109717977Y-92736207D01*
X109929330Y-92679575D01*
X110127639Y-92587102D01*
X110306877Y-92461598D01*
X110461598Y-92306877D01*
X110587102Y-92127639D01*
X110679575Y-91929330D01*
X110736207Y-91717977D01*
X110754483Y-91509073D01*
X110755277Y-91500002D01*
X110755277Y-91499997D01*
X110750477Y-91445130D01*
X110736207Y-91282023D01*
X110688835Y-91105227D01*
X110679577Y-91070677D01*
X110679576Y-91070676D01*
X110679575Y-91070670D01*
X110587102Y-90872362D01*
X110587100Y-90872359D01*
X110587099Y-90872357D01*
X110461599Y-90693124D01*
X110384819Y-90616344D01*
X110306877Y-90538402D01*
X110273220Y-90514835D01*
X110217864Y-90476074D01*
X110174239Y-90421497D01*
X110167047Y-90351999D01*
X110198569Y-90289644D01*
X110258799Y-90254231D01*
X110288988Y-90250500D01*
X111711012Y-90250500D01*
X111778051Y-90270185D01*
G37*
%TD.AperFunction*%
%TA.AperFunction,Conductor*%
G36*
X85032785Y-81850277D02*
G01*
X85135089Y-81859055D01*
X85139563Y-81859605D01*
X85226441Y-81873546D01*
X85233402Y-81875079D01*
X85334144Y-81903463D01*
X85337193Y-81904409D01*
X85418368Y-81931953D01*
X85426170Y-81935210D01*
X85525507Y-81984880D01*
X85527116Y-81985716D01*
X85591929Y-82020717D01*
X85592516Y-82021034D01*
X85608932Y-82031650D01*
X85623502Y-82042795D01*
X85725263Y-82120637D01*
X85755166Y-82143998D01*
X85760791Y-82148969D01*
X88211913Y-84595887D01*
X88243408Y-84627328D01*
X88260748Y-84649036D01*
X88274432Y-84670779D01*
X88304977Y-84719315D01*
X88358270Y-84780139D01*
X88362759Y-84789827D01*
X88379856Y-84805378D01*
X88384775Y-84810389D01*
X88432666Y-84865048D01*
X88432668Y-84865050D01*
X88513105Y-84931815D01*
X88519563Y-84941410D01*
X88536407Y-84951898D01*
X88543231Y-84956821D01*
X88577898Y-84985594D01*
X88579999Y-84987421D01*
X88592652Y-84998929D01*
X88613153Y-85007375D01*
X88687975Y-85051645D01*
X88696918Y-85061227D01*
X88709519Y-85066198D01*
X88727152Y-85074825D01*
X88748522Y-85087469D01*
X88751762Y-85088747D01*
X88753363Y-85089379D01*
X88773396Y-85099463D01*
X88778070Y-85102373D01*
X88797881Y-85106941D01*
X88813621Y-85113151D01*
X88879406Y-85139104D01*
X88890967Y-85148102D01*
X88902398Y-85150355D01*
X88923931Y-85156669D01*
X88928765Y-85158576D01*
X88953017Y-85163929D01*
X88971784Y-85169663D01*
X88979226Y-85172599D01*
X88997457Y-85173738D01*
X89082356Y-85192479D01*
X89096421Y-85200215D01*
X89120205Y-85200535D01*
X89122950Y-85200633D01*
X89167971Y-85203281D01*
X89176312Y-85204344D01*
X89190918Y-85207223D01*
X89207026Y-85205578D01*
X89288741Y-85210384D01*
X89311396Y-85211717D01*
X89311397Y-85211716D01*
X89311400Y-85211717D01*
X89383728Y-85204476D01*
X89390735Y-85204174D01*
X89409230Y-85204422D01*
X89423740Y-85200471D01*
X89504198Y-85192417D01*
X89504204Y-85192415D01*
X89509011Y-85191548D01*
X89509318Y-85193253D01*
X89531042Y-85193858D01*
X89585498Y-85172142D01*
X89610760Y-85165056D01*
X89633722Y-85161174D01*
X89644353Y-85162435D01*
X89670155Y-85143938D01*
X89684242Y-85135861D01*
X89684204Y-85135804D01*
X89684277Y-85135755D01*
X89684083Y-85135399D01*
X89692877Y-85130587D01*
X89693071Y-85130943D01*
X89693149Y-85130909D01*
X89693177Y-85130971D01*
X89707571Y-85123462D01*
X89733427Y-85113151D01*
X89737870Y-85103114D01*
X89748639Y-85091897D01*
X89766583Y-85075419D01*
X89766868Y-85075156D01*
X89772671Y-85070442D01*
X89801937Y-85049461D01*
X89808765Y-85047073D01*
X89818843Y-85037974D01*
X89832230Y-85018912D01*
X89847937Y-85001153D01*
X89852425Y-84996578D01*
X89853828Y-84995287D01*
X89853829Y-84995288D01*
X89914932Y-84939124D01*
X89953714Y-84889364D01*
X89968266Y-84878906D01*
X89981114Y-84856321D01*
X89991084Y-84841417D01*
X90016970Y-84808205D01*
X90062608Y-84723971D01*
X90076648Y-84709840D01*
X90082370Y-84691996D01*
X90091419Y-84670795D01*
X90096043Y-84662263D01*
X90099196Y-84653087D01*
X90108685Y-84632073D01*
X90113786Y-84623105D01*
X90118854Y-84595887D01*
X90149988Y-84505290D01*
X90156865Y-84464119D01*
X90156925Y-84463756D01*
X90161153Y-84446324D01*
X90166734Y-84428919D01*
X90166939Y-84403798D01*
X90177334Y-84341568D01*
X90177339Y-84258575D01*
X90177339Y-84258075D01*
X90177339Y-84256947D01*
X90177671Y-84250554D01*
X90182752Y-84201676D01*
X90177339Y-84169681D01*
X90177339Y-83946348D01*
X90177472Y-83942294D01*
X90179580Y-83910117D01*
X90182828Y-83860553D01*
X90195822Y-83678860D01*
X90196855Y-83671201D01*
X90219992Y-83554881D01*
X90251367Y-83410652D01*
X90253236Y-83403919D01*
X90293374Y-83285675D01*
X90293931Y-83284111D01*
X90343001Y-83152548D01*
X90345456Y-83146860D01*
X90401881Y-83032443D01*
X90402989Y-83030309D01*
X90469028Y-82909368D01*
X90471856Y-82904698D01*
X90543396Y-82797632D01*
X90545260Y-82794998D01*
X90627105Y-82685667D01*
X90630112Y-82681960D01*
X90715324Y-82584794D01*
X90718049Y-82581884D01*
X90814402Y-82485533D01*
X90817310Y-82482809D01*
X90914499Y-82397578D01*
X90918169Y-82394602D01*
X91027502Y-82312758D01*
X91030174Y-82310867D01*
X91137225Y-82239339D01*
X91141892Y-82236514D01*
X91262793Y-82170498D01*
X91265015Y-82169345D01*
X91379391Y-82112942D01*
X91385052Y-82110498D01*
X91516591Y-82061439D01*
X91518204Y-82060864D01*
X91636447Y-82020728D01*
X91643189Y-82018858D01*
X91683706Y-82010044D01*
X91787409Y-81987486D01*
X91903746Y-81964347D01*
X91911390Y-81963317D01*
X92090306Y-81950508D01*
X92144766Y-81946940D01*
X92175182Y-81944948D01*
X92179237Y-81944815D01*
X100108682Y-81944815D01*
X123615868Y-81944815D01*
X123619923Y-81944948D01*
X123646654Y-81946699D01*
X123701693Y-81950307D01*
X123883362Y-81963301D01*
X123891005Y-81964331D01*
X124007332Y-81987470D01*
X124151550Y-82018843D01*
X124158297Y-82020716D01*
X124276536Y-82060853D01*
X124278107Y-82061412D01*
X124403009Y-82107999D01*
X124409640Y-82110473D01*
X124415398Y-82112959D01*
X124451371Y-82130699D01*
X124529701Y-82169327D01*
X124531953Y-82170497D01*
X124652821Y-82236496D01*
X124657534Y-82239349D01*
X124701921Y-82269008D01*
X124764543Y-82310852D01*
X124767247Y-82312764D01*
X124876536Y-82394578D01*
X124880257Y-82397595D01*
X124977389Y-82482778D01*
X124980351Y-82485552D01*
X125076656Y-82581858D01*
X125079430Y-82584820D01*
X125164618Y-82681960D01*
X125167632Y-82685677D01*
X125249458Y-82794985D01*
X125251360Y-82797673D01*
X125322852Y-82904670D01*
X125325719Y-82909404D01*
X125391692Y-83030229D01*
X125392882Y-83032521D01*
X125449247Y-83146818D01*
X125451734Y-83152577D01*
X125500759Y-83284020D01*
X125501378Y-83285758D01*
X125541487Y-83403919D01*
X125543362Y-83410675D01*
X125574737Y-83554907D01*
X125597869Y-83671201D01*
X125598903Y-83678878D01*
X125611757Y-83858457D01*
X125617270Y-83942581D01*
X125617403Y-83946638D01*
X125616500Y-110780296D01*
X125616244Y-110785919D01*
X125611048Y-110842995D01*
X125595526Y-110999183D01*
X125594052Y-111007795D01*
X125572074Y-111097635D01*
X125571689Y-111099127D01*
X125539671Y-111217214D01*
X125537196Y-111224514D01*
X125499647Y-111316105D01*
X125498623Y-111318461D01*
X125450258Y-111423782D01*
X125447148Y-111429694D01*
X125395172Y-111516755D01*
X125393239Y-111519789D01*
X125329428Y-111613822D01*
X125326045Y-111618348D01*
X125261143Y-111697411D01*
X125258077Y-111700873D01*
X125180038Y-111782663D01*
X125176724Y-111785887D01*
X125100794Y-111854427D01*
X125096430Y-111858020D01*
X125005483Y-111926178D01*
X125002544Y-111928251D01*
X124918032Y-111984243D01*
X124912273Y-111987627D01*
X124809324Y-112040888D01*
X124807018Y-112042022D01*
X124717303Y-112083819D01*
X124710127Y-112086634D01*
X124593636Y-112124169D01*
X124592162Y-112124623D01*
X124503483Y-112150782D01*
X124494952Y-112152658D01*
X124340322Y-112175399D01*
X124282210Y-112183451D01*
X124277805Y-112183902D01*
X124260450Y-112185054D01*
X124246272Y-112194218D01*
X124227694Y-112199975D01*
X124190990Y-112205532D01*
X113497283Y-112205532D01*
X113489695Y-112203303D01*
X113449267Y-112205329D01*
X113448503Y-112206134D01*
X113435251Y-112219401D01*
X113433462Y-112222151D01*
X112902107Y-112784990D01*
X112886089Y-112801934D01*
X112884143Y-112803902D01*
X112487065Y-113188066D01*
X112287572Y-113380342D01*
X112285594Y-113382167D01*
X111909565Y-113714354D01*
X111663168Y-113930647D01*
X111661168Y-113932330D01*
X111287116Y-114233745D01*
X111014187Y-114451701D01*
X111012174Y-114453242D01*
X110634405Y-114730408D01*
X110342009Y-114942399D01*
X110339992Y-114943802D01*
X109956151Y-115199521D01*
X109648032Y-115401728D01*
X109646018Y-115402995D01*
X109255356Y-115638442D01*
X108933725Y-115828715D01*
X108931723Y-115829850D01*
X108534081Y-116045586D01*
X108200569Y-116222476D01*
X108198587Y-116223482D01*
X107794061Y-116419789D01*
X107450173Y-116582150D01*
X107448217Y-116583032D01*
X107037070Y-116760025D01*
X106684081Y-116907005D01*
X106682159Y-116907768D01*
X106264882Y-117065409D01*
X105903940Y-117196345D01*
X105902060Y-117196994D01*
X105479308Y-117335175D01*
X105111328Y-117449588D01*
X105109495Y-117450128D01*
X104681863Y-117568764D01*
X104307965Y-117666187D01*
X104306184Y-117666623D01*
X103874435Y-117765588D01*
X103495575Y-117845681D01*
X103493853Y-117846020D01*
X103058576Y-117925240D01*
X102675828Y-117987711D01*
X102674179Y-117987957D01*
X102625610Y-117994541D01*
X102236199Y-118047327D01*
X101850475Y-118091974D01*
X101848884Y-118092137D01*
X101409574Y-118131533D01*
X101408291Y-118131634D01*
X101021303Y-118158256D01*
X101019784Y-118158342D01*
X100579236Y-118177801D01*
X100577872Y-118177847D01*
X100190017Y-118186431D01*
X100188574Y-118186446D01*
X99747606Y-118185938D01*
X99746163Y-118185920D01*
X99358323Y-118176444D01*
X99356959Y-118176396D01*
X98916479Y-118155923D01*
X98914961Y-118155834D01*
X98528078Y-118128327D01*
X98526795Y-118128222D01*
X98087453Y-118087802D01*
X98085862Y-118087635D01*
X97700405Y-118042122D01*
X97262396Y-117981721D01*
X97260738Y-117981469D01*
X96878316Y-117918149D01*
X96443064Y-117837898D01*
X96441342Y-117837556D01*
X96062801Y-117756618D01*
X95631167Y-117656635D01*
X95629403Y-117656199D01*
X95479058Y-117616655D01*
X95255792Y-117557932D01*
X94828403Y-117438304D01*
X94826570Y-117437760D01*
X94458879Y-117322507D01*
X94036412Y-117183343D01*
X94034565Y-117182702D01*
X93774173Y-117087563D01*
X93673872Y-117050916D01*
X93256990Y-116892327D01*
X93255070Y-116891559D01*
X92902424Y-116743770D01*
X92491656Y-116565820D01*
X92489703Y-116564933D01*
X92146258Y-116401814D01*
X91778854Y-116222476D01*
X91742101Y-116204536D01*
X91740141Y-116203535D01*
X91407098Y-116025910D01*
X91009903Y-115809233D01*
X91007931Y-115808110D01*
X90877643Y-115730627D01*
X90686776Y-115617118D01*
X90333333Y-115402995D01*
X90296568Y-115380722D01*
X90294603Y-115379479D01*
X90021758Y-115199521D01*
X89986934Y-115176552D01*
X89603681Y-114919950D01*
X89601666Y-114918543D01*
X89309778Y-114705892D01*
X88932629Y-114427845D01*
X88930619Y-114426299D01*
X88817163Y-114335268D01*
X88658262Y-114207773D01*
X88284814Y-113905424D01*
X88282822Y-113903740D01*
X88037117Y-113687051D01*
X87661687Y-113353852D01*
X87659713Y-113352022D01*
X87531312Y-113227696D01*
X87460423Y-113159056D01*
X87064472Y-112774217D01*
X87062530Y-112772243D01*
X87045566Y-112754213D01*
X86516816Y-112191549D01*
X86514925Y-112188602D01*
X86501639Y-112175297D01*
X86500725Y-112174331D01*
X86473029Y-112172805D01*
X86472574Y-112173022D01*
X86453084Y-112174585D01*
X75804780Y-112186478D01*
X75799352Y-112186246D01*
X75741499Y-112181229D01*
X75582101Y-112166087D01*
X75573565Y-112164670D01*
X75482120Y-112142852D01*
X75480691Y-112142493D01*
X75438469Y-112131313D01*
X75360072Y-112110555D01*
X75352827Y-112108152D01*
X75259422Y-112070637D01*
X75257080Y-112069640D01*
X75149349Y-112021147D01*
X75143470Y-112018114D01*
X75054479Y-111966016D01*
X75051459Y-111964130D01*
X74955034Y-111899976D01*
X74950518Y-111896668D01*
X74869430Y-111831450D01*
X74865970Y-111828450D01*
X74781785Y-111749837D01*
X74778555Y-111746589D01*
X74707941Y-111670140D01*
X74704333Y-111665861D01*
X74633748Y-111574059D01*
X74631659Y-111571174D01*
X74616745Y-111549282D01*
X74573586Y-111485930D01*
X74570172Y-111480295D01*
X74539930Y-111423782D01*
X74514438Y-111376143D01*
X74513284Y-111373877D01*
X74474836Y-111294352D01*
X74469456Y-111283225D01*
X74466571Y-111276182D01*
X74426453Y-111157991D01*
X74426031Y-111156697D01*
X74397989Y-111066879D01*
X74396000Y-111058494D01*
X74369413Y-110896780D01*
X74362128Y-110850134D01*
X74360645Y-110831082D01*
X74355841Y-100070909D01*
X74355904Y-100068135D01*
X74358998Y-100000002D01*
X74770153Y-100000002D01*
X74789526Y-100357314D01*
X74789527Y-100357331D01*
X74847415Y-100710431D01*
X74847421Y-100710457D01*
X74943147Y-101055232D01*
X74943149Y-101055239D01*
X75075597Y-101387659D01*
X75075606Y-101387677D01*
X75243218Y-101703827D01*
X75444033Y-102000007D01*
X75571441Y-102150003D01*
X75571442Y-102150004D01*
X76777266Y-100944180D01*
X76940130Y-101134870D01*
X77130818Y-101297732D01*
X75922255Y-102506295D01*
X75922256Y-102506296D01*
X75935485Y-102518828D01*
X75935486Y-102518829D01*
X76220367Y-102735388D01*
X76220370Y-102735390D01*
X76526990Y-102919876D01*
X76851739Y-103070122D01*
X76851744Y-103070123D01*
X77190855Y-103184383D01*
X77540339Y-103261311D01*
X77896075Y-103299999D01*
X77896085Y-103300000D01*
X78253915Y-103300000D01*
X78253924Y-103299999D01*
X78609660Y-103261311D01*
X78959144Y-103184383D01*
X79298255Y-103070123D01*
X79298260Y-103070122D01*
X79623009Y-102919876D01*
X79929629Y-102735390D01*
X79929632Y-102735388D01*
X80214504Y-102518836D01*
X80227742Y-102506294D01*
X79019180Y-101297733D01*
X79209870Y-101134870D01*
X79372733Y-100944180D01*
X80578556Y-102150003D01*
X80705964Y-102000008D01*
X80705975Y-101999994D01*
X80906781Y-101703827D01*
X81074393Y-101387677D01*
X81074402Y-101387659D01*
X81206850Y-101055239D01*
X81206852Y-101055232D01*
X81268915Y-100831702D01*
X81305817Y-100772372D01*
X81368937Y-100742411D01*
X81406035Y-100742137D01*
X81500000Y-100755647D01*
X81500003Y-100755647D01*
X82499984Y-100755647D01*
X82500000Y-100755647D01*
X82563541Y-100751639D01*
X82563541Y-100751638D01*
X82567694Y-100751377D01*
X82635839Y-100766802D01*
X82684828Y-100816621D01*
X82699500Y-100875131D01*
X82699500Y-101936294D01*
X82698191Y-101954263D01*
X82694710Y-101978025D01*
X82699264Y-102030064D01*
X82699500Y-102035470D01*
X82699500Y-103129933D01*
X82679815Y-103196972D01*
X82627011Y-103242727D01*
X82557854Y-103252671D01*
X82500000Y-103244353D01*
X81500000Y-103244353D01*
X81499997Y-103244353D01*
X81428039Y-103249499D01*
X81428034Y-103249500D01*
X81289949Y-103290045D01*
X81168873Y-103367856D01*
X81074623Y-103476626D01*
X81074622Y-103476628D01*
X81014834Y-103607543D01*
X81005950Y-103669340D01*
X80994354Y-103749997D01*
X80994353Y-103750001D01*
X80994352Y-103750002D01*
X80994352Y-105249999D01*
X80994353Y-105250002D01*
X80999499Y-105321960D01*
X80999500Y-105321965D01*
X81040045Y-105460050D01*
X81040046Y-105460051D01*
X81040047Y-105460053D01*
X81117857Y-105581128D01*
X81226627Y-105675377D01*
X81357543Y-105735165D01*
X81500000Y-105755647D01*
X81556521Y-105755647D01*
X81623560Y-105775332D01*
X81644202Y-105791966D01*
X82587523Y-106735286D01*
X82599304Y-106748918D01*
X82613646Y-106768182D01*
X82653676Y-106801771D01*
X82657648Y-106805411D01*
X82660569Y-106808332D01*
X82663479Y-106811243D01*
X82688502Y-106831027D01*
X82689884Y-106832153D01*
X82726040Y-106862492D01*
X82748042Y-106880954D01*
X82754079Y-106884924D01*
X82754045Y-106884974D01*
X82760400Y-106889022D01*
X82760433Y-106888970D01*
X82766574Y-106892758D01*
X82766579Y-106892762D01*
X82835400Y-106924853D01*
X82836916Y-106925587D01*
X82904823Y-106959692D01*
X82904828Y-106959693D01*
X82911611Y-106962162D01*
X82911590Y-106962219D01*
X82918707Y-106964692D01*
X82918726Y-106964636D01*
X82925580Y-106966906D01*
X82925583Y-106966908D01*
X82999971Y-106982267D01*
X83001608Y-106982630D01*
X83075535Y-107000152D01*
X83075541Y-107000152D01*
X83082708Y-107000990D01*
X83082701Y-107001049D01*
X83090202Y-107001815D01*
X83090208Y-107001756D01*
X83097397Y-107002385D01*
X83097399Y-107002384D01*
X83097400Y-107002385D01*
X83119020Y-107001756D01*
X83173268Y-107000178D01*
X83175071Y-107000152D01*
X84887422Y-107000152D01*
X84954461Y-107019837D01*
X84975103Y-107036471D01*
X87326451Y-109387819D01*
X87359936Y-109449142D01*
X87354952Y-109518834D01*
X87313080Y-109574767D01*
X87247616Y-109599184D01*
X87238770Y-109599500D01*
X84631453Y-109599500D01*
X84564414Y-109579815D01*
X84518659Y-109527011D01*
X84508715Y-109457853D01*
X84516336Y-109429414D01*
X84558985Y-109322881D01*
X84558988Y-109322874D01*
X84598763Y-109116502D01*
X84598763Y-108408992D01*
X84583791Y-108252199D01*
X84524579Y-108050542D01*
X84428274Y-107863735D01*
X84428272Y-107863733D01*
X84428271Y-107863730D01*
X84298357Y-107698533D01*
X84298353Y-107698529D01*
X84139516Y-107560895D01*
X83957512Y-107455815D01*
X83957508Y-107455813D01*
X83957507Y-107455813D01*
X83758896Y-107387073D01*
X83550865Y-107357163D01*
X83550861Y-107357163D01*
X83340935Y-107367162D01*
X83136684Y-107416713D01*
X83136680Y-107416715D01*
X82945519Y-107504015D01*
X82945514Y-107504018D01*
X82774309Y-107625932D01*
X82774308Y-107625932D01*
X82676512Y-107728499D01*
X82616003Y-107763434D01*
X82546212Y-107760109D01*
X82489298Y-107719581D01*
X82481230Y-107708025D01*
X82469577Y-107689132D01*
X82440975Y-107642761D01*
X82316919Y-107518705D01*
X82224151Y-107461486D01*
X82167599Y-107426604D01*
X82167594Y-107426602D01*
X82137751Y-107416713D01*
X82001060Y-107371418D01*
X82001058Y-107371417D01*
X81898273Y-107360917D01*
X81098261Y-107360917D01*
X81098243Y-107360918D01*
X80995466Y-107371417D01*
X80995463Y-107371418D01*
X80828931Y-107426602D01*
X80828926Y-107426604D01*
X80679605Y-107518706D01*
X80555552Y-107642759D01*
X80463450Y-107792080D01*
X80463448Y-107792085D01*
X80445860Y-107845164D01*
X80408264Y-107958620D01*
X80408264Y-107958621D01*
X80408263Y-107958621D01*
X80397763Y-108061400D01*
X80397763Y-109411418D01*
X80397764Y-109411435D01*
X80403022Y-109462899D01*
X80390252Y-109531591D01*
X80342371Y-109582476D01*
X80279664Y-109599500D01*
X77642691Y-109599500D01*
X77575652Y-109579815D01*
X77529897Y-109527011D01*
X77529412Y-109525936D01*
X77461869Y-109374234D01*
X77441113Y-109345665D01*
X77417634Y-109279862D01*
X77433459Y-109211808D01*
X77435282Y-109208687D01*
X77521196Y-109066570D01*
X77571804Y-108904160D01*
X77578218Y-108833580D01*
X77578218Y-108320348D01*
X77571804Y-108249768D01*
X77521196Y-108087358D01*
X77433190Y-107941779D01*
X77433188Y-107941777D01*
X77433187Y-107941775D01*
X77312906Y-107821494D01*
X77180782Y-107741622D01*
X77167324Y-107733486D01*
X77004914Y-107682878D01*
X77004912Y-107682877D01*
X77004910Y-107682877D01*
X76955496Y-107678387D01*
X76934334Y-107676464D01*
X75921102Y-107676464D01*
X75901862Y-107678212D01*
X75850525Y-107682877D01*
X75688111Y-107733486D01*
X75542529Y-107821494D01*
X75422248Y-107941775D01*
X75334240Y-108087357D01*
X75283631Y-108249771D01*
X75277218Y-108320350D01*
X75277218Y-108833577D01*
X75283631Y-108904156D01*
X75283631Y-108904158D01*
X75283632Y-108904160D01*
X75285432Y-108909935D01*
X75334240Y-109066570D01*
X75420120Y-109208632D01*
X75437956Y-109276187D01*
X75416438Y-109342660D01*
X75414323Y-109345665D01*
X75393566Y-109374235D01*
X75316575Y-109547156D01*
X75316573Y-109547161D01*
X75277218Y-109732318D01*
X75277218Y-109921609D01*
X75316573Y-110106766D01*
X75316575Y-110106771D01*
X75393566Y-110279693D01*
X75393569Y-110279698D01*
X75475370Y-110392287D01*
X75504830Y-110432835D01*
X75645502Y-110559497D01*
X75809434Y-110654143D01*
X75989462Y-110712638D01*
X76130526Y-110727464D01*
X76301580Y-110727464D01*
X76368619Y-110747149D01*
X76389261Y-110763783D01*
X76461116Y-110835638D01*
X76472897Y-110849270D01*
X76487234Y-110868528D01*
X76487235Y-110868529D01*
X76487236Y-110868530D01*
X76492542Y-110872982D01*
X76527255Y-110902111D01*
X76531243Y-110905766D01*
X76537063Y-110911586D01*
X76537068Y-110911590D01*
X76537069Y-110911591D01*
X76562109Y-110931390D01*
X76563490Y-110932515D01*
X76621632Y-110981302D01*
X76621633Y-110981302D01*
X76621635Y-110981304D01*
X76627664Y-110985270D01*
X76627631Y-110985319D01*
X76633993Y-110989372D01*
X76634025Y-110989321D01*
X76640165Y-110993108D01*
X76640169Y-110993111D01*
X76671659Y-111007795D01*
X76708983Y-111025200D01*
X76710606Y-111025986D01*
X76778408Y-111060038D01*
X76785203Y-111062511D01*
X76785182Y-111062567D01*
X76792301Y-111065042D01*
X76792320Y-111064986D01*
X76799170Y-111067255D01*
X76799173Y-111067257D01*
X76873555Y-111082614D01*
X76875264Y-111082994D01*
X76884745Y-111085241D01*
X76949119Y-111100499D01*
X76949122Y-111100499D01*
X76949125Y-111100500D01*
X76949128Y-111100500D01*
X76956298Y-111101338D01*
X76956290Y-111101397D01*
X76963791Y-111102164D01*
X76963797Y-111102105D01*
X76970986Y-111102734D01*
X76970990Y-111102733D01*
X76970991Y-111102734D01*
X76999076Y-111101916D01*
X77046879Y-111100526D01*
X77048682Y-111100500D01*
X83022501Y-111100500D01*
X83038790Y-111102164D01*
X83038796Y-111102105D01*
X83045985Y-111102734D01*
X83045989Y-111102733D01*
X83045990Y-111102734D01*
X83074075Y-111101916D01*
X83121878Y-111100526D01*
X83123681Y-111100500D01*
X83412279Y-111100500D01*
X92998639Y-111100500D01*
X93065678Y-111120185D01*
X93111433Y-111172989D01*
X93121377Y-111242147D01*
X93101093Y-111294350D01*
X93008818Y-111429694D01*
X92979768Y-111472302D01*
X92979767Y-111472303D01*
X92865938Y-111708673D01*
X92788606Y-111959376D01*
X92788605Y-111959381D01*
X92788604Y-111959385D01*
X92776319Y-112040888D01*
X92749500Y-112218812D01*
X92749500Y-112481187D01*
X92769794Y-112615823D01*
X92788604Y-112740615D01*
X92788605Y-112740617D01*
X92788606Y-112740623D01*
X92865938Y-112991326D01*
X92979767Y-113227696D01*
X92979768Y-113227697D01*
X92979770Y-113227700D01*
X92979772Y-113227704D01*
X93127566Y-113444478D01*
X93127567Y-113444479D01*
X93306014Y-113636801D01*
X93306018Y-113636804D01*
X93306019Y-113636805D01*
X93511143Y-113800386D01*
X93738357Y-113931568D01*
X93982584Y-114027420D01*
X94238370Y-114085802D01*
X94238376Y-114085802D01*
X94238379Y-114085803D01*
X94434484Y-114100499D01*
X94434503Y-114100499D01*
X94434506Y-114100500D01*
X94434508Y-114100500D01*
X94565492Y-114100500D01*
X94565494Y-114100500D01*
X94565496Y-114100499D01*
X94565515Y-114100499D01*
X94761620Y-114085803D01*
X94761622Y-114085802D01*
X94761630Y-114085802D01*
X95017416Y-114027420D01*
X95261643Y-113931568D01*
X95488857Y-113800386D01*
X95693981Y-113636805D01*
X95872433Y-113444479D01*
X96020228Y-113227704D01*
X96134063Y-112991323D01*
X96211396Y-112740615D01*
X96250500Y-112481182D01*
X96250500Y-112218818D01*
X96211396Y-111959385D01*
X96134063Y-111708677D01*
X96072337Y-111580501D01*
X96020232Y-111472303D01*
X96020231Y-111472302D01*
X96020230Y-111472301D01*
X96020228Y-111472296D01*
X95898906Y-111294350D01*
X95877407Y-111227872D01*
X95895261Y-111160322D01*
X95946801Y-111113148D01*
X96001361Y-111100500D01*
X97912279Y-111100500D01*
X97936295Y-111100500D01*
X97954265Y-111101809D01*
X97978023Y-111105289D01*
X98030068Y-111100735D01*
X98035470Y-111100500D01*
X100910656Y-111100500D01*
X100926945Y-111102164D01*
X100926951Y-111102105D01*
X100934140Y-111102734D01*
X100934144Y-111102733D01*
X100934145Y-111102734D01*
X100962230Y-111101916D01*
X101010033Y-111100526D01*
X101011836Y-111100500D01*
X103998639Y-111100500D01*
X104065678Y-111120185D01*
X104111433Y-111172989D01*
X104121377Y-111242147D01*
X104101093Y-111294350D01*
X104008818Y-111429694D01*
X103979768Y-111472302D01*
X103979767Y-111472303D01*
X103865938Y-111708673D01*
X103788606Y-111959376D01*
X103788605Y-111959381D01*
X103788604Y-111959385D01*
X103776319Y-112040888D01*
X103749500Y-112218812D01*
X103749500Y-112481187D01*
X103769794Y-112615823D01*
X103788604Y-112740615D01*
X103788605Y-112740617D01*
X103788606Y-112740623D01*
X103865938Y-112991326D01*
X103979767Y-113227696D01*
X103979768Y-113227697D01*
X103979770Y-113227700D01*
X103979772Y-113227704D01*
X104127566Y-113444479D01*
X104127567Y-113444479D01*
X104306014Y-113636801D01*
X104306018Y-113636804D01*
X104306019Y-113636805D01*
X104511143Y-113800386D01*
X104738357Y-113931568D01*
X104982584Y-114027420D01*
X105238370Y-114085802D01*
X105238376Y-114085802D01*
X105238379Y-114085803D01*
X105434484Y-114100499D01*
X105434503Y-114100499D01*
X105434506Y-114100500D01*
X105434508Y-114100500D01*
X105565492Y-114100500D01*
X105565494Y-114100500D01*
X105565496Y-114100499D01*
X105565515Y-114100499D01*
X105761620Y-114085803D01*
X105761622Y-114085802D01*
X105761630Y-114085802D01*
X106017416Y-114027420D01*
X106261643Y-113931568D01*
X106488857Y-113800386D01*
X106693981Y-113636805D01*
X106872433Y-113444479D01*
X107020228Y-113227704D01*
X107134063Y-112991323D01*
X107211396Y-112740615D01*
X107250500Y-112481182D01*
X107250500Y-112218818D01*
X107211396Y-111959385D01*
X107134063Y-111708677D01*
X107072337Y-111580501D01*
X107020232Y-111472303D01*
X107020231Y-111472302D01*
X107020230Y-111472301D01*
X107020228Y-111472296D01*
X106898906Y-111294350D01*
X106877407Y-111227872D01*
X106895261Y-111160322D01*
X106946801Y-111113148D01*
X107001361Y-111100500D01*
X113912279Y-111100500D01*
X114786295Y-111100500D01*
X114804265Y-111101809D01*
X114828023Y-111105289D01*
X114880068Y-111100735D01*
X114885470Y-111100500D01*
X114893709Y-111100500D01*
X122154497Y-111100500D01*
X122172467Y-111101809D01*
X122196225Y-111105289D01*
X122248270Y-111100735D01*
X122253672Y-111100500D01*
X122261906Y-111100500D01*
X122261911Y-111100500D01*
X122293660Y-111096788D01*
X122295277Y-111096622D01*
X122370999Y-111089999D01*
X122371007Y-111089996D01*
X122378068Y-111088539D01*
X122378080Y-111088598D01*
X122385445Y-111086965D01*
X122385431Y-111086906D01*
X122392453Y-111085241D01*
X122392457Y-111085241D01*
X122463789Y-111059277D01*
X122465488Y-111058688D01*
X122537536Y-111034814D01*
X122537544Y-111034808D01*
X122544084Y-111031760D01*
X122544110Y-111031816D01*
X122550892Y-111028532D01*
X122550865Y-111028478D01*
X122557311Y-111025239D01*
X122557319Y-111025237D01*
X122620814Y-110983475D01*
X122622179Y-110982605D01*
X122686858Y-110942712D01*
X122686863Y-110942706D01*
X122692527Y-110938229D01*
X122692565Y-110938277D01*
X122698402Y-110933522D01*
X122698363Y-110933475D01*
X122703893Y-110928833D01*
X122703898Y-110928830D01*
X122756003Y-110873600D01*
X122757161Y-110872407D01*
X122906335Y-110723234D01*
X122967658Y-110689751D01*
X122994015Y-110686917D01*
X123078973Y-110686917D01*
X123078977Y-110686917D01*
X123220041Y-110672091D01*
X123400069Y-110613596D01*
X123564001Y-110518950D01*
X123704673Y-110392288D01*
X123815936Y-110239147D01*
X123892929Y-110066220D01*
X123932285Y-109881063D01*
X123932285Y-109691771D01*
X123892929Y-109506614D01*
X123892926Y-109506608D01*
X123815936Y-109333687D01*
X123808080Y-109322874D01*
X123795180Y-109305118D01*
X123771701Y-109239315D01*
X123787526Y-109171261D01*
X123789349Y-109168140D01*
X123875263Y-109026023D01*
X123925871Y-108863613D01*
X123932285Y-108793033D01*
X123932285Y-108279801D01*
X123925871Y-108209221D01*
X123875263Y-108046811D01*
X123787257Y-107901232D01*
X123787255Y-107901230D01*
X123787254Y-107901228D01*
X123666973Y-107780947D01*
X123625153Y-107755666D01*
X123521391Y-107692939D01*
X123358981Y-107642331D01*
X123358979Y-107642330D01*
X123358977Y-107642330D01*
X123309563Y-107637840D01*
X123288401Y-107635917D01*
X122275169Y-107635917D01*
X122255929Y-107637665D01*
X122204592Y-107642330D01*
X122042178Y-107692939D01*
X121896596Y-107780947D01*
X121776315Y-107901228D01*
X121688307Y-108046810D01*
X121637698Y-108209224D01*
X121634014Y-108249768D01*
X121631285Y-108279801D01*
X121631285Y-108793033D01*
X121633208Y-108814195D01*
X121637698Y-108863609D01*
X121637698Y-108863611D01*
X121637699Y-108863613D01*
X121650334Y-108904160D01*
X121688307Y-109026023D01*
X121774187Y-109168085D01*
X121792023Y-109235640D01*
X121770505Y-109302113D01*
X121768390Y-109305118D01*
X121747633Y-109333688D01*
X121670642Y-109506608D01*
X121668635Y-109512789D01*
X121666011Y-109511936D01*
X121638619Y-109562726D01*
X121577470Y-109596528D01*
X121550485Y-109599500D01*
X119618611Y-109599500D01*
X119551572Y-109579815D01*
X119505817Y-109527011D01*
X119495873Y-109457853D01*
X119503491Y-109429420D01*
X119560725Y-109286457D01*
X119600500Y-109080085D01*
X119600500Y-108372575D01*
X119585528Y-108215782D01*
X119526316Y-108014125D01*
X119430011Y-107827318D01*
X119430009Y-107827316D01*
X119430008Y-107827313D01*
X119300094Y-107662116D01*
X119300090Y-107662112D01*
X119141253Y-107524478D01*
X118959249Y-107419398D01*
X118959245Y-107419396D01*
X118959244Y-107419396D01*
X118760633Y-107350656D01*
X118552602Y-107320746D01*
X118552598Y-107320746D01*
X118342672Y-107330745D01*
X118138421Y-107380296D01*
X118138417Y-107380298D01*
X117947256Y-107467598D01*
X117947251Y-107467601D01*
X117776046Y-107589515D01*
X117776045Y-107589515D01*
X117678249Y-107692082D01*
X117617740Y-107727017D01*
X117547949Y-107723692D01*
X117491035Y-107683164D01*
X117482967Y-107671608D01*
X117474234Y-107657450D01*
X117442712Y-107606344D01*
X117318656Y-107482288D01*
X117225888Y-107425068D01*
X117169336Y-107390187D01*
X117169331Y-107390185D01*
X117139488Y-107380296D01*
X117002797Y-107335001D01*
X117002795Y-107335000D01*
X116900010Y-107324500D01*
X116099998Y-107324500D01*
X116099980Y-107324501D01*
X115997203Y-107335000D01*
X115997200Y-107335001D01*
X115830668Y-107390185D01*
X115830663Y-107390187D01*
X115681342Y-107482289D01*
X115557289Y-107606342D01*
X115465187Y-107755663D01*
X115465185Y-107755668D01*
X115453118Y-107792085D01*
X115410001Y-107922203D01*
X115410001Y-107922204D01*
X115410000Y-107922204D01*
X115399500Y-108024983D01*
X115399500Y-108687770D01*
X115379815Y-108754809D01*
X115363181Y-108775451D01*
X114575451Y-109563181D01*
X114514128Y-109596666D01*
X114487770Y-109599500D01*
X109261230Y-109599500D01*
X109194191Y-109579815D01*
X109148436Y-109527011D01*
X109138492Y-109457853D01*
X109167517Y-109394297D01*
X109173549Y-109387819D01*
X110176555Y-108384812D01*
X111185638Y-107375727D01*
X111199267Y-107363950D01*
X111203340Y-107360918D01*
X111218530Y-107349610D01*
X111218532Y-107349606D01*
X111218534Y-107349606D01*
X111236663Y-107327999D01*
X111252113Y-107309585D01*
X111255767Y-107305599D01*
X111261590Y-107299777D01*
X111281406Y-107274713D01*
X111282456Y-107273423D01*
X111331302Y-107215214D01*
X111331308Y-107215201D01*
X111335272Y-107209176D01*
X111335324Y-107209210D01*
X111339371Y-107202858D01*
X111339317Y-107202825D01*
X111343106Y-107196681D01*
X111343110Y-107196677D01*
X111375212Y-107127832D01*
X111375938Y-107126333D01*
X111410040Y-107058433D01*
X111410043Y-107058417D01*
X111412510Y-107051644D01*
X111412568Y-107051665D01*
X111415043Y-107044546D01*
X111414985Y-107044527D01*
X111417255Y-107037677D01*
X111418426Y-107032004D01*
X111432608Y-106963319D01*
X111432990Y-106961596D01*
X111433442Y-106959692D01*
X111450500Y-106887721D01*
X111450500Y-106887720D01*
X111450501Y-106887716D01*
X111451339Y-106880548D01*
X111451397Y-106880554D01*
X111452164Y-106873056D01*
X111452104Y-106873051D01*
X111452733Y-106865860D01*
X111450526Y-106789988D01*
X111450500Y-106788185D01*
X111450500Y-106574500D01*
X111470185Y-106507461D01*
X111522989Y-106461706D01*
X111574500Y-106450500D01*
X116772691Y-106450500D01*
X116790661Y-106451809D01*
X116814419Y-106455289D01*
X116866464Y-106450735D01*
X116871866Y-106450500D01*
X116880100Y-106450500D01*
X116880105Y-106450500D01*
X116911854Y-106446788D01*
X116913471Y-106446622D01*
X116989193Y-106439999D01*
X116989201Y-106439996D01*
X116996262Y-106438539D01*
X116996274Y-106438598D01*
X117003639Y-106436965D01*
X117003625Y-106436906D01*
X117010647Y-106435241D01*
X117010651Y-106435241D01*
X117081983Y-106409277D01*
X117083682Y-106408688D01*
X117100280Y-106403188D01*
X117155730Y-106384814D01*
X117155738Y-106384808D01*
X117162278Y-106381760D01*
X117162304Y-106381816D01*
X117169086Y-106378532D01*
X117169059Y-106378478D01*
X117175505Y-106375239D01*
X117175513Y-106375237D01*
X117239008Y-106333475D01*
X117240373Y-106332605D01*
X117305052Y-106292712D01*
X117305057Y-106292706D01*
X117310721Y-106288229D01*
X117310758Y-106288277D01*
X117316600Y-106283518D01*
X117316560Y-106283471D01*
X117322082Y-106278835D01*
X117322092Y-106278830D01*
X117374198Y-106223599D01*
X117375390Y-106222373D01*
X117805797Y-105791965D01*
X117867120Y-105758481D01*
X117893478Y-105755647D01*
X117950000Y-105755647D01*
X118021961Y-105750500D01*
X118021963Y-105750499D01*
X118021965Y-105750499D01*
X118160050Y-105709954D01*
X118160050Y-105709953D01*
X118160053Y-105709953D01*
X118281128Y-105632143D01*
X118375377Y-105523373D01*
X118435165Y-105392457D01*
X118455647Y-105250000D01*
X118455647Y-103750000D01*
X118450500Y-103678039D01*
X118447943Y-103669331D01*
X118409954Y-103539949D01*
X118386078Y-103502797D01*
X118332143Y-103418872D01*
X118245612Y-103343893D01*
X118207838Y-103285115D01*
X118207838Y-103215245D01*
X118245612Y-103156467D01*
X118259770Y-103145868D01*
X118281128Y-103132143D01*
X118375377Y-103023373D01*
X118398386Y-102972989D01*
X118444141Y-102920185D01*
X118511181Y-102900500D01*
X118594644Y-102900500D01*
X118594646Y-102900500D01*
X118779803Y-102861144D01*
X118952730Y-102784151D01*
X119105871Y-102672888D01*
X119232533Y-102532216D01*
X119327179Y-102368284D01*
X119377670Y-102212886D01*
X119407919Y-102163527D01*
X120627266Y-100944180D01*
X120790130Y-101134870D01*
X120980818Y-101297732D01*
X119772255Y-102506295D01*
X119772256Y-102506296D01*
X119785485Y-102518828D01*
X119785486Y-102518829D01*
X120070367Y-102735388D01*
X120070370Y-102735390D01*
X120376990Y-102919876D01*
X120701739Y-103070122D01*
X120701744Y-103070123D01*
X121040855Y-103184383D01*
X121390339Y-103261311D01*
X121746075Y-103299999D01*
X121746085Y-103300000D01*
X122103915Y-103300000D01*
X122103924Y-103299999D01*
X122459660Y-103261311D01*
X122809144Y-103184383D01*
X123148255Y-103070123D01*
X123148260Y-103070122D01*
X123473009Y-102919876D01*
X123779629Y-102735390D01*
X123779632Y-102735388D01*
X124064504Y-102518836D01*
X124077742Y-102506294D01*
X122869180Y-101297733D01*
X123059870Y-101134870D01*
X123222733Y-100944180D01*
X124428556Y-102150003D01*
X124555964Y-102000008D01*
X124555975Y-101999994D01*
X124756781Y-101703827D01*
X124924393Y-101387677D01*
X124924402Y-101387659D01*
X125056850Y-101055239D01*
X125056852Y-101055232D01*
X125152578Y-100710457D01*
X125152584Y-100710431D01*
X125210472Y-100357331D01*
X125210473Y-100357314D01*
X125229847Y-100000002D01*
X125229847Y-99999997D01*
X125210473Y-99642685D01*
X125210472Y-99642668D01*
X125152584Y-99289568D01*
X125152578Y-99289542D01*
X125056852Y-98944767D01*
X125056850Y-98944760D01*
X124924402Y-98612340D01*
X124924393Y-98612322D01*
X124756781Y-98296172D01*
X124555966Y-97999992D01*
X124428557Y-97849995D01*
X124428556Y-97849994D01*
X123222732Y-99055817D01*
X123059870Y-98865130D01*
X122869180Y-98702266D01*
X124077743Y-97493703D01*
X124077742Y-97493702D01*
X124064514Y-97481171D01*
X124064513Y-97481170D01*
X123779632Y-97264611D01*
X123779629Y-97264609D01*
X123473009Y-97080123D01*
X123148260Y-96929877D01*
X123148255Y-96929876D01*
X122809144Y-96815616D01*
X122459660Y-96738688D01*
X122103924Y-96700000D01*
X121746075Y-96700000D01*
X121390339Y-96738688D01*
X121040855Y-96815616D01*
X120701744Y-96929876D01*
X120701739Y-96929877D01*
X120376990Y-97080123D01*
X120070370Y-97264609D01*
X120070367Y-97264611D01*
X119785491Y-97481166D01*
X119772256Y-97493703D01*
X119772255Y-97493703D01*
X120980819Y-98702266D01*
X120790130Y-98865130D01*
X120627266Y-99055818D01*
X119421442Y-97849994D01*
X119421441Y-97849995D01*
X119294040Y-97999983D01*
X119294033Y-97999993D01*
X119093218Y-98296172D01*
X118925606Y-98612322D01*
X118925597Y-98612340D01*
X118793149Y-98944760D01*
X118793148Y-98944762D01*
X118699127Y-99283399D01*
X118662225Y-99342728D01*
X118599105Y-99372689D01*
X118529807Y-99363768D01*
X118476333Y-99318798D01*
X118455661Y-99252057D01*
X118455647Y-99250225D01*
X118455647Y-98750000D01*
X118455647Y-98749999D01*
X118450500Y-98678039D01*
X118440507Y-98644006D01*
X118409954Y-98539949D01*
X118369260Y-98476628D01*
X118332143Y-98418872D01*
X118223373Y-98324623D01*
X118155176Y-98293478D01*
X118092456Y-98264834D01*
X117982863Y-98249078D01*
X117950000Y-98244353D01*
X117949998Y-98244353D01*
X117893478Y-98244353D01*
X117826439Y-98224668D01*
X117805797Y-98208034D01*
X116315092Y-96717328D01*
X116281607Y-96656005D01*
X116286591Y-96586313D01*
X116328463Y-96530380D01*
X116393927Y-96505963D01*
X116402773Y-96505647D01*
X117250000Y-96505647D01*
X117321961Y-96500500D01*
X117321963Y-96500499D01*
X117321965Y-96500499D01*
X117460050Y-96459954D01*
X117460050Y-96459953D01*
X117460053Y-96459953D01*
X117581128Y-96382143D01*
X117675377Y-96273373D01*
X117735165Y-96142457D01*
X117755647Y-96000000D01*
X117755647Y-95000000D01*
X117751639Y-94936459D01*
X117738807Y-94889880D01*
X117735617Y-94839310D01*
X117755647Y-94700000D01*
X117755647Y-92300000D01*
X117755646Y-92299997D01*
X117755646Y-92299980D01*
X117749221Y-92219649D01*
X117749220Y-92219647D01*
X117749220Y-92219639D01*
X117740361Y-92191245D01*
X117735997Y-92136670D01*
X117740140Y-92107853D01*
X117755647Y-92000000D01*
X117755647Y-91000000D01*
X117750500Y-90928039D01*
X117748483Y-90921170D01*
X117709954Y-90789949D01*
X117709953Y-90789947D01*
X117632143Y-90668872D01*
X117523373Y-90574623D01*
X117523371Y-90574622D01*
X117392456Y-90514834D01*
X117298900Y-90501383D01*
X117270063Y-90497237D01*
X117206509Y-90468213D01*
X117168734Y-90409435D01*
X117168734Y-90339566D01*
X117206508Y-90280787D01*
X117270063Y-90251762D01*
X117287711Y-90250500D01*
X118637770Y-90250500D01*
X118704809Y-90270185D01*
X118725451Y-90286819D01*
X119213181Y-90774548D01*
X119246666Y-90835871D01*
X119249500Y-90862229D01*
X119249500Y-93021294D01*
X119248191Y-93039263D01*
X119244710Y-93063025D01*
X119248061Y-93101314D01*
X119249160Y-93113882D01*
X119249264Y-93115064D01*
X119249500Y-93120470D01*
X119249500Y-93128712D01*
X119253202Y-93160391D01*
X119253386Y-93162185D01*
X119260000Y-93237792D01*
X119261461Y-93244867D01*
X119261403Y-93244878D01*
X119263034Y-93252237D01*
X119263092Y-93252224D01*
X119264757Y-93259249D01*
X119264758Y-93259254D01*
X119264759Y-93259255D01*
X119290445Y-93329830D01*
X119290708Y-93330551D01*
X119291299Y-93332253D01*
X119315182Y-93404326D01*
X119318236Y-93410874D01*
X119318182Y-93410898D01*
X119321470Y-93417688D01*
X119321521Y-93417663D01*
X119324761Y-93424113D01*
X119324762Y-93424114D01*
X119324763Y-93424117D01*
X119366494Y-93487567D01*
X119367443Y-93489058D01*
X119399694Y-93541345D01*
X119407289Y-93553657D01*
X119411766Y-93559319D01*
X119411719Y-93559356D01*
X119416482Y-93565202D01*
X119416528Y-93565164D01*
X119421173Y-93570699D01*
X119476364Y-93622769D01*
X119477658Y-93624026D01*
X120219435Y-94365803D01*
X120252920Y-94427126D01*
X120255282Y-94464290D01*
X120244723Y-94584997D01*
X120244723Y-94585002D01*
X120249435Y-94638856D01*
X120259114Y-94749500D01*
X120263793Y-94802975D01*
X120263793Y-94802979D01*
X120320422Y-95014322D01*
X120320424Y-95014326D01*
X120320425Y-95014330D01*
X120366661Y-95113484D01*
X120412897Y-95212638D01*
X120436111Y-95245791D01*
X120538402Y-95391877D01*
X120693123Y-95546598D01*
X120872361Y-95672102D01*
X121070670Y-95764575D01*
X121282023Y-95821207D01*
X121464926Y-95837208D01*
X121499998Y-95840277D01*
X121500000Y-95840277D01*
X121500002Y-95840277D01*
X121528254Y-95837805D01*
X121717977Y-95821207D01*
X121929330Y-95764575D01*
X122127639Y-95672102D01*
X122306877Y-95546598D01*
X122461598Y-95391877D01*
X122587102Y-95212639D01*
X122679575Y-95014330D01*
X122736207Y-94802977D01*
X122752805Y-94613254D01*
X122755277Y-94585002D01*
X122755277Y-94584997D01*
X122747841Y-94500002D01*
X122736207Y-94367023D01*
X122686200Y-94180395D01*
X122679577Y-94155677D01*
X122679576Y-94155676D01*
X122679575Y-94155670D01*
X122587102Y-93957362D01*
X122587100Y-93957359D01*
X122587099Y-93957357D01*
X122461599Y-93778124D01*
X122389101Y-93705626D01*
X122306877Y-93623402D01*
X122167714Y-93525959D01*
X122127638Y-93497897D01*
X122025758Y-93450390D01*
X121929330Y-93405425D01*
X121929326Y-93405424D01*
X121929322Y-93405422D01*
X121717977Y-93348793D01*
X121500002Y-93329723D01*
X121499997Y-93329723D01*
X121379290Y-93340282D01*
X121310790Y-93326515D01*
X121280803Y-93304435D01*
X121023549Y-93047181D01*
X120990064Y-92985858D01*
X120995048Y-92916166D01*
X121036920Y-92860233D01*
X121102384Y-92835816D01*
X121111230Y-92835500D01*
X122050003Y-92835500D01*
X122050008Y-92835500D01*
X122152797Y-92824999D01*
X122319334Y-92769814D01*
X122468655Y-92677711D01*
X122592711Y-92553655D01*
X122684814Y-92404334D01*
X122739999Y-92237797D01*
X122750500Y-92135008D01*
X122750500Y-91034992D01*
X122739999Y-90932203D01*
X122684814Y-90765666D01*
X122683463Y-90763476D01*
X122592713Y-90616348D01*
X122592710Y-90616344D01*
X122468655Y-90492289D01*
X122468651Y-90492286D01*
X122319337Y-90400187D01*
X122319335Y-90400186D01*
X122177944Y-90353334D01*
X122152797Y-90345001D01*
X122152795Y-90345000D01*
X122050015Y-90334500D01*
X122050008Y-90334500D01*
X120949992Y-90334500D01*
X120949982Y-90334500D01*
X120842100Y-90345522D01*
X120773407Y-90332753D01*
X120722523Y-90284872D01*
X120712978Y-90264578D01*
X120709268Y-90254384D01*
X120708711Y-90252783D01*
X120684814Y-90180666D01*
X120684810Y-90180659D01*
X120681760Y-90174118D01*
X120681815Y-90174091D01*
X120678533Y-90167313D01*
X120678480Y-90167340D01*
X120675236Y-90160881D01*
X120633529Y-90097470D01*
X120632560Y-90095949D01*
X120592710Y-90031342D01*
X120588234Y-90025682D01*
X120588281Y-90025644D01*
X120583519Y-90019799D01*
X120583474Y-90019838D01*
X120578831Y-90014305D01*
X120523617Y-89962213D01*
X120522357Y-89960990D01*
X119575729Y-89014361D01*
X119563949Y-89000730D01*
X119549610Y-88981470D01*
X119549609Y-88981468D01*
X119518995Y-88955781D01*
X119509585Y-88947884D01*
X119505610Y-88944242D01*
X119502689Y-88941321D01*
X119499779Y-88938410D01*
X119474736Y-88918609D01*
X119473338Y-88917470D01*
X119415214Y-88868698D01*
X119409180Y-88864729D01*
X119409212Y-88864680D01*
X119402853Y-88860628D01*
X119402822Y-88860679D01*
X119396680Y-88856891D01*
X119396678Y-88856890D01*
X119396677Y-88856889D01*
X119327872Y-88824804D01*
X119326252Y-88824019D01*
X119286512Y-88804061D01*
X119258433Y-88789960D01*
X119258431Y-88789959D01*
X119258430Y-88789959D01*
X119251645Y-88787489D01*
X119251665Y-88787433D01*
X119244549Y-88784959D01*
X119244531Y-88785015D01*
X119237674Y-88782743D01*
X119163328Y-88767391D01*
X119161569Y-88767001D01*
X119087718Y-88749499D01*
X119080547Y-88748661D01*
X119080553Y-88748601D01*
X119073055Y-88747835D01*
X119073050Y-88747895D01*
X119065860Y-88747265D01*
X118989968Y-88749474D01*
X118988165Y-88749500D01*
X111553864Y-88749500D01*
X111486825Y-88729815D01*
X111441070Y-88677011D01*
X111431126Y-88607853D01*
X111460151Y-88544297D01*
X111476551Y-88528553D01*
X111553981Y-88466805D01*
X111556574Y-88464011D01*
X111620797Y-88394794D01*
X111732433Y-88274479D01*
X111880228Y-88057704D01*
X111880870Y-88056372D01*
X111941069Y-87931366D01*
X111994063Y-87821323D01*
X112071396Y-87570615D01*
X112097687Y-87396187D01*
X119749500Y-87396187D01*
X119755145Y-87433634D01*
X119788604Y-87655615D01*
X119863678Y-87899001D01*
X119865938Y-87906326D01*
X119979767Y-88142696D01*
X119979768Y-88142697D01*
X119979770Y-88142700D01*
X119979772Y-88142704D01*
X120069615Y-88274479D01*
X120127567Y-88359479D01*
X120306014Y-88551801D01*
X120306018Y-88551804D01*
X120306019Y-88551805D01*
X120511143Y-88715386D01*
X120738357Y-88846568D01*
X120982584Y-88942420D01*
X121238370Y-89000802D01*
X121238376Y-89000802D01*
X121238379Y-89000803D01*
X121434484Y-89015499D01*
X121434503Y-89015499D01*
X121434506Y-89015500D01*
X121434508Y-89015500D01*
X121565492Y-89015500D01*
X121565494Y-89015500D01*
X121565496Y-89015499D01*
X121565515Y-89015499D01*
X121761620Y-89000803D01*
X121761622Y-89000802D01*
X121761630Y-89000802D01*
X122017416Y-88942420D01*
X122261643Y-88846568D01*
X122488857Y-88715386D01*
X122693981Y-88551805D01*
X122694118Y-88551658D01*
X122759256Y-88481455D01*
X122872433Y-88359479D01*
X123020228Y-88142704D01*
X123134063Y-87906323D01*
X123211396Y-87655615D01*
X123250500Y-87396182D01*
X123250500Y-87133818D01*
X123211396Y-86874385D01*
X123134063Y-86623677D01*
X123093127Y-86538673D01*
X123020232Y-86387303D01*
X123020231Y-86387302D01*
X123020230Y-86387301D01*
X123020228Y-86387296D01*
X122872433Y-86170521D01*
X122793564Y-86085520D01*
X122693985Y-85978198D01*
X122579399Y-85886819D01*
X122488857Y-85814614D01*
X122261643Y-85683432D01*
X122017416Y-85587580D01*
X122017411Y-85587578D01*
X122017402Y-85587576D01*
X121799818Y-85537914D01*
X121761630Y-85529198D01*
X121761629Y-85529197D01*
X121761625Y-85529197D01*
X121761620Y-85529196D01*
X121565515Y-85514500D01*
X121565494Y-85514500D01*
X121434506Y-85514500D01*
X121434484Y-85514500D01*
X121238379Y-85529196D01*
X121238374Y-85529197D01*
X120982597Y-85587576D01*
X120982578Y-85587582D01*
X120738356Y-85683432D01*
X120511143Y-85814614D01*
X120306014Y-85978198D01*
X120127567Y-86170520D01*
X119979768Y-86387302D01*
X119979767Y-86387303D01*
X119865938Y-86623673D01*
X119788606Y-86874376D01*
X119788605Y-86874381D01*
X119788604Y-86874385D01*
X119784481Y-86901739D01*
X119749500Y-87133812D01*
X119749500Y-87396187D01*
X112097687Y-87396187D01*
X112110500Y-87311182D01*
X112110500Y-87048818D01*
X112071396Y-86789385D01*
X111994063Y-86538677D01*
X111944626Y-86436020D01*
X111880232Y-86302303D01*
X111880231Y-86302302D01*
X111880230Y-86302301D01*
X111880228Y-86302296D01*
X111732433Y-86085521D01*
X111645795Y-85992147D01*
X111553985Y-85893198D01*
X111500443Y-85850500D01*
X111348857Y-85729614D01*
X111121643Y-85598432D01*
X110877416Y-85502580D01*
X110877411Y-85502578D01*
X110877402Y-85502576D01*
X110659818Y-85452914D01*
X110621630Y-85444198D01*
X110621629Y-85444197D01*
X110621625Y-85444197D01*
X110621620Y-85444196D01*
X110425515Y-85429500D01*
X110425494Y-85429500D01*
X110294506Y-85429500D01*
X110294484Y-85429500D01*
X110098379Y-85444196D01*
X110098374Y-85444197D01*
X109842597Y-85502576D01*
X109842578Y-85502582D01*
X109598356Y-85598432D01*
X109371143Y-85729614D01*
X109166014Y-85893198D01*
X108987567Y-86085520D01*
X108839768Y-86302302D01*
X108839767Y-86302303D01*
X108725938Y-86538673D01*
X108648606Y-86789376D01*
X108648605Y-86789381D01*
X108648604Y-86789385D01*
X108635793Y-86874376D01*
X108609500Y-87048812D01*
X108609500Y-87311187D01*
X108627957Y-87433632D01*
X108648604Y-87570615D01*
X108648605Y-87570617D01*
X108648606Y-87570623D01*
X108725938Y-87821326D01*
X108839767Y-88057696D01*
X108839768Y-88057697D01*
X108839770Y-88057700D01*
X108839772Y-88057704D01*
X108987566Y-88274479D01*
X108987567Y-88274479D01*
X109166014Y-88466801D01*
X109243313Y-88528445D01*
X109283453Y-88585634D01*
X109286303Y-88655445D01*
X109250957Y-88715715D01*
X109188638Y-88747308D01*
X109176841Y-88748917D01*
X109172878Y-88749264D01*
X109167482Y-88749500D01*
X109159226Y-88749500D01*
X109127532Y-88753204D01*
X109125764Y-88753385D01*
X109108348Y-88754909D01*
X109050142Y-88760001D01*
X109043076Y-88761461D01*
X109043064Y-88761404D01*
X109035697Y-88763038D01*
X109035711Y-88763094D01*
X109028688Y-88764758D01*
X108957367Y-88790715D01*
X108955667Y-88791306D01*
X108883609Y-88815185D01*
X108877062Y-88818238D01*
X108877037Y-88818186D01*
X108870253Y-88821470D01*
X108870279Y-88821521D01*
X108863827Y-88824761D01*
X108800426Y-88866460D01*
X108798906Y-88867429D01*
X108734290Y-88907285D01*
X108728625Y-88911765D01*
X108728589Y-88911719D01*
X108722741Y-88916484D01*
X108722778Y-88916528D01*
X108717252Y-88921164D01*
X108665172Y-88976364D01*
X108663917Y-88977657D01*
X107562180Y-90079393D01*
X107500857Y-90112878D01*
X107431165Y-90107894D01*
X107375232Y-90066022D01*
X107350815Y-90000558D01*
X107350500Y-89991739D01*
X107350500Y-89037087D01*
X107350705Y-89032052D01*
X107354823Y-88981470D01*
X107355201Y-88976833D01*
X107344380Y-88897418D01*
X107344177Y-88895754D01*
X107335514Y-88816090D01*
X107335513Y-88816086D01*
X107335280Y-88815026D01*
X107330497Y-88794621D01*
X107330227Y-88793531D01*
X107302588Y-88718298D01*
X107302030Y-88716715D01*
X107301582Y-88715385D01*
X107276444Y-88640779D01*
X107276441Y-88640775D01*
X107276441Y-88640773D01*
X107276006Y-88639831D01*
X107266895Y-88620818D01*
X107266431Y-88619882D01*
X107244539Y-88585634D01*
X107223260Y-88552343D01*
X107222410Y-88550973D01*
X107181070Y-88482264D01*
X107181068Y-88482262D01*
X107181067Y-88482260D01*
X107180455Y-88481455D01*
X107167503Y-88464889D01*
X107166802Y-88464017D01*
X107166799Y-88464011D01*
X107110119Y-88407331D01*
X107108984Y-88406164D01*
X107053848Y-88347957D01*
X107053108Y-88347328D01*
X107035875Y-88333087D01*
X105090084Y-86387296D01*
X103127607Y-84424818D01*
X103124204Y-84421126D01*
X103088336Y-84378899D01*
X103024554Y-84330413D01*
X103023288Y-84329424D01*
X102960754Y-84279158D01*
X102959854Y-84278583D01*
X102942019Y-84267520D01*
X102941064Y-84266946D01*
X102941063Y-84266945D01*
X102868295Y-84233279D01*
X102866809Y-84232566D01*
X102795020Y-84196963D01*
X102793981Y-84196582D01*
X102774160Y-84189602D01*
X102773165Y-84189267D01*
X102694914Y-84172042D01*
X102693279Y-84171659D01*
X102615489Y-84152314D01*
X102614584Y-84152191D01*
X102593506Y-84149610D01*
X102592501Y-84149501D01*
X102592497Y-84149500D01*
X102592492Y-84149500D01*
X102512388Y-84149500D01*
X102510709Y-84149477D01*
X102430564Y-84147306D01*
X102429520Y-84147391D01*
X102407352Y-84149500D01*
X92037087Y-84149500D01*
X92032052Y-84149295D01*
X91976835Y-84144798D01*
X91976826Y-84144799D01*
X91897434Y-84155615D01*
X91895769Y-84155819D01*
X91816092Y-84164485D01*
X91815131Y-84164697D01*
X91794471Y-84169538D01*
X91793538Y-84169770D01*
X91718287Y-84197415D01*
X91716706Y-84197972D01*
X91640784Y-84223553D01*
X91639920Y-84223953D01*
X91620721Y-84233152D01*
X91619881Y-84233569D01*
X91552374Y-84276719D01*
X91550947Y-84277604D01*
X91482268Y-84318927D01*
X91481489Y-84319519D01*
X91464764Y-84332595D01*
X91464013Y-84333198D01*
X91407385Y-84389825D01*
X91406184Y-84390994D01*
X91347956Y-84446152D01*
X91347346Y-84446871D01*
X91333091Y-84464119D01*
X87355603Y-88441608D01*
X87294280Y-88475093D01*
X87267922Y-88477927D01*
X85480690Y-88477927D01*
X85413651Y-88458242D01*
X85367896Y-88405438D01*
X85357952Y-88336280D01*
X85358407Y-88333364D01*
X85382927Y-88187543D01*
X85382929Y-88187534D01*
X85379556Y-88045850D01*
X85397638Y-87978365D01*
X85449338Y-87931366D01*
X85518240Y-87919779D01*
X85532115Y-87922244D01*
X85549220Y-87926298D01*
X85606728Y-87939929D01*
X85606731Y-87939929D01*
X85606734Y-87939930D01*
X85606737Y-87939930D01*
X85782172Y-87939930D01*
X85782175Y-87939930D01*
X85952888Y-87899469D01*
X86109669Y-87820731D01*
X86189776Y-87755474D01*
X86755473Y-87189776D01*
X86820731Y-87109669D01*
X86899469Y-86952888D01*
X86939930Y-86782175D01*
X86939930Y-86606734D01*
X86899469Y-86436021D01*
X86899469Y-86436020D01*
X86820733Y-86279244D01*
X86820731Y-86279240D01*
X86755474Y-86199132D01*
X85800868Y-85244527D01*
X85751541Y-85204344D01*
X85720762Y-85179270D01*
X85720754Y-85179265D01*
X85563979Y-85100530D01*
X85393273Y-85060071D01*
X85393268Y-85060070D01*
X85393266Y-85060070D01*
X85217825Y-85060070D01*
X85217823Y-85060070D01*
X85217817Y-85060071D01*
X85047111Y-85100530D01*
X84890335Y-85179266D01*
X84890328Y-85179270D01*
X84810234Y-85244517D01*
X84810216Y-85244533D01*
X84244534Y-85810216D01*
X84244515Y-85810237D01*
X84179274Y-85890323D01*
X84179265Y-85890336D01*
X84100530Y-86047111D01*
X84060071Y-86217817D01*
X84060070Y-86217828D01*
X84060070Y-86393267D01*
X84077248Y-86465745D01*
X84073554Y-86535517D01*
X84032725Y-86592216D01*
X83967724Y-86617840D01*
X83941873Y-86617465D01*
X83932095Y-86616296D01*
X83917641Y-86614568D01*
X83917639Y-86614568D01*
X83708011Y-86629559D01*
X83708001Y-86629560D01*
X83504996Y-86683956D01*
X83504984Y-86683961D01*
X83315954Y-86775786D01*
X83147698Y-86901742D01*
X83006327Y-87057256D01*
X82896943Y-87236711D01*
X82896940Y-87236719D01*
X82823495Y-87433632D01*
X82823493Y-87433641D01*
X82788644Y-87640884D01*
X82788643Y-87640892D01*
X82793645Y-87851005D01*
X82793645Y-87851008D01*
X82804085Y-87899001D01*
X82799099Y-87968693D01*
X82757227Y-88024626D01*
X82691762Y-88049041D01*
X82668198Y-88048480D01*
X82503429Y-88028781D01*
X82503428Y-88028781D01*
X82480093Y-88030449D01*
X82293798Y-88043772D01*
X82293788Y-88043773D01*
X82090783Y-88098169D01*
X82090771Y-88098174D01*
X81901741Y-88189999D01*
X81733485Y-88315955D01*
X81592114Y-88471469D01*
X81482730Y-88650924D01*
X81482727Y-88650932D01*
X81409282Y-88847845D01*
X81409280Y-88847854D01*
X81374431Y-89055097D01*
X81374430Y-89055105D01*
X81379432Y-89265218D01*
X81379433Y-89265228D01*
X81389872Y-89313214D01*
X81384888Y-89382905D01*
X81343016Y-89438839D01*
X81277551Y-89463255D01*
X81253986Y-89462694D01*
X81089215Y-89442995D01*
X81089214Y-89442995D01*
X81065879Y-89444663D01*
X80879584Y-89457986D01*
X80879574Y-89457987D01*
X80676569Y-89512383D01*
X80676557Y-89512388D01*
X80487527Y-89604213D01*
X80319271Y-89730169D01*
X80177900Y-89885683D01*
X80068516Y-90065138D01*
X80068513Y-90065146D01*
X79995068Y-90262059D01*
X79995066Y-90262068D01*
X79960217Y-90469311D01*
X79960216Y-90469319D01*
X79965218Y-90679432D01*
X79965219Y-90679440D01*
X80009889Y-90884789D01*
X80009892Y-90884800D01*
X80092624Y-91077996D01*
X80210422Y-91252045D01*
X80210430Y-91252054D01*
X80710708Y-91752332D01*
X80710718Y-91752341D01*
X80832162Y-91852615D01*
X80832163Y-91852616D01*
X80832167Y-91852618D01*
X80832168Y-91852619D01*
X81016631Y-91953343D01*
X81216821Y-92017337D01*
X81425504Y-92042287D01*
X81635140Y-92027295D01*
X81838148Y-91972899D01*
X82027194Y-91881066D01*
X82195443Y-91755116D01*
X82305790Y-91633729D01*
X82365449Y-91597366D01*
X82397543Y-91593141D01*
X88993064Y-91593141D01*
X88998099Y-91593346D01*
X89017713Y-91594942D01*
X89053318Y-91597842D01*
X89117671Y-91589073D01*
X89132731Y-91587022D01*
X89134399Y-91586818D01*
X89214062Y-91578155D01*
X89215187Y-91577907D01*
X89235458Y-91573156D01*
X89236614Y-91572868D01*
X89236619Y-91572868D01*
X89273538Y-91559304D01*
X89311862Y-91545225D01*
X89313418Y-91544676D01*
X89389372Y-91519085D01*
X89389381Y-91519079D01*
X89390502Y-91518561D01*
X89409274Y-91509564D01*
X89410262Y-91509074D01*
X89410267Y-91509073D01*
X89477853Y-91465871D01*
X89479183Y-91465047D01*
X89547887Y-91423711D01*
X89547894Y-91423703D01*
X89548820Y-91423001D01*
X89565227Y-91410174D01*
X89566141Y-91409440D01*
X89566141Y-91409439D01*
X89622870Y-91352709D01*
X89623969Y-91351640D01*
X89682192Y-91296490D01*
X89682196Y-91296482D01*
X89682902Y-91295653D01*
X89697056Y-91278523D01*
X90588761Y-90386818D01*
X90650084Y-90353334D01*
X90676442Y-90350500D01*
X93228109Y-90350500D01*
X93295148Y-90370185D01*
X93340903Y-90422989D01*
X93350847Y-90492147D01*
X93321822Y-90555703D01*
X93315790Y-90562181D01*
X91007588Y-92870382D01*
X91001827Y-92875471D01*
X90980255Y-92892262D01*
X90917909Y-92959986D01*
X90916136Y-92961834D01*
X90895104Y-92982865D01*
X90895094Y-92982877D01*
X90875861Y-93005586D01*
X90874166Y-93007506D01*
X90811837Y-93075212D01*
X90811835Y-93075215D01*
X90796892Y-93098087D01*
X90792297Y-93104250D01*
X90774635Y-93125104D01*
X90727518Y-93204173D01*
X90726162Y-93206345D01*
X90675829Y-93283389D01*
X90675824Y-93283397D01*
X90664853Y-93308409D01*
X90661335Y-93315244D01*
X90647348Y-93338717D01*
X90647343Y-93338727D01*
X90613881Y-93424481D01*
X90612901Y-93426848D01*
X90575936Y-93511118D01*
X90575935Y-93511122D01*
X90569226Y-93537616D01*
X90566881Y-93544935D01*
X90556953Y-93570379D01*
X90556948Y-93570395D01*
X90538062Y-93660465D01*
X90537484Y-93662960D01*
X90514892Y-93752175D01*
X90514890Y-93752185D01*
X90512635Y-93779408D01*
X90511526Y-93787016D01*
X90505920Y-93813750D01*
X90505919Y-93813763D01*
X90502115Y-93905719D01*
X90501957Y-93908274D01*
X90499500Y-93937934D01*
X90499500Y-93967683D01*
X90499447Y-93970246D01*
X90495642Y-94062219D01*
X90495643Y-94062221D01*
X90499023Y-94089345D01*
X90499499Y-94097019D01*
X90499499Y-99138769D01*
X90479814Y-99205808D01*
X90427010Y-99251563D01*
X90357852Y-99261507D01*
X90294296Y-99232482D01*
X90287818Y-99226450D01*
X88075729Y-97014361D01*
X88063949Y-97000730D01*
X88056482Y-96990701D01*
X88049612Y-96981472D01*
X88043545Y-96976381D01*
X88009587Y-96947886D01*
X88005612Y-96944244D01*
X88002690Y-96941322D01*
X87999779Y-96938410D01*
X87974736Y-96918609D01*
X87973338Y-96917470D01*
X87915214Y-96868698D01*
X87909180Y-96864729D01*
X87909212Y-96864680D01*
X87902853Y-96860628D01*
X87902822Y-96860679D01*
X87896680Y-96856891D01*
X87896678Y-96856890D01*
X87896677Y-96856889D01*
X87827872Y-96824804D01*
X87826252Y-96824019D01*
X87786512Y-96804061D01*
X87758433Y-96789960D01*
X87758431Y-96789959D01*
X87758430Y-96789959D01*
X87751645Y-96787489D01*
X87751665Y-96787433D01*
X87744549Y-96784959D01*
X87744531Y-96785015D01*
X87737674Y-96782743D01*
X87663328Y-96767391D01*
X87661569Y-96767001D01*
X87587718Y-96749499D01*
X87580547Y-96748661D01*
X87580553Y-96748601D01*
X87573055Y-96747835D01*
X87573050Y-96747895D01*
X87565860Y-96747265D01*
X87489968Y-96749474D01*
X87488165Y-96749500D01*
X83477309Y-96749500D01*
X83459339Y-96748191D01*
X83435576Y-96744710D01*
X83391116Y-96748601D01*
X83383535Y-96749264D01*
X83378134Y-96749500D01*
X83369887Y-96749500D01*
X83338210Y-96753202D01*
X83336436Y-96753384D01*
X83305994Y-96756047D01*
X83260802Y-96760001D01*
X83253736Y-96761460D01*
X83253724Y-96761404D01*
X83246367Y-96763035D01*
X83246381Y-96763092D01*
X83239344Y-96764760D01*
X83167989Y-96790729D01*
X83166289Y-96791320D01*
X83094272Y-96815185D01*
X83087730Y-96818236D01*
X83087705Y-96818183D01*
X83080912Y-96821471D01*
X83080938Y-96821523D01*
X83074484Y-96824764D01*
X83011072Y-96866470D01*
X83009552Y-96867439D01*
X82944952Y-96907285D01*
X82939287Y-96911765D01*
X82939251Y-96911719D01*
X82933402Y-96916484D01*
X82933439Y-96916528D01*
X82927913Y-96921164D01*
X82875817Y-96976381D01*
X82874562Y-96977674D01*
X81644202Y-98208034D01*
X81582879Y-98241519D01*
X81556521Y-98244353D01*
X81499997Y-98244353D01*
X81428039Y-98249499D01*
X81428034Y-98249500D01*
X81289949Y-98290045D01*
X81168872Y-98367857D01*
X81168868Y-98367859D01*
X81148350Y-98391539D01*
X81089572Y-98429313D01*
X81019702Y-98429311D01*
X80960925Y-98391536D01*
X80945084Y-98368418D01*
X80906781Y-98296172D01*
X80705966Y-97999992D01*
X80578557Y-97849995D01*
X80578556Y-97849994D01*
X79372732Y-99055818D01*
X79209870Y-98865130D01*
X79019180Y-98702266D01*
X80227743Y-97493703D01*
X80227742Y-97493702D01*
X80214514Y-97481171D01*
X80214513Y-97481170D01*
X79929632Y-97264611D01*
X79929629Y-97264609D01*
X79623009Y-97080123D01*
X79298260Y-96929877D01*
X79298255Y-96929876D01*
X78959144Y-96815616D01*
X78609660Y-96738688D01*
X78253924Y-96700000D01*
X77896075Y-96700000D01*
X77540339Y-96738688D01*
X77190855Y-96815616D01*
X76851744Y-96929876D01*
X76851739Y-96929877D01*
X76526990Y-97080123D01*
X76220370Y-97264609D01*
X76220367Y-97264611D01*
X75935491Y-97481166D01*
X75922256Y-97493703D01*
X75922255Y-97493703D01*
X77130819Y-98702266D01*
X76940130Y-98865130D01*
X76777266Y-99055818D01*
X75571442Y-97849994D01*
X75571441Y-97849995D01*
X75444040Y-97999983D01*
X75444033Y-97999993D01*
X75243218Y-98296172D01*
X75075606Y-98612322D01*
X75075597Y-98612340D01*
X74943149Y-98944760D01*
X74943147Y-98944767D01*
X74847421Y-99289542D01*
X74847415Y-99289568D01*
X74789527Y-99642668D01*
X74789526Y-99642685D01*
X74770153Y-99999997D01*
X74770153Y-100000002D01*
X74358998Y-100000002D01*
X74360834Y-99959557D01*
X74372575Y-99724543D01*
X74373068Y-99719262D01*
X74394325Y-99564100D01*
X74422923Y-99374573D01*
X74423813Y-99369910D01*
X74460873Y-99209401D01*
X74461133Y-99208332D01*
X74506364Y-99030904D01*
X74507520Y-99026943D01*
X74559979Y-98867408D01*
X74560575Y-98865688D01*
X74622174Y-98696653D01*
X74623480Y-98693373D01*
X74690746Y-98537953D01*
X74691723Y-98535816D01*
X74769359Y-98374812D01*
X74770756Y-98372091D01*
X74851988Y-98223125D01*
X74853490Y-98220528D01*
X74946788Y-98068064D01*
X74948065Y-98066071D01*
X75042271Y-97925372D01*
X75044359Y-97922444D01*
X75153099Y-97779107D01*
X75154198Y-97777705D01*
X75259882Y-97647221D01*
X75262618Y-97644069D01*
X75387262Y-97509965D01*
X75388040Y-97509146D01*
X75502900Y-97391059D01*
X75506300Y-97387824D01*
X75650138Y-97261132D01*
X75769046Y-97159239D01*
X75773198Y-97155981D01*
X75969170Y-97015436D01*
X76052276Y-96956392D01*
X76055012Y-96954558D01*
X78415717Y-95462819D01*
X78432901Y-95457916D01*
X78439387Y-95451451D01*
X78442191Y-95449219D01*
X78442085Y-95449108D01*
X78450151Y-95441398D01*
X78452588Y-95439189D01*
X78548852Y-95356565D01*
X78643230Y-95249945D01*
X78643861Y-95249549D01*
X78646889Y-95245811D01*
X78654778Y-95236898D01*
X78657407Y-95234111D01*
X78711344Y-95180342D01*
X78718193Y-95168130D01*
X78716913Y-95167145D01*
X78719500Y-95163782D01*
X78719506Y-95163776D01*
X78809312Y-95028860D01*
X78810021Y-95028266D01*
X78812699Y-95023773D01*
X78821867Y-95010000D01*
X78827401Y-95001686D01*
X78829168Y-94999171D01*
X78859398Y-94958331D01*
X78862094Y-94949612D01*
X78862171Y-94949452D01*
X78862174Y-94949448D01*
X78939448Y-94789489D01*
X78940513Y-94788313D01*
X78940679Y-94787841D01*
X78943350Y-94781412D01*
X78968661Y-94729020D01*
X78969710Y-94726948D01*
X78976778Y-94713615D01*
X78978079Y-94705528D01*
X79033202Y-94535070D01*
X79034622Y-94532987D01*
X79034965Y-94531187D01*
X79036883Y-94523688D01*
X79038354Y-94519141D01*
X79053393Y-94472635D01*
X79053690Y-94470959D01*
X79057717Y-94455608D01*
X79057875Y-94447360D01*
X79089265Y-94270339D01*
X79090802Y-94267244D01*
X79090911Y-94264400D01*
X79091818Y-94255939D01*
X79098347Y-94219121D01*
X79099003Y-94201957D01*
X79100669Y-94187295D01*
X79099828Y-94180395D01*
X79106707Y-94000559D01*
X79108163Y-93996220D01*
X79107532Y-93978988D01*
X79107964Y-93967683D01*
X79108188Y-93961839D01*
X79104489Y-93924617D01*
X79104231Y-93916116D01*
X79104284Y-93914707D01*
X79103044Y-93910072D01*
X79085269Y-93731177D01*
X79086273Y-93725859D01*
X79082900Y-93707337D01*
X79082731Y-93705631D01*
X79070169Y-93653464D01*
X79068830Y-93645844D01*
X79068743Y-93645070D01*
X79067369Y-93641838D01*
X79025428Y-93467667D01*
X79025720Y-93461735D01*
X79018712Y-93445655D01*
X79017846Y-93443562D01*
X78996608Y-93389379D01*
X78994488Y-93382929D01*
X78993319Y-93380988D01*
X78928493Y-93215605D01*
X78928492Y-93215603D01*
X78928425Y-93215432D01*
X78927842Y-93208824D01*
X78899380Y-93163501D01*
X78897800Y-93160841D01*
X78890256Y-93147381D01*
X78884844Y-93137725D01*
X78882727Y-93133461D01*
X78881852Y-93132385D01*
X78834098Y-93047181D01*
X78802614Y-92991005D01*
X78802602Y-92990990D01*
X78800282Y-92987443D01*
X78802036Y-92986294D01*
X78798574Y-92977153D01*
X78746055Y-92916113D01*
X78743637Y-92913119D01*
X78736509Y-92903705D01*
X78733973Y-92900033D01*
X78733150Y-92899269D01*
X78647183Y-92785739D01*
X78647182Y-92785738D01*
X78596863Y-92735384D01*
X78566449Y-92704948D01*
X78566418Y-92704907D01*
X78556226Y-92694715D01*
X78556191Y-92694680D01*
X78555837Y-92694327D01*
X78555836Y-92694327D01*
X78553209Y-92691705D01*
X78550002Y-92688252D01*
X78538743Y-92675167D01*
X78531592Y-92670213D01*
X77931243Y-92073095D01*
X76886179Y-91033654D01*
X76882410Y-91029550D01*
X76870788Y-91015694D01*
X76854856Y-90996698D01*
X76759402Y-90880331D01*
X76747876Y-90863670D01*
X76710019Y-90798074D01*
X76709052Y-90796334D01*
X76656128Y-90697282D01*
X76648970Y-90681247D01*
X76644467Y-90668872D01*
X76620393Y-90602705D01*
X76619329Y-90599509D01*
X76589001Y-90499500D01*
X76587512Y-90494590D01*
X76585785Y-90487359D01*
X76570075Y-90398241D01*
X76569443Y-90393633D01*
X76558905Y-90286622D01*
X76558609Y-90280615D01*
X76558608Y-90189469D01*
X76558906Y-90183394D01*
X76565847Y-90112878D01*
X76569435Y-90076423D01*
X76570070Y-90071790D01*
X76585777Y-89982673D01*
X76587495Y-89975475D01*
X76619337Y-89870456D01*
X76620360Y-89867389D01*
X76648962Y-89788769D01*
X76656095Y-89772786D01*
X76709076Y-89673617D01*
X76709924Y-89672090D01*
X76747846Y-89606374D01*
X76759367Y-89589724D01*
X76857004Y-89470737D01*
X76882034Y-89440890D01*
X76885816Y-89436776D01*
X84209993Y-82162644D01*
X84214626Y-82158485D01*
X84249008Y-82130623D01*
X84359772Y-82042778D01*
X84375923Y-82031923D01*
X84440855Y-81995347D01*
X84442294Y-81994566D01*
X84540803Y-81943095D01*
X84548513Y-81939715D01*
X84629215Y-81910716D01*
X84632203Y-81909729D01*
X84732456Y-81879544D01*
X84739390Y-81877887D01*
X84826012Y-81862398D01*
X84830441Y-81861773D01*
X84932600Y-81851169D01*
X84938384Y-81850844D01*
X85026967Y-81850054D01*
X85032785Y-81850277D01*
G37*
%TD.AperFunction*%
%TD*%
M02*
