M48
; DRILL file {KiCad 7.0.5} date Tue Jul 25 09:46:54 2023
; FORMAT={-:-/ absolute / inch / decimal}
; #@! TF.CreationDate,2023-07-25T09:46:54+02:00
; #@! TF.GenerationSoftware,Kicad,Pcbnew,7.0.5
; #@! TF.FileFunction,Plated,1,2,PTH
FMAT,2
INCH
; #@! TA.AperFunction,Plated,PTH,ViaDrill
T1C0.0157
; #@! TA.AperFunction,Plated,PTH,ComponentDrill
T2C0.0197
; #@! TA.AperFunction,Plated,PTH,ComponentDrill
T3C0.0295
; #@! TA.AperFunction,Plated,PTH,ComponentDrill
T4C0.0402
; #@! TA.AperFunction,Plated,PTH,ComponentDrill
T5C0.1260
%
G90
G05
T1
X3.7768Y-4.131
X3.8376Y-4.1348
X3.8976Y-3.8189
X3.9764Y-4.1929
X4.252Y-3.7992
X4.252Y-4.1732
X4.3307Y-3.8386
X4.3504Y-4.0157
X4.3858Y-3.8346
X4.3999Y-3.9783
X4.5079Y-3.7598
X4.5232Y-3.9686
X4.6654Y-4.0157
T2
X3.009Y-4.2747
X3.009Y-4.3239
X4.8339Y-4.2731
X4.8339Y-4.3223
T3
X3.1991Y-3.5725
X3.2086Y-4.281
X3.2548Y-3.5169
X3.2873Y-4.281
X3.3105Y-3.4612
X3.3661Y-3.4055
X3.4035Y-3.8976
X3.4035Y-3.9764
X3.4035Y-4.0551
X3.7579Y-3.8976
X3.7579Y-3.9764
X3.7579Y-4.0551
X4.1122Y-3.8976
X4.1122Y-3.9764
X4.1122Y-4.0551
X4.4665Y-3.8976
X4.4665Y-3.9764
X4.4665Y-4.0551
X4.5866Y-4.2795
X4.6654Y-4.2795
T4
X3.6614Y-4.2531
X3.7205Y-3.6024
X3.7205Y-3.7205
X3.7795Y-4.2531
X3.8386Y-3.6024
X3.8386Y-3.7205
X3.9567Y-3.6024
X3.9567Y-3.7205
X4.0748Y-3.6024
X4.0748Y-3.7205
X4.0945Y-4.2531
X4.1929Y-3.6024
X4.1929Y-3.7205
X4.2126Y-4.2531
X4.311Y-3.6024
X4.311Y-3.7205
X4.4291Y-3.6024
X4.4291Y-3.7205
X4.7835Y-3.6057
X4.7835Y-3.7238
T5
X3.0738Y-3.937
X4.8002Y-3.937
T0
M30
