%TF.GenerationSoftware,KiCad,Pcbnew,7.0.5*%
%TF.CreationDate,2023-07-25T09:46:53+02:00*%
%TF.ProjectId,XOL Breakout,584f4c20-4272-4656-916b-6f75742e6b69,rev?*%
%TF.SameCoordinates,Original*%
%TF.FileFunction,Legend,Top*%
%TF.FilePolarity,Positive*%
%FSLAX46Y46*%
G04 Gerber Fmt 4.6, Leading zero omitted, Abs format (unit mm)*
G04 Created by KiCad (PCBNEW 7.0.5) date 2023-07-25 09:46:53*
%MOMM*%
%LPD*%
G01*
G04 APERTURE LIST*
G04 Aperture macros list*
%AMRoundRect*
0 Rectangle with rounded corners*
0 $1 Rounding radius*
0 $2 $3 $4 $5 $6 $7 $8 $9 X,Y pos of 4 corners*
0 Add a 4 corners polygon primitive as box body*
4,1,4,$2,$3,$4,$5,$6,$7,$8,$9,$2,$3,0*
0 Add four circle primitives for the rounded corners*
1,1,$1+$1,$2,$3*
1,1,$1+$1,$4,$5*
1,1,$1+$1,$6,$7*
1,1,$1+$1,$8,$9*
0 Add four rect primitives between the rounded corners*
20,1,$1+$1,$2,$3,$4,$5,0*
20,1,$1+$1,$4,$5,$6,$7,0*
20,1,$1+$1,$6,$7,$8,$9,0*
20,1,$1+$1,$8,$9,$2,$3,0*%
%AMHorizOval*
0 Thick line with rounded ends*
0 $1 width*
0 $2 $3 position (X,Y) of the first rounded end (center of the circle)*
0 $4 $5 position (X,Y) of the second rounded end (center of the circle)*
0 Add line between two ends*
20,1,$1,$2,$3,$4,$5,0*
0 Add two circle primitives to create the rounded ends*
1,1,$1,$2,$3*
1,1,$1,$4,$5*%
G04 Aperture macros list end*
%ADD10C,0.100000*%
%ADD11C,0.150000*%
%ADD12C,0.120000*%
%ADD13C,3.000000*%
%ADD14RoundRect,0.250001X0.499999X0.759999X-0.499999X0.759999X-0.499999X-0.759999X0.499999X-0.759999X0*%
%ADD15O,1.500000X2.020000*%
%ADD16RoundRect,0.250000X-0.350000X-0.625000X0.350000X-0.625000X0.350000X0.625000X-0.350000X0.625000X0*%
%ADD17O,1.200000X1.750000*%
%ADD18C,5.600000*%
%ADD19RoundRect,0.250000X-0.194454X0.689429X-0.689429X0.194454X0.194454X-0.689429X0.689429X-0.194454X0*%
%ADD20HorizOval,1.200000X-0.194454X0.194454X0.194454X-0.194454X0*%
%ADD21RoundRect,0.250000X0.625000X-0.350000X0.625000X0.350000X-0.625000X0.350000X-0.625000X-0.350000X0*%
%ADD22O,1.750000X1.200000*%
%ADD23RoundRect,0.250001X-0.499999X-0.499999X0.499999X-0.499999X0.499999X0.499999X-0.499999X0.499999X0*%
%ADD24C,1.500000*%
%ADD25RoundRect,0.200000X-0.450000X0.200000X-0.450000X-0.200000X0.450000X-0.200000X0.450000X0.200000X0*%
%ADD26O,1.300000X0.800000*%
G04 APERTURE END LIST*
D10*
X80233333Y-106142466D02*
X80766667Y-106142466D01*
X80500000Y-106409133D02*
X80500000Y-105875800D01*
X92800000Y-99375800D02*
X92900000Y-99409133D01*
X92900000Y-99409133D02*
X93066667Y-99409133D01*
X93066667Y-99409133D02*
X93133333Y-99375800D01*
X93133333Y-99375800D02*
X93166667Y-99342466D01*
X93166667Y-99342466D02*
X93200000Y-99275800D01*
X93200000Y-99275800D02*
X93200000Y-99209133D01*
X93200000Y-99209133D02*
X93166667Y-99142466D01*
X93166667Y-99142466D02*
X93133333Y-99109133D01*
X93133333Y-99109133D02*
X93066667Y-99075800D01*
X93066667Y-99075800D02*
X92933333Y-99042466D01*
X92933333Y-99042466D02*
X92866667Y-99009133D01*
X92866667Y-99009133D02*
X92833333Y-98975800D01*
X92833333Y-98975800D02*
X92800000Y-98909133D01*
X92800000Y-98909133D02*
X92800000Y-98842466D01*
X92800000Y-98842466D02*
X92833333Y-98775800D01*
X92833333Y-98775800D02*
X92866667Y-98742466D01*
X92866667Y-98742466D02*
X92933333Y-98709133D01*
X92933333Y-98709133D02*
X93100000Y-98709133D01*
X93100000Y-98709133D02*
X93200000Y-98742466D01*
X111183333Y-100742466D02*
X111116666Y-100709133D01*
X111116666Y-100709133D02*
X111016666Y-100709133D01*
X111016666Y-100709133D02*
X110916666Y-100742466D01*
X110916666Y-100742466D02*
X110850000Y-100809133D01*
X110850000Y-100809133D02*
X110816666Y-100875800D01*
X110816666Y-100875800D02*
X110783333Y-101009133D01*
X110783333Y-101009133D02*
X110783333Y-101109133D01*
X110783333Y-101109133D02*
X110816666Y-101242466D01*
X110816666Y-101242466D02*
X110850000Y-101309133D01*
X110850000Y-101309133D02*
X110916666Y-101375800D01*
X110916666Y-101375800D02*
X111016666Y-101409133D01*
X111016666Y-101409133D02*
X111083333Y-101409133D01*
X111083333Y-101409133D02*
X111183333Y-101375800D01*
X111183333Y-101375800D02*
X111216666Y-101342466D01*
X111216666Y-101342466D02*
X111216666Y-101109133D01*
X111216666Y-101109133D02*
X111083333Y-101109133D01*
X107742466Y-95033332D02*
X107709133Y-95099999D01*
X107709133Y-95099999D02*
X107709133Y-95199999D01*
X107709133Y-95199999D02*
X107742466Y-95299999D01*
X107742466Y-95299999D02*
X107809133Y-95366666D01*
X107809133Y-95366666D02*
X107875800Y-95399999D01*
X107875800Y-95399999D02*
X108009133Y-95433332D01*
X108009133Y-95433332D02*
X108109133Y-95433332D01*
X108109133Y-95433332D02*
X108242466Y-95399999D01*
X108242466Y-95399999D02*
X108309133Y-95366666D01*
X108309133Y-95366666D02*
X108375800Y-95299999D01*
X108375800Y-95299999D02*
X108409133Y-95199999D01*
X108409133Y-95199999D02*
X108409133Y-95133332D01*
X108409133Y-95133332D02*
X108375800Y-95033332D01*
X108375800Y-95033332D02*
X108342466Y-94999999D01*
X108342466Y-94999999D02*
X108109133Y-94999999D01*
X108109133Y-94999999D02*
X108109133Y-95133332D01*
X108409133Y-94699999D02*
X107709133Y-94699999D01*
X107709133Y-94699999D02*
X108409133Y-94299999D01*
X108409133Y-94299999D02*
X107709133Y-94299999D01*
X108409133Y-93966666D02*
X107709133Y-93966666D01*
X107709133Y-93966666D02*
X107709133Y-93799999D01*
X107709133Y-93799999D02*
X107742466Y-93699999D01*
X107742466Y-93699999D02*
X107809133Y-93633333D01*
X107809133Y-93633333D02*
X107875800Y-93599999D01*
X107875800Y-93599999D02*
X108009133Y-93566666D01*
X108009133Y-93566666D02*
X108109133Y-93566666D01*
X108109133Y-93566666D02*
X108242466Y-93599999D01*
X108242466Y-93599999D02*
X108309133Y-93633333D01*
X108309133Y-93633333D02*
X108375800Y-93699999D01*
X108375800Y-93699999D02*
X108409133Y-93799999D01*
X108409133Y-93799999D02*
X108409133Y-93966666D01*
X84015322Y-91857115D02*
X84082666Y-91823443D01*
X84082666Y-91823443D02*
X84166845Y-91739263D01*
X84166845Y-91739263D02*
X84183681Y-91688756D01*
X84183681Y-91688756D02*
X84183681Y-91655084D01*
X84183681Y-91655084D02*
X84166845Y-91604576D01*
X84166845Y-91604576D02*
X84133174Y-91570905D01*
X84133174Y-91570905D02*
X84082666Y-91554069D01*
X84082666Y-91554069D02*
X84048994Y-91554069D01*
X84048994Y-91554069D02*
X83998487Y-91570905D01*
X83998487Y-91570905D02*
X83914307Y-91621412D01*
X83914307Y-91621412D02*
X83863800Y-91638248D01*
X83863800Y-91638248D02*
X83830128Y-91638248D01*
X83830128Y-91638248D02*
X83779620Y-91621412D01*
X83779620Y-91621412D02*
X83745948Y-91587741D01*
X83745948Y-91587741D02*
X83729113Y-91537233D01*
X83729113Y-91537233D02*
X83729113Y-91503561D01*
X83729113Y-91503561D02*
X83745948Y-91453054D01*
X83745948Y-91453054D02*
X83830128Y-91368874D01*
X83830128Y-91368874D02*
X83897471Y-91335202D01*
X84048994Y-91217352D02*
X84048994Y-91183680D01*
X84048994Y-91183680D02*
X84065830Y-91133172D01*
X84065830Y-91133172D02*
X84150009Y-91048993D01*
X84150009Y-91048993D02*
X84200517Y-91032157D01*
X84200517Y-91032157D02*
X84234188Y-91032157D01*
X84234188Y-91032157D02*
X84284696Y-91048993D01*
X84284696Y-91048993D02*
X84318368Y-91082665D01*
X84318368Y-91082665D02*
X84352040Y-91150008D01*
X84352040Y-91150008D02*
X84352040Y-91554069D01*
X84352040Y-91554069D02*
X84570906Y-91335203D01*
X84604577Y-91099501D02*
X84772936Y-90931142D01*
X84671921Y-91234188D02*
X84436219Y-90762783D01*
X84436219Y-90762783D02*
X84907623Y-90998486D01*
X116666666Y-106409133D02*
X116666666Y-105709133D01*
X116666666Y-105709133D02*
X116933333Y-105709133D01*
X116933333Y-105709133D02*
X117000000Y-105742466D01*
X117000000Y-105742466D02*
X117033333Y-105775800D01*
X117033333Y-105775800D02*
X117066666Y-105842466D01*
X117066666Y-105842466D02*
X117066666Y-105942466D01*
X117066666Y-105942466D02*
X117033333Y-106009133D01*
X117033333Y-106009133D02*
X117000000Y-106042466D01*
X117000000Y-106042466D02*
X116933333Y-106075800D01*
X116933333Y-106075800D02*
X116666666Y-106075800D01*
X117766666Y-106342466D02*
X117733333Y-106375800D01*
X117733333Y-106375800D02*
X117633333Y-106409133D01*
X117633333Y-106409133D02*
X117566666Y-106409133D01*
X117566666Y-106409133D02*
X117466666Y-106375800D01*
X117466666Y-106375800D02*
X117400000Y-106309133D01*
X117400000Y-106309133D02*
X117366666Y-106242466D01*
X117366666Y-106242466D02*
X117333333Y-106109133D01*
X117333333Y-106109133D02*
X117333333Y-106009133D01*
X117333333Y-106009133D02*
X117366666Y-105875800D01*
X117366666Y-105875800D02*
X117400000Y-105809133D01*
X117400000Y-105809133D02*
X117466666Y-105742466D01*
X117466666Y-105742466D02*
X117566666Y-105709133D01*
X117566666Y-105709133D02*
X117633333Y-105709133D01*
X117633333Y-105709133D02*
X117733333Y-105742466D01*
X117733333Y-105742466D02*
X117766666Y-105775800D01*
X118300000Y-106042466D02*
X118066666Y-106042466D01*
X118066666Y-106409133D02*
X118066666Y-105709133D01*
X118066666Y-105709133D02*
X118400000Y-105709133D01*
X77690464Y-91355515D02*
X77724136Y-91422858D01*
X77724136Y-91422858D02*
X77808315Y-91507038D01*
X77808315Y-91507038D02*
X77858823Y-91523874D01*
X77858823Y-91523874D02*
X77892494Y-91523874D01*
X77892494Y-91523874D02*
X77943002Y-91507038D01*
X77943002Y-91507038D02*
X77976674Y-91473366D01*
X77976674Y-91473366D02*
X77993510Y-91422858D01*
X77993510Y-91422858D02*
X77993510Y-91389187D01*
X77993510Y-91389187D02*
X77976674Y-91338679D01*
X77976674Y-91338679D02*
X77926166Y-91254499D01*
X77926166Y-91254499D02*
X77909330Y-91203992D01*
X77909330Y-91203992D02*
X77909330Y-91170320D01*
X77909330Y-91170320D02*
X77926166Y-91119812D01*
X77926166Y-91119812D02*
X77959838Y-91086141D01*
X77959838Y-91086141D02*
X78010345Y-91069305D01*
X78010345Y-91069305D02*
X78044017Y-91069305D01*
X78044017Y-91069305D02*
X78094525Y-91086141D01*
X78094525Y-91086141D02*
X78178704Y-91170320D01*
X78178704Y-91170320D02*
X78212376Y-91237664D01*
X78330227Y-91321843D02*
X78532257Y-91523873D01*
X78077689Y-91776411D02*
X78431242Y-91422858D01*
X78481749Y-91810083D02*
X78599600Y-91927934D01*
X78464913Y-92163636D02*
X78296555Y-91995277D01*
X78296555Y-91995277D02*
X78650108Y-91641724D01*
X78650108Y-91641724D02*
X78818467Y-91810083D01*
X78616436Y-92315159D02*
X78969990Y-91961606D01*
X78969990Y-91961606D02*
X79104677Y-92096293D01*
X79104677Y-92096293D02*
X79121513Y-92146800D01*
X79121513Y-92146800D02*
X79121513Y-92180472D01*
X79121513Y-92180472D02*
X79104677Y-92230980D01*
X79104677Y-92230980D02*
X79054169Y-92281487D01*
X79054169Y-92281487D02*
X79003662Y-92298323D01*
X79003662Y-92298323D02*
X78969990Y-92298323D01*
X78969990Y-92298323D02*
X78919482Y-92281487D01*
X78919482Y-92281487D02*
X78784795Y-92146800D01*
X78969990Y-92668712D02*
X79323543Y-92315159D01*
X79323543Y-92315159D02*
X79458230Y-92449846D01*
X79458230Y-92449846D02*
X79475066Y-92500354D01*
X79475066Y-92500354D02*
X79475066Y-92534025D01*
X79475066Y-92534025D02*
X79458230Y-92584533D01*
X79458230Y-92584533D02*
X79407723Y-92635041D01*
X79407723Y-92635041D02*
X79357215Y-92651877D01*
X79357215Y-92651877D02*
X79323543Y-92651877D01*
X79323543Y-92651877D02*
X79273036Y-92635041D01*
X79273036Y-92635041D02*
X79138349Y-92500354D01*
X79508738Y-92837071D02*
X79626589Y-92954922D01*
X79491902Y-93190625D02*
X79323543Y-93022266D01*
X79323543Y-93022266D02*
X79677097Y-92668712D01*
X79677097Y-92668712D02*
X79845455Y-92837071D01*
X79845455Y-93544178D02*
X79895963Y-93257968D01*
X79643425Y-93342148D02*
X79996978Y-92988594D01*
X79996978Y-92988594D02*
X80131665Y-93123281D01*
X80131665Y-93123281D02*
X80148501Y-93173789D01*
X80148501Y-93173789D02*
X80148501Y-93207461D01*
X80148501Y-93207461D02*
X80131665Y-93257968D01*
X80131665Y-93257968D02*
X80081158Y-93308476D01*
X80081158Y-93308476D02*
X80030650Y-93325312D01*
X80030650Y-93325312D02*
X79996978Y-93325312D01*
X79996978Y-93325312D02*
X79946471Y-93308476D01*
X79946471Y-93308476D02*
X79811784Y-93173789D01*
X95709133Y-91633333D02*
X95709133Y-91966666D01*
X95709133Y-91966666D02*
X96042466Y-91999999D01*
X96042466Y-91999999D02*
X96009133Y-91966666D01*
X96009133Y-91966666D02*
X95975800Y-91899999D01*
X95975800Y-91899999D02*
X95975800Y-91733333D01*
X95975800Y-91733333D02*
X96009133Y-91666666D01*
X96009133Y-91666666D02*
X96042466Y-91633333D01*
X96042466Y-91633333D02*
X96109133Y-91599999D01*
X96109133Y-91599999D02*
X96275800Y-91599999D01*
X96275800Y-91599999D02*
X96342466Y-91633333D01*
X96342466Y-91633333D02*
X96375800Y-91666666D01*
X96375800Y-91666666D02*
X96409133Y-91733333D01*
X96409133Y-91733333D02*
X96409133Y-91899999D01*
X96409133Y-91899999D02*
X96375800Y-91966666D01*
X96375800Y-91966666D02*
X96342466Y-91999999D01*
X95709133Y-91399999D02*
X96409133Y-91166666D01*
X96409133Y-91166666D02*
X95709133Y-90933332D01*
X102183333Y-98742466D02*
X102116666Y-98709133D01*
X102116666Y-98709133D02*
X102016666Y-98709133D01*
X102016666Y-98709133D02*
X101916666Y-98742466D01*
X101916666Y-98742466D02*
X101850000Y-98809133D01*
X101850000Y-98809133D02*
X101816666Y-98875800D01*
X101816666Y-98875800D02*
X101783333Y-99009133D01*
X101783333Y-99009133D02*
X101783333Y-99109133D01*
X101783333Y-99109133D02*
X101816666Y-99242466D01*
X101816666Y-99242466D02*
X101850000Y-99309133D01*
X101850000Y-99309133D02*
X101916666Y-99375800D01*
X101916666Y-99375800D02*
X102016666Y-99409133D01*
X102016666Y-99409133D02*
X102083333Y-99409133D01*
X102083333Y-99409133D02*
X102183333Y-99375800D01*
X102183333Y-99375800D02*
X102216666Y-99342466D01*
X102216666Y-99342466D02*
X102216666Y-99109133D01*
X102216666Y-99109133D02*
X102083333Y-99109133D01*
X103683333Y-96409133D02*
X103683333Y-95709133D01*
X103683333Y-96042466D02*
X104083333Y-96042466D01*
X104083333Y-96409133D02*
X104083333Y-95709133D01*
X104416666Y-96042466D02*
X104650000Y-96042466D01*
X104750000Y-96409133D02*
X104416666Y-96409133D01*
X104416666Y-96409133D02*
X104416666Y-95709133D01*
X104416666Y-95709133D02*
X104750000Y-95709133D01*
X105283333Y-96042466D02*
X105049999Y-96042466D01*
X105049999Y-96409133D02*
X105049999Y-95709133D01*
X105049999Y-95709133D02*
X105383333Y-95709133D01*
X93650000Y-106409133D02*
X93650000Y-105709133D01*
X93650000Y-106042466D02*
X94050000Y-106042466D01*
X94050000Y-106409133D02*
X94050000Y-105709133D01*
X94383333Y-106042466D02*
X94616667Y-106042466D01*
X94716667Y-106409133D02*
X94383333Y-106409133D01*
X94383333Y-106409133D02*
X94383333Y-105709133D01*
X94383333Y-105709133D02*
X94716667Y-105709133D01*
X95150000Y-105709133D02*
X95216666Y-105709133D01*
X95216666Y-105709133D02*
X95283333Y-105742466D01*
X95283333Y-105742466D02*
X95316666Y-105775800D01*
X95316666Y-105775800D02*
X95350000Y-105842466D01*
X95350000Y-105842466D02*
X95383333Y-105975800D01*
X95383333Y-105975800D02*
X95383333Y-106142466D01*
X95383333Y-106142466D02*
X95350000Y-106275800D01*
X95350000Y-106275800D02*
X95316666Y-106342466D01*
X95316666Y-106342466D02*
X95283333Y-106375800D01*
X95283333Y-106375800D02*
X95216666Y-106409133D01*
X95216666Y-106409133D02*
X95150000Y-106409133D01*
X95150000Y-106409133D02*
X95083333Y-106375800D01*
X95083333Y-106375800D02*
X95050000Y-106342466D01*
X95050000Y-106342466D02*
X95016666Y-106275800D01*
X95016666Y-106275800D02*
X94983333Y-106142466D01*
X94983333Y-106142466D02*
X94983333Y-105975800D01*
X94983333Y-105975800D02*
X95016666Y-105842466D01*
X95016666Y-105842466D02*
X95050000Y-105775800D01*
X95050000Y-105775800D02*
X95083333Y-105742466D01*
X95083333Y-105742466D02*
X95150000Y-105709133D01*
X76166666Y-106409133D02*
X76166666Y-105709133D01*
X76166666Y-105709133D02*
X76433333Y-105709133D01*
X76433333Y-105709133D02*
X76500000Y-105742466D01*
X76500000Y-105742466D02*
X76533333Y-105775800D01*
X76533333Y-105775800D02*
X76566666Y-105842466D01*
X76566666Y-105842466D02*
X76566666Y-105942466D01*
X76566666Y-105942466D02*
X76533333Y-106009133D01*
X76533333Y-106009133D02*
X76500000Y-106042466D01*
X76500000Y-106042466D02*
X76433333Y-106075800D01*
X76433333Y-106075800D02*
X76166666Y-106075800D01*
X77266666Y-106342466D02*
X77233333Y-106375800D01*
X77233333Y-106375800D02*
X77133333Y-106409133D01*
X77133333Y-106409133D02*
X77066666Y-106409133D01*
X77066666Y-106409133D02*
X76966666Y-106375800D01*
X76966666Y-106375800D02*
X76900000Y-106309133D01*
X76900000Y-106309133D02*
X76866666Y-106242466D01*
X76866666Y-106242466D02*
X76833333Y-106109133D01*
X76833333Y-106109133D02*
X76833333Y-106009133D01*
X76833333Y-106009133D02*
X76866666Y-105875800D01*
X76866666Y-105875800D02*
X76900000Y-105809133D01*
X76900000Y-105809133D02*
X76966666Y-105742466D01*
X76966666Y-105742466D02*
X77066666Y-105709133D01*
X77066666Y-105709133D02*
X77133333Y-105709133D01*
X77133333Y-105709133D02*
X77233333Y-105742466D01*
X77233333Y-105742466D02*
X77266666Y-105775800D01*
X77800000Y-106042466D02*
X77566666Y-106042466D01*
X77566666Y-106409133D02*
X77566666Y-105709133D01*
X77566666Y-105709133D02*
X77900000Y-105709133D01*
X120409133Y-94950000D02*
X120409133Y-95283333D01*
X120409133Y-95283333D02*
X119709133Y-95283333D01*
X120042466Y-94716666D02*
X120042466Y-94483333D01*
X120409133Y-94383333D02*
X120409133Y-94716666D01*
X120409133Y-94716666D02*
X119709133Y-94716666D01*
X119709133Y-94716666D02*
X119709133Y-94383333D01*
X120409133Y-94083333D02*
X119709133Y-94083333D01*
X119709133Y-94083333D02*
X119709133Y-93916666D01*
X119709133Y-93916666D02*
X119742466Y-93816666D01*
X119742466Y-93816666D02*
X119809133Y-93750000D01*
X119809133Y-93750000D02*
X119875800Y-93716666D01*
X119875800Y-93716666D02*
X120009133Y-93683333D01*
X120009133Y-93683333D02*
X120109133Y-93683333D01*
X120109133Y-93683333D02*
X120242466Y-93716666D01*
X120242466Y-93716666D02*
X120309133Y-93750000D01*
X120309133Y-93750000D02*
X120375800Y-93816666D01*
X120375800Y-93816666D02*
X120409133Y-93916666D01*
X120409133Y-93916666D02*
X120409133Y-94083333D01*
X113266667Y-96042466D02*
X113033333Y-96042466D01*
X113033333Y-96409133D02*
X113033333Y-95709133D01*
X113033333Y-95709133D02*
X113366667Y-95709133D01*
X113600000Y-96375800D02*
X113700000Y-96409133D01*
X113700000Y-96409133D02*
X113866667Y-96409133D01*
X113866667Y-96409133D02*
X113933333Y-96375800D01*
X113933333Y-96375800D02*
X113966667Y-96342466D01*
X113966667Y-96342466D02*
X114000000Y-96275800D01*
X114000000Y-96275800D02*
X114000000Y-96209133D01*
X114000000Y-96209133D02*
X113966667Y-96142466D01*
X113966667Y-96142466D02*
X113933333Y-96109133D01*
X113933333Y-96109133D02*
X113866667Y-96075800D01*
X113866667Y-96075800D02*
X113733333Y-96042466D01*
X113733333Y-96042466D02*
X113666667Y-96009133D01*
X113666667Y-96009133D02*
X113633333Y-95975800D01*
X113633333Y-95975800D02*
X113600000Y-95909133D01*
X113600000Y-95909133D02*
X113600000Y-95842466D01*
X113600000Y-95842466D02*
X113633333Y-95775800D01*
X113633333Y-95775800D02*
X113666667Y-95742466D01*
X113666667Y-95742466D02*
X113733333Y-95709133D01*
X113733333Y-95709133D02*
X113900000Y-95709133D01*
X113900000Y-95709133D02*
X114000000Y-95742466D01*
X99409133Y-92267544D02*
X98709133Y-92267544D01*
X99042466Y-92267544D02*
X99042466Y-91867544D01*
X99409133Y-91867544D02*
X98709133Y-91867544D01*
X99042466Y-91534211D02*
X99042466Y-91300878D01*
X99409133Y-91200878D02*
X99409133Y-91534211D01*
X99409133Y-91534211D02*
X98709133Y-91534211D01*
X98709133Y-91534211D02*
X98709133Y-91200878D01*
X99042466Y-90667545D02*
X99042466Y-90900878D01*
X99409133Y-90900878D02*
X98709133Y-90900878D01*
X98709133Y-90900878D02*
X98709133Y-90567545D01*
X95775800Y-95333333D02*
X95742466Y-95300000D01*
X95742466Y-95300000D02*
X95709133Y-95233333D01*
X95709133Y-95233333D02*
X95709133Y-95066667D01*
X95709133Y-95066667D02*
X95742466Y-95000000D01*
X95742466Y-95000000D02*
X95775800Y-94966667D01*
X95775800Y-94966667D02*
X95842466Y-94933333D01*
X95842466Y-94933333D02*
X95909133Y-94933333D01*
X95909133Y-94933333D02*
X96009133Y-94966667D01*
X96009133Y-94966667D02*
X96409133Y-95366667D01*
X96409133Y-95366667D02*
X96409133Y-94933333D01*
X95942466Y-94333333D02*
X96409133Y-94333333D01*
X95675800Y-94500000D02*
X96175800Y-94666666D01*
X96175800Y-94666666D02*
X96175800Y-94233333D01*
X95709133Y-94066666D02*
X96409133Y-93833333D01*
X96409133Y-93833333D02*
X95709133Y-93599999D01*
X101800000Y-100709133D02*
X102200000Y-100709133D01*
X102000000Y-101409133D02*
X102000000Y-100709133D01*
X111209133Y-95366666D02*
X111209133Y-95033333D01*
X111409133Y-95433333D02*
X110709133Y-95200000D01*
X110709133Y-95200000D02*
X111409133Y-94966666D01*
X110709133Y-94733333D02*
X111275800Y-94733333D01*
X111275800Y-94733333D02*
X111342466Y-94700000D01*
X111342466Y-94700000D02*
X111375800Y-94666666D01*
X111375800Y-94666666D02*
X111409133Y-94600000D01*
X111409133Y-94600000D02*
X111409133Y-94466666D01*
X111409133Y-94466666D02*
X111375800Y-94400000D01*
X111375800Y-94400000D02*
X111342466Y-94366666D01*
X111342466Y-94366666D02*
X111275800Y-94333333D01*
X111275800Y-94333333D02*
X110709133Y-94333333D01*
X110709133Y-94066667D02*
X111409133Y-93600000D01*
X110709133Y-93600000D02*
X111409133Y-94066667D01*
X82490068Y-93382369D02*
X82557412Y-93348697D01*
X82557412Y-93348697D02*
X82641591Y-93264518D01*
X82641591Y-93264518D02*
X82658427Y-93214010D01*
X82658427Y-93214010D02*
X82658427Y-93180338D01*
X82658427Y-93180338D02*
X82641591Y-93129831D01*
X82641591Y-93129831D02*
X82607919Y-93096159D01*
X82607919Y-93096159D02*
X82557412Y-93079323D01*
X82557412Y-93079323D02*
X82523740Y-93079323D01*
X82523740Y-93079323D02*
X82473232Y-93096159D01*
X82473232Y-93096159D02*
X82389053Y-93146667D01*
X82389053Y-93146667D02*
X82338545Y-93163502D01*
X82338545Y-93163502D02*
X82304873Y-93163502D01*
X82304873Y-93163502D02*
X82254366Y-93146667D01*
X82254366Y-93146667D02*
X82220694Y-93112995D01*
X82220694Y-93112995D02*
X82203858Y-93062487D01*
X82203858Y-93062487D02*
X82203858Y-93028815D01*
X82203858Y-93028815D02*
X82220694Y-92978308D01*
X82220694Y-92978308D02*
X82304873Y-92894128D01*
X82304873Y-92894128D02*
X82372217Y-92860457D01*
X82523740Y-92742606D02*
X82523740Y-92708934D01*
X82523740Y-92708934D02*
X82540575Y-92658427D01*
X82540575Y-92658427D02*
X82624755Y-92574247D01*
X82624755Y-92574247D02*
X82675262Y-92557411D01*
X82675262Y-92557411D02*
X82708934Y-92557411D01*
X82708934Y-92557411D02*
X82759442Y-92574247D01*
X82759442Y-92574247D02*
X82793114Y-92607919D01*
X82793114Y-92607919D02*
X82826785Y-92675262D01*
X82826785Y-92675262D02*
X82826785Y-93079323D01*
X82826785Y-93079323D02*
X83045652Y-92860457D01*
X83129831Y-92405889D02*
X83197174Y-92372217D01*
X83197174Y-92372217D02*
X83230846Y-92372217D01*
X83230846Y-92372217D02*
X83281354Y-92389053D01*
X83281354Y-92389053D02*
X83331861Y-92439560D01*
X83331861Y-92439560D02*
X83348697Y-92490068D01*
X83348697Y-92490068D02*
X83348697Y-92523740D01*
X83348697Y-92523740D02*
X83331861Y-92574247D01*
X83331861Y-92574247D02*
X83197174Y-92708934D01*
X83197174Y-92708934D02*
X82843621Y-92355381D01*
X82843621Y-92355381D02*
X82961472Y-92237530D01*
X82961472Y-92237530D02*
X83011980Y-92220694D01*
X83011980Y-92220694D02*
X83045651Y-92220694D01*
X83045651Y-92220694D02*
X83096159Y-92237530D01*
X83096159Y-92237530D02*
X83129831Y-92271202D01*
X83129831Y-92271202D02*
X83146667Y-92321709D01*
X83146667Y-92321709D02*
X83146667Y-92355381D01*
X83146667Y-92355381D02*
X83129831Y-92405889D01*
X83129831Y-92405889D02*
X83011980Y-92523740D01*
X110800000Y-99375800D02*
X110900000Y-99409133D01*
X110900000Y-99409133D02*
X111066667Y-99409133D01*
X111066667Y-99409133D02*
X111133333Y-99375800D01*
X111133333Y-99375800D02*
X111166667Y-99342466D01*
X111166667Y-99342466D02*
X111200000Y-99275800D01*
X111200000Y-99275800D02*
X111200000Y-99209133D01*
X111200000Y-99209133D02*
X111166667Y-99142466D01*
X111166667Y-99142466D02*
X111133333Y-99109133D01*
X111133333Y-99109133D02*
X111066667Y-99075800D01*
X111066667Y-99075800D02*
X110933333Y-99042466D01*
X110933333Y-99042466D02*
X110866667Y-99009133D01*
X110866667Y-99009133D02*
X110833333Y-98975800D01*
X110833333Y-98975800D02*
X110800000Y-98909133D01*
X110800000Y-98909133D02*
X110800000Y-98842466D01*
X110800000Y-98842466D02*
X110833333Y-98775800D01*
X110833333Y-98775800D02*
X110866667Y-98742466D01*
X110866667Y-98742466D02*
X110933333Y-98709133D01*
X110933333Y-98709133D02*
X111100000Y-98709133D01*
X111100000Y-98709133D02*
X111200000Y-98742466D01*
X102375800Y-92300877D02*
X102409133Y-92200877D01*
X102409133Y-92200877D02*
X102409133Y-92034211D01*
X102409133Y-92034211D02*
X102375800Y-91967544D01*
X102375800Y-91967544D02*
X102342466Y-91934211D01*
X102342466Y-91934211D02*
X102275800Y-91900877D01*
X102275800Y-91900877D02*
X102209133Y-91900877D01*
X102209133Y-91900877D02*
X102142466Y-91934211D01*
X102142466Y-91934211D02*
X102109133Y-91967544D01*
X102109133Y-91967544D02*
X102075800Y-92034211D01*
X102075800Y-92034211D02*
X102042466Y-92167544D01*
X102042466Y-92167544D02*
X102009133Y-92234211D01*
X102009133Y-92234211D02*
X101975800Y-92267544D01*
X101975800Y-92267544D02*
X101909133Y-92300877D01*
X101909133Y-92300877D02*
X101842466Y-92300877D01*
X101842466Y-92300877D02*
X101775800Y-92267544D01*
X101775800Y-92267544D02*
X101742466Y-92234211D01*
X101742466Y-92234211D02*
X101709133Y-92167544D01*
X101709133Y-92167544D02*
X101709133Y-92000877D01*
X101709133Y-92000877D02*
X101742466Y-91900877D01*
X101775800Y-91634210D02*
X101742466Y-91600877D01*
X101742466Y-91600877D02*
X101709133Y-91534210D01*
X101709133Y-91534210D02*
X101709133Y-91367544D01*
X101709133Y-91367544D02*
X101742466Y-91300877D01*
X101742466Y-91300877D02*
X101775800Y-91267544D01*
X101775800Y-91267544D02*
X101842466Y-91234210D01*
X101842466Y-91234210D02*
X101909133Y-91234210D01*
X101909133Y-91234210D02*
X102009133Y-91267544D01*
X102009133Y-91267544D02*
X102409133Y-91667544D01*
X102409133Y-91667544D02*
X102409133Y-91234210D01*
X102042466Y-90700877D02*
X102075800Y-90600877D01*
X102075800Y-90600877D02*
X102109133Y-90567543D01*
X102109133Y-90567543D02*
X102175800Y-90534210D01*
X102175800Y-90534210D02*
X102275800Y-90534210D01*
X102275800Y-90534210D02*
X102342466Y-90567543D01*
X102342466Y-90567543D02*
X102375800Y-90600877D01*
X102375800Y-90600877D02*
X102409133Y-90667543D01*
X102409133Y-90667543D02*
X102409133Y-90934210D01*
X102409133Y-90934210D02*
X101709133Y-90934210D01*
X101709133Y-90934210D02*
X101709133Y-90700877D01*
X101709133Y-90700877D02*
X101742466Y-90634210D01*
X101742466Y-90634210D02*
X101775800Y-90600877D01*
X101775800Y-90600877D02*
X101842466Y-90567543D01*
X101842466Y-90567543D02*
X101909133Y-90567543D01*
X101909133Y-90567543D02*
X101975800Y-90600877D01*
X101975800Y-90600877D02*
X102009133Y-90634210D01*
X102009133Y-90634210D02*
X102042466Y-90700877D01*
X102042466Y-90700877D02*
X102042466Y-90934210D01*
X108375800Y-92300877D02*
X108409133Y-92200877D01*
X108409133Y-92200877D02*
X108409133Y-92034211D01*
X108409133Y-92034211D02*
X108375800Y-91967544D01*
X108375800Y-91967544D02*
X108342466Y-91934211D01*
X108342466Y-91934211D02*
X108275800Y-91900877D01*
X108275800Y-91900877D02*
X108209133Y-91900877D01*
X108209133Y-91900877D02*
X108142466Y-91934211D01*
X108142466Y-91934211D02*
X108109133Y-91967544D01*
X108109133Y-91967544D02*
X108075800Y-92034211D01*
X108075800Y-92034211D02*
X108042466Y-92167544D01*
X108042466Y-92167544D02*
X108009133Y-92234211D01*
X108009133Y-92234211D02*
X107975800Y-92267544D01*
X107975800Y-92267544D02*
X107909133Y-92300877D01*
X107909133Y-92300877D02*
X107842466Y-92300877D01*
X107842466Y-92300877D02*
X107775800Y-92267544D01*
X107775800Y-92267544D02*
X107742466Y-92234211D01*
X107742466Y-92234211D02*
X107709133Y-92167544D01*
X107709133Y-92167544D02*
X107709133Y-92000877D01*
X107709133Y-92000877D02*
X107742466Y-91900877D01*
X108409133Y-91234210D02*
X108409133Y-91634210D01*
X108409133Y-91434210D02*
X107709133Y-91434210D01*
X107709133Y-91434210D02*
X107809133Y-91500877D01*
X107809133Y-91500877D02*
X107875800Y-91567544D01*
X107875800Y-91567544D02*
X107909133Y-91634210D01*
X108209133Y-90967543D02*
X108209133Y-90634210D01*
X108409133Y-91034210D02*
X107709133Y-90800877D01*
X107709133Y-90800877D02*
X108409133Y-90567543D01*
X110733333Y-103142466D02*
X111266667Y-103142466D01*
X111000000Y-103409133D02*
X111000000Y-102875800D01*
X93409133Y-96066666D02*
X92709133Y-96066666D01*
X92709133Y-96066666D02*
X92709133Y-95799999D01*
X92709133Y-95799999D02*
X92742466Y-95733333D01*
X92742466Y-95733333D02*
X92775800Y-95699999D01*
X92775800Y-95699999D02*
X92842466Y-95666666D01*
X92842466Y-95666666D02*
X92942466Y-95666666D01*
X92942466Y-95666666D02*
X93009133Y-95699999D01*
X93009133Y-95699999D02*
X93042466Y-95733333D01*
X93042466Y-95733333D02*
X93075800Y-95799999D01*
X93075800Y-95799999D02*
X93075800Y-96066666D01*
X93409133Y-94966666D02*
X93075800Y-95199999D01*
X93409133Y-95366666D02*
X92709133Y-95366666D01*
X92709133Y-95366666D02*
X92709133Y-95099999D01*
X92709133Y-95099999D02*
X92742466Y-95033333D01*
X92742466Y-95033333D02*
X92775800Y-94999999D01*
X92775800Y-94999999D02*
X92842466Y-94966666D01*
X92842466Y-94966666D02*
X92942466Y-94966666D01*
X92942466Y-94966666D02*
X93009133Y-94999999D01*
X93009133Y-94999999D02*
X93042466Y-95033333D01*
X93042466Y-95033333D02*
X93075800Y-95099999D01*
X93075800Y-95099999D02*
X93075800Y-95366666D01*
X92709133Y-94533333D02*
X92709133Y-94399999D01*
X92709133Y-94399999D02*
X92742466Y-94333333D01*
X92742466Y-94333333D02*
X92809133Y-94266666D01*
X92809133Y-94266666D02*
X92942466Y-94233333D01*
X92942466Y-94233333D02*
X93175800Y-94233333D01*
X93175800Y-94233333D02*
X93309133Y-94266666D01*
X93309133Y-94266666D02*
X93375800Y-94333333D01*
X93375800Y-94333333D02*
X93409133Y-94399999D01*
X93409133Y-94399999D02*
X93409133Y-94533333D01*
X93409133Y-94533333D02*
X93375800Y-94599999D01*
X93375800Y-94599999D02*
X93309133Y-94666666D01*
X93309133Y-94666666D02*
X93175800Y-94699999D01*
X93175800Y-94699999D02*
X92942466Y-94699999D01*
X92942466Y-94699999D02*
X92809133Y-94666666D01*
X92809133Y-94666666D02*
X92742466Y-94599999D01*
X92742466Y-94599999D02*
X92709133Y-94533333D01*
X93042466Y-93700000D02*
X93075800Y-93600000D01*
X93075800Y-93600000D02*
X93109133Y-93566666D01*
X93109133Y-93566666D02*
X93175800Y-93533333D01*
X93175800Y-93533333D02*
X93275800Y-93533333D01*
X93275800Y-93533333D02*
X93342466Y-93566666D01*
X93342466Y-93566666D02*
X93375800Y-93600000D01*
X93375800Y-93600000D02*
X93409133Y-93666666D01*
X93409133Y-93666666D02*
X93409133Y-93933333D01*
X93409133Y-93933333D02*
X92709133Y-93933333D01*
X92709133Y-93933333D02*
X92709133Y-93700000D01*
X92709133Y-93700000D02*
X92742466Y-93633333D01*
X92742466Y-93633333D02*
X92775800Y-93600000D01*
X92775800Y-93600000D02*
X92842466Y-93566666D01*
X92842466Y-93566666D02*
X92909133Y-93566666D01*
X92909133Y-93566666D02*
X92975800Y-93600000D01*
X92975800Y-93600000D02*
X93009133Y-93633333D01*
X93009133Y-93633333D02*
X93042466Y-93700000D01*
X93042466Y-93700000D02*
X93042466Y-93933333D01*
X93042466Y-93233333D02*
X93042466Y-93000000D01*
X93409133Y-92900000D02*
X93409133Y-93233333D01*
X93409133Y-93233333D02*
X92709133Y-93233333D01*
X92709133Y-93233333D02*
X92709133Y-92900000D01*
X102209133Y-95733332D02*
X102209133Y-95399999D01*
X102409133Y-95799999D02*
X101709133Y-95566666D01*
X101709133Y-95566666D02*
X102409133Y-95333332D01*
X101742466Y-94733332D02*
X101709133Y-94799999D01*
X101709133Y-94799999D02*
X101709133Y-94899999D01*
X101709133Y-94899999D02*
X101742466Y-94999999D01*
X101742466Y-94999999D02*
X101809133Y-95066666D01*
X101809133Y-95066666D02*
X101875800Y-95099999D01*
X101875800Y-95099999D02*
X102009133Y-95133332D01*
X102009133Y-95133332D02*
X102109133Y-95133332D01*
X102109133Y-95133332D02*
X102242466Y-95099999D01*
X102242466Y-95099999D02*
X102309133Y-95066666D01*
X102309133Y-95066666D02*
X102375800Y-94999999D01*
X102375800Y-94999999D02*
X102409133Y-94899999D01*
X102409133Y-94899999D02*
X102409133Y-94833332D01*
X102409133Y-94833332D02*
X102375800Y-94733332D01*
X102375800Y-94733332D02*
X102342466Y-94699999D01*
X102342466Y-94699999D02*
X102109133Y-94699999D01*
X102109133Y-94699999D02*
X102109133Y-94833332D01*
X102409133Y-94399999D02*
X101709133Y-94399999D01*
X101709133Y-94399999D02*
X102409133Y-93999999D01*
X102409133Y-93999999D02*
X101709133Y-93999999D01*
X102409133Y-93666666D02*
X101709133Y-93666666D01*
X101709133Y-93666666D02*
X101709133Y-93499999D01*
X101709133Y-93499999D02*
X101742466Y-93399999D01*
X101742466Y-93399999D02*
X101809133Y-93333333D01*
X101809133Y-93333333D02*
X101875800Y-93299999D01*
X101875800Y-93299999D02*
X102009133Y-93266666D01*
X102009133Y-93266666D02*
X102109133Y-93266666D01*
X102109133Y-93266666D02*
X102242466Y-93299999D01*
X102242466Y-93299999D02*
X102309133Y-93333333D01*
X102309133Y-93333333D02*
X102375800Y-93399999D01*
X102375800Y-93399999D02*
X102409133Y-93499999D01*
X102409133Y-93499999D02*
X102409133Y-93666666D01*
X122166666Y-106409133D02*
X122166666Y-105709133D01*
X122166666Y-105709133D02*
X122433333Y-105709133D01*
X122433333Y-105709133D02*
X122500000Y-105742466D01*
X122500000Y-105742466D02*
X122533333Y-105775800D01*
X122533333Y-105775800D02*
X122566666Y-105842466D01*
X122566666Y-105842466D02*
X122566666Y-105942466D01*
X122566666Y-105942466D02*
X122533333Y-106009133D01*
X122533333Y-106009133D02*
X122500000Y-106042466D01*
X122500000Y-106042466D02*
X122433333Y-106075800D01*
X122433333Y-106075800D02*
X122166666Y-106075800D01*
X123266666Y-106342466D02*
X123233333Y-106375800D01*
X123233333Y-106375800D02*
X123133333Y-106409133D01*
X123133333Y-106409133D02*
X123066666Y-106409133D01*
X123066666Y-106409133D02*
X122966666Y-106375800D01*
X122966666Y-106375800D02*
X122900000Y-106309133D01*
X122900000Y-106309133D02*
X122866666Y-106242466D01*
X122866666Y-106242466D02*
X122833333Y-106109133D01*
X122833333Y-106109133D02*
X122833333Y-106009133D01*
X122833333Y-106009133D02*
X122866666Y-105875800D01*
X122866666Y-105875800D02*
X122900000Y-105809133D01*
X122900000Y-105809133D02*
X122966666Y-105742466D01*
X122966666Y-105742466D02*
X123066666Y-105709133D01*
X123066666Y-105709133D02*
X123133333Y-105709133D01*
X123133333Y-105709133D02*
X123233333Y-105742466D01*
X123233333Y-105742466D02*
X123266666Y-105775800D01*
X123800000Y-106042466D02*
X123566666Y-106042466D01*
X123566666Y-106409133D02*
X123566666Y-105709133D01*
X123566666Y-105709133D02*
X123900000Y-105709133D01*
X83800000Y-99375800D02*
X83900000Y-99409133D01*
X83900000Y-99409133D02*
X84066667Y-99409133D01*
X84066667Y-99409133D02*
X84133333Y-99375800D01*
X84133333Y-99375800D02*
X84166667Y-99342466D01*
X84166667Y-99342466D02*
X84200000Y-99275800D01*
X84200000Y-99275800D02*
X84200000Y-99209133D01*
X84200000Y-99209133D02*
X84166667Y-99142466D01*
X84166667Y-99142466D02*
X84133333Y-99109133D01*
X84133333Y-99109133D02*
X84066667Y-99075800D01*
X84066667Y-99075800D02*
X83933333Y-99042466D01*
X83933333Y-99042466D02*
X83866667Y-99009133D01*
X83866667Y-99009133D02*
X83833333Y-98975800D01*
X83833333Y-98975800D02*
X83800000Y-98909133D01*
X83800000Y-98909133D02*
X83800000Y-98842466D01*
X83800000Y-98842466D02*
X83833333Y-98775800D01*
X83833333Y-98775800D02*
X83866667Y-98742466D01*
X83866667Y-98742466D02*
X83933333Y-98709133D01*
X83933333Y-98709133D02*
X84100000Y-98709133D01*
X84100000Y-98709133D02*
X84200000Y-98742466D01*
X115233333Y-106142466D02*
X115766667Y-106142466D01*
X115500000Y-106409133D02*
X115500000Y-105875800D01*
X85433333Y-96409133D02*
X85433333Y-95709133D01*
X85433333Y-95709133D02*
X85700000Y-95709133D01*
X85700000Y-95709133D02*
X85766667Y-95742466D01*
X85766667Y-95742466D02*
X85800000Y-95775800D01*
X85800000Y-95775800D02*
X85833333Y-95842466D01*
X85833333Y-95842466D02*
X85833333Y-95942466D01*
X85833333Y-95942466D02*
X85800000Y-96009133D01*
X85800000Y-96009133D02*
X85766667Y-96042466D01*
X85766667Y-96042466D02*
X85700000Y-96075800D01*
X85700000Y-96075800D02*
X85433333Y-96075800D01*
X86533333Y-96409133D02*
X86300000Y-96075800D01*
X86133333Y-96409133D02*
X86133333Y-95709133D01*
X86133333Y-95709133D02*
X86400000Y-95709133D01*
X86400000Y-95709133D02*
X86466667Y-95742466D01*
X86466667Y-95742466D02*
X86500000Y-95775800D01*
X86500000Y-95775800D02*
X86533333Y-95842466D01*
X86533333Y-95842466D02*
X86533333Y-95942466D01*
X86533333Y-95942466D02*
X86500000Y-96009133D01*
X86500000Y-96009133D02*
X86466667Y-96042466D01*
X86466667Y-96042466D02*
X86400000Y-96075800D01*
X86400000Y-96075800D02*
X86133333Y-96075800D01*
X86966667Y-95709133D02*
X87100000Y-95709133D01*
X87100000Y-95709133D02*
X87166667Y-95742466D01*
X87166667Y-95742466D02*
X87233333Y-95809133D01*
X87233333Y-95809133D02*
X87266667Y-95942466D01*
X87266667Y-95942466D02*
X87266667Y-96175800D01*
X87266667Y-96175800D02*
X87233333Y-96309133D01*
X87233333Y-96309133D02*
X87166667Y-96375800D01*
X87166667Y-96375800D02*
X87100000Y-96409133D01*
X87100000Y-96409133D02*
X86966667Y-96409133D01*
X86966667Y-96409133D02*
X86900000Y-96375800D01*
X86900000Y-96375800D02*
X86833333Y-96309133D01*
X86833333Y-96309133D02*
X86800000Y-96175800D01*
X86800000Y-96175800D02*
X86800000Y-95942466D01*
X86800000Y-95942466D02*
X86833333Y-95809133D01*
X86833333Y-95809133D02*
X86900000Y-95742466D01*
X86900000Y-95742466D02*
X86966667Y-95709133D01*
X87800000Y-96042466D02*
X87900000Y-96075800D01*
X87900000Y-96075800D02*
X87933333Y-96109133D01*
X87933333Y-96109133D02*
X87966666Y-96175800D01*
X87966666Y-96175800D02*
X87966666Y-96275800D01*
X87966666Y-96275800D02*
X87933333Y-96342466D01*
X87933333Y-96342466D02*
X87900000Y-96375800D01*
X87900000Y-96375800D02*
X87833333Y-96409133D01*
X87833333Y-96409133D02*
X87566666Y-96409133D01*
X87566666Y-96409133D02*
X87566666Y-95709133D01*
X87566666Y-95709133D02*
X87800000Y-95709133D01*
X87800000Y-95709133D02*
X87866666Y-95742466D01*
X87866666Y-95742466D02*
X87900000Y-95775800D01*
X87900000Y-95775800D02*
X87933333Y-95842466D01*
X87933333Y-95842466D02*
X87933333Y-95909133D01*
X87933333Y-95909133D02*
X87900000Y-95975800D01*
X87900000Y-95975800D02*
X87866666Y-96009133D01*
X87866666Y-96009133D02*
X87800000Y-96042466D01*
X87800000Y-96042466D02*
X87566666Y-96042466D01*
X88266666Y-96042466D02*
X88500000Y-96042466D01*
X88600000Y-96409133D02*
X88266666Y-96409133D01*
X88266666Y-96409133D02*
X88266666Y-95709133D01*
X88266666Y-95709133D02*
X88600000Y-95709133D01*
X119683333Y-105742466D02*
X119616666Y-105709133D01*
X119616666Y-105709133D02*
X119516666Y-105709133D01*
X119516666Y-105709133D02*
X119416666Y-105742466D01*
X119416666Y-105742466D02*
X119350000Y-105809133D01*
X119350000Y-105809133D02*
X119316666Y-105875800D01*
X119316666Y-105875800D02*
X119283333Y-106009133D01*
X119283333Y-106009133D02*
X119283333Y-106109133D01*
X119283333Y-106109133D02*
X119316666Y-106242466D01*
X119316666Y-106242466D02*
X119350000Y-106309133D01*
X119350000Y-106309133D02*
X119416666Y-106375800D01*
X119416666Y-106375800D02*
X119516666Y-106409133D01*
X119516666Y-106409133D02*
X119583333Y-106409133D01*
X119583333Y-106409133D02*
X119683333Y-106375800D01*
X119683333Y-106375800D02*
X119716666Y-106342466D01*
X119716666Y-106342466D02*
X119716666Y-106109133D01*
X119716666Y-106109133D02*
X119583333Y-106109133D01*
X111375800Y-92300877D02*
X111409133Y-92200877D01*
X111409133Y-92200877D02*
X111409133Y-92034211D01*
X111409133Y-92034211D02*
X111375800Y-91967544D01*
X111375800Y-91967544D02*
X111342466Y-91934211D01*
X111342466Y-91934211D02*
X111275800Y-91900877D01*
X111275800Y-91900877D02*
X111209133Y-91900877D01*
X111209133Y-91900877D02*
X111142466Y-91934211D01*
X111142466Y-91934211D02*
X111109133Y-91967544D01*
X111109133Y-91967544D02*
X111075800Y-92034211D01*
X111075800Y-92034211D02*
X111042466Y-92167544D01*
X111042466Y-92167544D02*
X111009133Y-92234211D01*
X111009133Y-92234211D02*
X110975800Y-92267544D01*
X110975800Y-92267544D02*
X110909133Y-92300877D01*
X110909133Y-92300877D02*
X110842466Y-92300877D01*
X110842466Y-92300877D02*
X110775800Y-92267544D01*
X110775800Y-92267544D02*
X110742466Y-92234211D01*
X110742466Y-92234211D02*
X110709133Y-92167544D01*
X110709133Y-92167544D02*
X110709133Y-92000877D01*
X110709133Y-92000877D02*
X110742466Y-91900877D01*
X111409133Y-91234210D02*
X111409133Y-91634210D01*
X111409133Y-91434210D02*
X110709133Y-91434210D01*
X110709133Y-91434210D02*
X110809133Y-91500877D01*
X110809133Y-91500877D02*
X110875800Y-91567544D01*
X110875800Y-91567544D02*
X110909133Y-91634210D01*
X111042466Y-90700877D02*
X111075800Y-90600877D01*
X111075800Y-90600877D02*
X111109133Y-90567543D01*
X111109133Y-90567543D02*
X111175800Y-90534210D01*
X111175800Y-90534210D02*
X111275800Y-90534210D01*
X111275800Y-90534210D02*
X111342466Y-90567543D01*
X111342466Y-90567543D02*
X111375800Y-90600877D01*
X111375800Y-90600877D02*
X111409133Y-90667543D01*
X111409133Y-90667543D02*
X111409133Y-90934210D01*
X111409133Y-90934210D02*
X110709133Y-90934210D01*
X110709133Y-90934210D02*
X110709133Y-90700877D01*
X110709133Y-90700877D02*
X110742466Y-90634210D01*
X110742466Y-90634210D02*
X110775800Y-90600877D01*
X110775800Y-90600877D02*
X110842466Y-90567543D01*
X110842466Y-90567543D02*
X110909133Y-90567543D01*
X110909133Y-90567543D02*
X110975800Y-90600877D01*
X110975800Y-90600877D02*
X111009133Y-90634210D01*
X111009133Y-90634210D02*
X111042466Y-90700877D01*
X111042466Y-90700877D02*
X111042466Y-90934210D01*
X85515322Y-90357115D02*
X85582666Y-90323443D01*
X85582666Y-90323443D02*
X85666845Y-90239263D01*
X85666845Y-90239263D02*
X85683681Y-90188756D01*
X85683681Y-90188756D02*
X85683681Y-90155084D01*
X85683681Y-90155084D02*
X85666845Y-90104576D01*
X85666845Y-90104576D02*
X85633174Y-90070905D01*
X85633174Y-90070905D02*
X85582666Y-90054069D01*
X85582666Y-90054069D02*
X85548994Y-90054069D01*
X85548994Y-90054069D02*
X85498487Y-90070905D01*
X85498487Y-90070905D02*
X85414307Y-90121412D01*
X85414307Y-90121412D02*
X85363800Y-90138248D01*
X85363800Y-90138248D02*
X85330128Y-90138248D01*
X85330128Y-90138248D02*
X85279620Y-90121412D01*
X85279620Y-90121412D02*
X85245948Y-90087741D01*
X85245948Y-90087741D02*
X85229113Y-90037233D01*
X85229113Y-90037233D02*
X85229113Y-90003561D01*
X85229113Y-90003561D02*
X85245948Y-89953054D01*
X85245948Y-89953054D02*
X85330128Y-89868874D01*
X85330128Y-89868874D02*
X85397471Y-89835202D01*
X86070906Y-89835203D02*
X85868875Y-90037233D01*
X85969891Y-89936218D02*
X85616337Y-89582665D01*
X85616337Y-89582665D02*
X85633173Y-89666844D01*
X85633173Y-89666844D02*
X85633173Y-89734187D01*
X85633173Y-89734187D02*
X85616337Y-89784695D01*
X86104577Y-89599501D02*
X86272936Y-89431142D01*
X86171921Y-89734188D02*
X85936219Y-89262783D01*
X85936219Y-89262783D02*
X86407623Y-89498486D01*
X104709133Y-95399999D02*
X104709133Y-94999999D01*
X105409133Y-95199999D02*
X104709133Y-95199999D01*
X105409133Y-94766666D02*
X104709133Y-94766666D01*
X105042466Y-94766666D02*
X105042466Y-94366666D01*
X105409133Y-94366666D02*
X104709133Y-94366666D01*
X104709133Y-93900000D02*
X104709133Y-93833333D01*
X104709133Y-93833333D02*
X104742466Y-93766666D01*
X104742466Y-93766666D02*
X104775800Y-93733333D01*
X104775800Y-93733333D02*
X104842466Y-93700000D01*
X104842466Y-93700000D02*
X104975800Y-93666666D01*
X104975800Y-93666666D02*
X105142466Y-93666666D01*
X105142466Y-93666666D02*
X105275800Y-93700000D01*
X105275800Y-93700000D02*
X105342466Y-93733333D01*
X105342466Y-93733333D02*
X105375800Y-93766666D01*
X105375800Y-93766666D02*
X105409133Y-93833333D01*
X105409133Y-93833333D02*
X105409133Y-93900000D01*
X105409133Y-93900000D02*
X105375800Y-93966666D01*
X105375800Y-93966666D02*
X105342466Y-94000000D01*
X105342466Y-94000000D02*
X105275800Y-94033333D01*
X105275800Y-94033333D02*
X105142466Y-94066666D01*
X105142466Y-94066666D02*
X104975800Y-94066666D01*
X104975800Y-94066666D02*
X104842466Y-94033333D01*
X104842466Y-94033333D02*
X104775800Y-94000000D01*
X104775800Y-94000000D02*
X104742466Y-93966666D01*
X104742466Y-93966666D02*
X104709133Y-93900000D01*
X92733333Y-103142466D02*
X93266667Y-103142466D01*
X93000000Y-103409133D02*
X93000000Y-102875800D01*
X104600000Y-105709133D02*
X105000000Y-105709133D01*
X104800000Y-106409133D02*
X104800000Y-105709133D01*
X105233333Y-106409133D02*
X105233333Y-105709133D01*
X105233333Y-106042466D02*
X105633333Y-106042466D01*
X105633333Y-106409133D02*
X105633333Y-105709133D01*
X106100000Y-105709133D02*
X106166666Y-105709133D01*
X106166666Y-105709133D02*
X106233333Y-105742466D01*
X106233333Y-105742466D02*
X106266666Y-105775800D01*
X106266666Y-105775800D02*
X106300000Y-105842466D01*
X106300000Y-105842466D02*
X106333333Y-105975800D01*
X106333333Y-105975800D02*
X106333333Y-106142466D01*
X106333333Y-106142466D02*
X106300000Y-106275800D01*
X106300000Y-106275800D02*
X106266666Y-106342466D01*
X106266666Y-106342466D02*
X106233333Y-106375800D01*
X106233333Y-106375800D02*
X106166666Y-106409133D01*
X106166666Y-106409133D02*
X106100000Y-106409133D01*
X106100000Y-106409133D02*
X106033333Y-106375800D01*
X106033333Y-106375800D02*
X106000000Y-106342466D01*
X106000000Y-106342466D02*
X105966666Y-106275800D01*
X105966666Y-106275800D02*
X105933333Y-106142466D01*
X105933333Y-106142466D02*
X105933333Y-105975800D01*
X105933333Y-105975800D02*
X105966666Y-105842466D01*
X105966666Y-105842466D02*
X106000000Y-105775800D01*
X106000000Y-105775800D02*
X106033333Y-105742466D01*
X106033333Y-105742466D02*
X106100000Y-105709133D01*
X105375800Y-92300877D02*
X105409133Y-92200877D01*
X105409133Y-92200877D02*
X105409133Y-92034211D01*
X105409133Y-92034211D02*
X105375800Y-91967544D01*
X105375800Y-91967544D02*
X105342466Y-91934211D01*
X105342466Y-91934211D02*
X105275800Y-91900877D01*
X105275800Y-91900877D02*
X105209133Y-91900877D01*
X105209133Y-91900877D02*
X105142466Y-91934211D01*
X105142466Y-91934211D02*
X105109133Y-91967544D01*
X105109133Y-91967544D02*
X105075800Y-92034211D01*
X105075800Y-92034211D02*
X105042466Y-92167544D01*
X105042466Y-92167544D02*
X105009133Y-92234211D01*
X105009133Y-92234211D02*
X104975800Y-92267544D01*
X104975800Y-92267544D02*
X104909133Y-92300877D01*
X104909133Y-92300877D02*
X104842466Y-92300877D01*
X104842466Y-92300877D02*
X104775800Y-92267544D01*
X104775800Y-92267544D02*
X104742466Y-92234211D01*
X104742466Y-92234211D02*
X104709133Y-92167544D01*
X104709133Y-92167544D02*
X104709133Y-92000877D01*
X104709133Y-92000877D02*
X104742466Y-91900877D01*
X104775800Y-91634210D02*
X104742466Y-91600877D01*
X104742466Y-91600877D02*
X104709133Y-91534210D01*
X104709133Y-91534210D02*
X104709133Y-91367544D01*
X104709133Y-91367544D02*
X104742466Y-91300877D01*
X104742466Y-91300877D02*
X104775800Y-91267544D01*
X104775800Y-91267544D02*
X104842466Y-91234210D01*
X104842466Y-91234210D02*
X104909133Y-91234210D01*
X104909133Y-91234210D02*
X105009133Y-91267544D01*
X105009133Y-91267544D02*
X105409133Y-91667544D01*
X105409133Y-91667544D02*
X105409133Y-91234210D01*
X105209133Y-90967543D02*
X105209133Y-90634210D01*
X105409133Y-91034210D02*
X104709133Y-90800877D01*
X104709133Y-90800877D02*
X105409133Y-90567543D01*
X86990068Y-88882369D02*
X87057412Y-88848697D01*
X87057412Y-88848697D02*
X87141591Y-88764518D01*
X87141591Y-88764518D02*
X87158427Y-88714010D01*
X87158427Y-88714010D02*
X87158427Y-88680338D01*
X87158427Y-88680338D02*
X87141591Y-88629831D01*
X87141591Y-88629831D02*
X87107919Y-88596159D01*
X87107919Y-88596159D02*
X87057412Y-88579323D01*
X87057412Y-88579323D02*
X87023740Y-88579323D01*
X87023740Y-88579323D02*
X86973232Y-88596159D01*
X86973232Y-88596159D02*
X86889053Y-88646667D01*
X86889053Y-88646667D02*
X86838545Y-88663502D01*
X86838545Y-88663502D02*
X86804873Y-88663502D01*
X86804873Y-88663502D02*
X86754366Y-88646667D01*
X86754366Y-88646667D02*
X86720694Y-88612995D01*
X86720694Y-88612995D02*
X86703858Y-88562487D01*
X86703858Y-88562487D02*
X86703858Y-88528815D01*
X86703858Y-88528815D02*
X86720694Y-88478308D01*
X86720694Y-88478308D02*
X86804873Y-88394128D01*
X86804873Y-88394128D02*
X86872217Y-88360457D01*
X87545652Y-88360457D02*
X87343621Y-88562488D01*
X87444636Y-88461472D02*
X87091083Y-88107919D01*
X87091083Y-88107919D02*
X87107919Y-88192098D01*
X87107919Y-88192098D02*
X87107919Y-88259442D01*
X87107919Y-88259442D02*
X87091083Y-88309949D01*
X87629831Y-87905889D02*
X87697174Y-87872217D01*
X87697174Y-87872217D02*
X87730846Y-87872217D01*
X87730846Y-87872217D02*
X87781354Y-87889053D01*
X87781354Y-87889053D02*
X87831861Y-87939560D01*
X87831861Y-87939560D02*
X87848697Y-87990068D01*
X87848697Y-87990068D02*
X87848697Y-88023740D01*
X87848697Y-88023740D02*
X87831861Y-88074247D01*
X87831861Y-88074247D02*
X87697174Y-88208934D01*
X87697174Y-88208934D02*
X87343621Y-87855381D01*
X87343621Y-87855381D02*
X87461472Y-87737530D01*
X87461472Y-87737530D02*
X87511980Y-87720694D01*
X87511980Y-87720694D02*
X87545651Y-87720694D01*
X87545651Y-87720694D02*
X87596159Y-87737530D01*
X87596159Y-87737530D02*
X87629831Y-87771202D01*
X87629831Y-87771202D02*
X87646667Y-87821709D01*
X87646667Y-87821709D02*
X87646667Y-87855381D01*
X87646667Y-87855381D02*
X87629831Y-87905889D01*
X87629831Y-87905889D02*
X87511980Y-88023740D01*
X84683333Y-105742466D02*
X84616666Y-105709133D01*
X84616666Y-105709133D02*
X84516666Y-105709133D01*
X84516666Y-105709133D02*
X84416666Y-105742466D01*
X84416666Y-105742466D02*
X84350000Y-105809133D01*
X84350000Y-105809133D02*
X84316666Y-105875800D01*
X84316666Y-105875800D02*
X84283333Y-106009133D01*
X84283333Y-106009133D02*
X84283333Y-106109133D01*
X84283333Y-106109133D02*
X84316666Y-106242466D01*
X84316666Y-106242466D02*
X84350000Y-106309133D01*
X84350000Y-106309133D02*
X84416666Y-106375800D01*
X84416666Y-106375800D02*
X84516666Y-106409133D01*
X84516666Y-106409133D02*
X84583333Y-106409133D01*
X84583333Y-106409133D02*
X84683333Y-106375800D01*
X84683333Y-106375800D02*
X84716666Y-106342466D01*
X84716666Y-106342466D02*
X84716666Y-106109133D01*
X84716666Y-106109133D02*
X84583333Y-106109133D01*
X101733333Y-103142466D02*
X102266667Y-103142466D01*
X102000000Y-103409133D02*
X102000000Y-102875800D01*
X81666666Y-106409133D02*
X81666666Y-105709133D01*
X81666666Y-105709133D02*
X81933333Y-105709133D01*
X81933333Y-105709133D02*
X82000000Y-105742466D01*
X82000000Y-105742466D02*
X82033333Y-105775800D01*
X82033333Y-105775800D02*
X82066666Y-105842466D01*
X82066666Y-105842466D02*
X82066666Y-105942466D01*
X82066666Y-105942466D02*
X82033333Y-106009133D01*
X82033333Y-106009133D02*
X82000000Y-106042466D01*
X82000000Y-106042466D02*
X81933333Y-106075800D01*
X81933333Y-106075800D02*
X81666666Y-106075800D01*
X82766666Y-106342466D02*
X82733333Y-106375800D01*
X82733333Y-106375800D02*
X82633333Y-106409133D01*
X82633333Y-106409133D02*
X82566666Y-106409133D01*
X82566666Y-106409133D02*
X82466666Y-106375800D01*
X82466666Y-106375800D02*
X82400000Y-106309133D01*
X82400000Y-106309133D02*
X82366666Y-106242466D01*
X82366666Y-106242466D02*
X82333333Y-106109133D01*
X82333333Y-106109133D02*
X82333333Y-106009133D01*
X82333333Y-106009133D02*
X82366666Y-105875800D01*
X82366666Y-105875800D02*
X82400000Y-105809133D01*
X82400000Y-105809133D02*
X82466666Y-105742466D01*
X82466666Y-105742466D02*
X82566666Y-105709133D01*
X82566666Y-105709133D02*
X82633333Y-105709133D01*
X82633333Y-105709133D02*
X82733333Y-105742466D01*
X82733333Y-105742466D02*
X82766666Y-105775800D01*
X83300000Y-106042466D02*
X83066666Y-106042466D01*
X83066666Y-106409133D02*
X83066666Y-105709133D01*
X83066666Y-105709133D02*
X83400000Y-105709133D01*
X83733333Y-103142466D02*
X84266667Y-103142466D01*
X84000000Y-103409133D02*
X84000000Y-102875800D01*
X120042466Y-91733333D02*
X120042466Y-91966666D01*
X120409133Y-91966666D02*
X119709133Y-91966666D01*
X119709133Y-91966666D02*
X119709133Y-91633333D01*
X120375800Y-91399999D02*
X120409133Y-91299999D01*
X120409133Y-91299999D02*
X120409133Y-91133333D01*
X120409133Y-91133333D02*
X120375800Y-91066666D01*
X120375800Y-91066666D02*
X120342466Y-91033333D01*
X120342466Y-91033333D02*
X120275800Y-90999999D01*
X120275800Y-90999999D02*
X120209133Y-90999999D01*
X120209133Y-90999999D02*
X120142466Y-91033333D01*
X120142466Y-91033333D02*
X120109133Y-91066666D01*
X120109133Y-91066666D02*
X120075800Y-91133333D01*
X120075800Y-91133333D02*
X120042466Y-91266666D01*
X120042466Y-91266666D02*
X120009133Y-91333333D01*
X120009133Y-91333333D02*
X119975800Y-91366666D01*
X119975800Y-91366666D02*
X119909133Y-91399999D01*
X119909133Y-91399999D02*
X119842466Y-91399999D01*
X119842466Y-91399999D02*
X119775800Y-91366666D01*
X119775800Y-91366666D02*
X119742466Y-91333333D01*
X119742466Y-91333333D02*
X119709133Y-91266666D01*
X119709133Y-91266666D02*
X119709133Y-91099999D01*
X119709133Y-91099999D02*
X119742466Y-90999999D01*
D11*
X100017731Y-86594295D02*
X100017731Y-87165723D01*
X100017731Y-87165723D02*
X99979636Y-87280009D01*
X99979636Y-87280009D02*
X99903445Y-87356200D01*
X99903445Y-87356200D02*
X99789160Y-87394295D01*
X99789160Y-87394295D02*
X99712969Y-87394295D01*
X100779636Y-87394295D02*
X100398684Y-87394295D01*
X100398684Y-87394295D02*
X100398684Y-86594295D01*
X101503446Y-87318104D02*
X101465350Y-87356200D01*
X101465350Y-87356200D02*
X101351065Y-87394295D01*
X101351065Y-87394295D02*
X101274874Y-87394295D01*
X101274874Y-87394295D02*
X101160588Y-87356200D01*
X101160588Y-87356200D02*
X101084398Y-87280009D01*
X101084398Y-87280009D02*
X101046303Y-87203819D01*
X101046303Y-87203819D02*
X101008207Y-87051438D01*
X101008207Y-87051438D02*
X101008207Y-86937152D01*
X101008207Y-86937152D02*
X101046303Y-86784771D01*
X101046303Y-86784771D02*
X101084398Y-86708580D01*
X101084398Y-86708580D02*
X101160588Y-86632390D01*
X101160588Y-86632390D02*
X101274874Y-86594295D01*
X101274874Y-86594295D02*
X101351065Y-86594295D01*
X101351065Y-86594295D02*
X101465350Y-86632390D01*
X101465350Y-86632390D02*
X101503446Y-86670485D01*
X102074874Y-86594295D02*
X102074874Y-87165723D01*
X102074874Y-87165723D02*
X102036779Y-87280009D01*
X102036779Y-87280009D02*
X101960588Y-87356200D01*
X101960588Y-87356200D02*
X101846303Y-87394295D01*
X101846303Y-87394295D02*
X101770112Y-87394295D01*
X102836779Y-87394295D02*
X102455827Y-87394295D01*
X102455827Y-87394295D02*
X102455827Y-86594295D01*
X103560589Y-87318104D02*
X103522493Y-87356200D01*
X103522493Y-87356200D02*
X103408208Y-87394295D01*
X103408208Y-87394295D02*
X103332017Y-87394295D01*
X103332017Y-87394295D02*
X103217731Y-87356200D01*
X103217731Y-87356200D02*
X103141541Y-87280009D01*
X103141541Y-87280009D02*
X103103446Y-87203819D01*
X103103446Y-87203819D02*
X103065350Y-87051438D01*
X103065350Y-87051438D02*
X103065350Y-86937152D01*
X103065350Y-86937152D02*
X103103446Y-86784771D01*
X103103446Y-86784771D02*
X103141541Y-86708580D01*
X103141541Y-86708580D02*
X103217731Y-86632390D01*
X103217731Y-86632390D02*
X103332017Y-86594295D01*
X103332017Y-86594295D02*
X103408208Y-86594295D01*
X103408208Y-86594295D02*
X103522493Y-86632390D01*
X103522493Y-86632390D02*
X103560589Y-86670485D01*
X104132017Y-86594295D02*
X104132017Y-87165723D01*
X104132017Y-87165723D02*
X104093922Y-87280009D01*
X104093922Y-87280009D02*
X104017731Y-87356200D01*
X104017731Y-87356200D02*
X103903446Y-87394295D01*
X103903446Y-87394295D02*
X103827255Y-87394295D01*
X104893922Y-87394295D02*
X104512970Y-87394295D01*
X104512970Y-87394295D02*
X104512970Y-86594295D01*
X105617732Y-87318104D02*
X105579636Y-87356200D01*
X105579636Y-87356200D02*
X105465351Y-87394295D01*
X105465351Y-87394295D02*
X105389160Y-87394295D01*
X105389160Y-87394295D02*
X105274874Y-87356200D01*
X105274874Y-87356200D02*
X105198684Y-87280009D01*
X105198684Y-87280009D02*
X105160589Y-87203819D01*
X105160589Y-87203819D02*
X105122493Y-87051438D01*
X105122493Y-87051438D02*
X105122493Y-86937152D01*
X105122493Y-86937152D02*
X105160589Y-86784771D01*
X105160589Y-86784771D02*
X105198684Y-86708580D01*
X105198684Y-86708580D02*
X105274874Y-86632390D01*
X105274874Y-86632390D02*
X105389160Y-86594295D01*
X105389160Y-86594295D02*
X105465351Y-86594295D01*
X105465351Y-86594295D02*
X105579636Y-86632390D01*
X105579636Y-86632390D02*
X105617732Y-86670485D01*
X106189160Y-86594295D02*
X106189160Y-87165723D01*
X106189160Y-87165723D02*
X106151065Y-87280009D01*
X106151065Y-87280009D02*
X106074874Y-87356200D01*
X106074874Y-87356200D02*
X105960589Y-87394295D01*
X105960589Y-87394295D02*
X105884398Y-87394295D01*
X106951065Y-87394295D02*
X106570113Y-87394295D01*
X106570113Y-87394295D02*
X106570113Y-86594295D01*
X107674875Y-87318104D02*
X107636779Y-87356200D01*
X107636779Y-87356200D02*
X107522494Y-87394295D01*
X107522494Y-87394295D02*
X107446303Y-87394295D01*
X107446303Y-87394295D02*
X107332017Y-87356200D01*
X107332017Y-87356200D02*
X107255827Y-87280009D01*
X107255827Y-87280009D02*
X107217732Y-87203819D01*
X107217732Y-87203819D02*
X107179636Y-87051438D01*
X107179636Y-87051438D02*
X107179636Y-86937152D01*
X107179636Y-86937152D02*
X107217732Y-86784771D01*
X107217732Y-86784771D02*
X107255827Y-86708580D01*
X107255827Y-86708580D02*
X107332017Y-86632390D01*
X107332017Y-86632390D02*
X107446303Y-86594295D01*
X107446303Y-86594295D02*
X107522494Y-86594295D01*
X107522494Y-86594295D02*
X107636779Y-86632390D01*
X107636779Y-86632390D02*
X107674875Y-86670485D01*
D10*
X84183333Y-100742466D02*
X84116666Y-100709133D01*
X84116666Y-100709133D02*
X84016666Y-100709133D01*
X84016666Y-100709133D02*
X83916666Y-100742466D01*
X83916666Y-100742466D02*
X83850000Y-100809133D01*
X83850000Y-100809133D02*
X83816666Y-100875800D01*
X83816666Y-100875800D02*
X83783333Y-101009133D01*
X83783333Y-101009133D02*
X83783333Y-101109133D01*
X83783333Y-101109133D02*
X83816666Y-101242466D01*
X83816666Y-101242466D02*
X83850000Y-101309133D01*
X83850000Y-101309133D02*
X83916666Y-101375800D01*
X83916666Y-101375800D02*
X84016666Y-101409133D01*
X84016666Y-101409133D02*
X84083333Y-101409133D01*
X84083333Y-101409133D02*
X84183333Y-101375800D01*
X84183333Y-101375800D02*
X84216666Y-101342466D01*
X84216666Y-101342466D02*
X84216666Y-101109133D01*
X84216666Y-101109133D02*
X84083333Y-101109133D01*
X93409133Y-92267544D02*
X92709133Y-92267544D01*
X93042466Y-92267544D02*
X93042466Y-91867544D01*
X93409133Y-91867544D02*
X92709133Y-91867544D01*
X93042466Y-91534211D02*
X93042466Y-91300878D01*
X93409133Y-91200878D02*
X93409133Y-91534211D01*
X93409133Y-91534211D02*
X92709133Y-91534211D01*
X92709133Y-91534211D02*
X92709133Y-91200878D01*
X92709133Y-90767545D02*
X92709133Y-90700878D01*
X92709133Y-90700878D02*
X92742466Y-90634211D01*
X92742466Y-90634211D02*
X92775800Y-90600878D01*
X92775800Y-90600878D02*
X92842466Y-90567545D01*
X92842466Y-90567545D02*
X92975800Y-90534211D01*
X92975800Y-90534211D02*
X93142466Y-90534211D01*
X93142466Y-90534211D02*
X93275800Y-90567545D01*
X93275800Y-90567545D02*
X93342466Y-90600878D01*
X93342466Y-90600878D02*
X93375800Y-90634211D01*
X93375800Y-90634211D02*
X93409133Y-90700878D01*
X93409133Y-90700878D02*
X93409133Y-90767545D01*
X93409133Y-90767545D02*
X93375800Y-90834211D01*
X93375800Y-90834211D02*
X93342466Y-90867545D01*
X93342466Y-90867545D02*
X93275800Y-90900878D01*
X93275800Y-90900878D02*
X93142466Y-90934211D01*
X93142466Y-90934211D02*
X92975800Y-90934211D01*
X92975800Y-90934211D02*
X92842466Y-90900878D01*
X92842466Y-90900878D02*
X92775800Y-90867545D01*
X92775800Y-90867545D02*
X92742466Y-90834211D01*
X92742466Y-90834211D02*
X92709133Y-90767545D01*
X95050000Y-96409133D02*
X94716666Y-96409133D01*
X94716666Y-96409133D02*
X94716666Y-95709133D01*
X95283333Y-96042466D02*
X95516667Y-96042466D01*
X95616667Y-96409133D02*
X95283333Y-96409133D01*
X95283333Y-96409133D02*
X95283333Y-95709133D01*
X95283333Y-95709133D02*
X95616667Y-95709133D01*
X95916666Y-96409133D02*
X95916666Y-95709133D01*
X95916666Y-95709133D02*
X96083333Y-95709133D01*
X96083333Y-95709133D02*
X96183333Y-95742466D01*
X96183333Y-95742466D02*
X96250000Y-95809133D01*
X96250000Y-95809133D02*
X96283333Y-95875800D01*
X96283333Y-95875800D02*
X96316666Y-96009133D01*
X96316666Y-96009133D02*
X96316666Y-96109133D01*
X96316666Y-96109133D02*
X96283333Y-96242466D01*
X96283333Y-96242466D02*
X96250000Y-96309133D01*
X96250000Y-96309133D02*
X96183333Y-96375800D01*
X96183333Y-96375800D02*
X96083333Y-96409133D01*
X96083333Y-96409133D02*
X95916666Y-96409133D01*
X99409133Y-95333333D02*
X98709133Y-95333333D01*
X98709133Y-95333333D02*
X98709133Y-95066666D01*
X98709133Y-95066666D02*
X98742466Y-95000000D01*
X98742466Y-95000000D02*
X98775800Y-94966666D01*
X98775800Y-94966666D02*
X98842466Y-94933333D01*
X98842466Y-94933333D02*
X98942466Y-94933333D01*
X98942466Y-94933333D02*
X99009133Y-94966666D01*
X99009133Y-94966666D02*
X99042466Y-95000000D01*
X99042466Y-95000000D02*
X99075800Y-95066666D01*
X99075800Y-95066666D02*
X99075800Y-95333333D01*
X99342466Y-94233333D02*
X99375800Y-94266666D01*
X99375800Y-94266666D02*
X99409133Y-94366666D01*
X99409133Y-94366666D02*
X99409133Y-94433333D01*
X99409133Y-94433333D02*
X99375800Y-94533333D01*
X99375800Y-94533333D02*
X99309133Y-94600000D01*
X99309133Y-94600000D02*
X99242466Y-94633333D01*
X99242466Y-94633333D02*
X99109133Y-94666666D01*
X99109133Y-94666666D02*
X99009133Y-94666666D01*
X99009133Y-94666666D02*
X98875800Y-94633333D01*
X98875800Y-94633333D02*
X98809133Y-94600000D01*
X98809133Y-94600000D02*
X98742466Y-94533333D01*
X98742466Y-94533333D02*
X98709133Y-94433333D01*
X98709133Y-94433333D02*
X98709133Y-94366666D01*
X98709133Y-94366666D02*
X98742466Y-94266666D01*
X98742466Y-94266666D02*
X98775800Y-94233333D01*
X99042466Y-93700000D02*
X99042466Y-93933333D01*
X99409133Y-93933333D02*
X98709133Y-93933333D01*
X98709133Y-93933333D02*
X98709133Y-93600000D01*
X93183333Y-100742466D02*
X93116666Y-100709133D01*
X93116666Y-100709133D02*
X93016666Y-100709133D01*
X93016666Y-100709133D02*
X92916666Y-100742466D01*
X92916666Y-100742466D02*
X92850000Y-100809133D01*
X92850000Y-100809133D02*
X92816666Y-100875800D01*
X92816666Y-100875800D02*
X92783333Y-101009133D01*
X92783333Y-101009133D02*
X92783333Y-101109133D01*
X92783333Y-101109133D02*
X92816666Y-101242466D01*
X92816666Y-101242466D02*
X92850000Y-101309133D01*
X92850000Y-101309133D02*
X92916666Y-101375800D01*
X92916666Y-101375800D02*
X93016666Y-101409133D01*
X93016666Y-101409133D02*
X93083333Y-101409133D01*
X93083333Y-101409133D02*
X93183333Y-101375800D01*
X93183333Y-101375800D02*
X93216666Y-101342466D01*
X93216666Y-101342466D02*
X93216666Y-101109133D01*
X93216666Y-101109133D02*
X93083333Y-101109133D01*
D12*
%TO.C,TH0*%
X110435000Y-116060000D02*
X109435000Y-117060000D01*
X110435000Y-106940000D02*
X110435000Y-116060000D01*
X110435000Y-106940000D02*
X108010000Y-106940000D01*
X109435000Y-117060000D02*
X101565000Y-117060000D01*
X105990000Y-106940000D02*
X104651767Y-106940000D01*
X101565000Y-117060000D02*
X100565000Y-116060000D01*
X100565000Y-116060000D02*
X100565000Y-106940000D01*
X100565000Y-106940000D02*
X103348233Y-106940000D01*
%TO.C,PCF2*%
X79138263Y-106626417D02*
X79138263Y-107876417D01*
X79438263Y-106926417D02*
X79438263Y-111646417D01*
X79438263Y-108236417D02*
X80048263Y-108236417D01*
X79438263Y-109536417D02*
X80048263Y-109536417D01*
X79438263Y-111646417D02*
X85558263Y-111646417D01*
X80048263Y-107536417D02*
X80048263Y-111036417D01*
X80048263Y-111036417D02*
X84948263Y-111036417D01*
X80388263Y-106626417D02*
X79138263Y-106626417D01*
X80898263Y-106726417D02*
X80898263Y-106926417D01*
X81198263Y-106726417D02*
X80898263Y-106726417D01*
X81198263Y-106826417D02*
X80898263Y-106826417D01*
X81198263Y-106926417D02*
X81198263Y-106726417D01*
X81998263Y-106926417D02*
X81998263Y-107536417D01*
X81998263Y-107536417D02*
X80048263Y-107536417D01*
X82398263Y-110536417D02*
X82598263Y-110536417D01*
X82398263Y-111036417D02*
X82398263Y-110536417D01*
X82498263Y-111036417D02*
X82498263Y-110536417D01*
X82598263Y-110536417D02*
X82598263Y-111036417D01*
X82998263Y-107536417D02*
X82998263Y-106926417D01*
X84948263Y-107536417D02*
X82998263Y-107536417D01*
X84948263Y-111036417D02*
X84948263Y-107536417D01*
X85558263Y-106926417D02*
X79438263Y-106926417D01*
X85558263Y-108236417D02*
X84948263Y-108236417D01*
X85558263Y-109536417D02*
X84948263Y-109536417D01*
X85558263Y-111646417D02*
X85558263Y-106926417D01*
%TO.C,ESTEP1*%
X88660767Y-86323223D02*
X87776884Y-85439340D01*
X88236503Y-86323223D02*
X84898959Y-82985679D01*
X87310193Y-85396913D02*
X86878858Y-85828249D01*
X86390955Y-84477675D02*
X85959619Y-84909010D01*
X84898959Y-82985679D02*
X77743039Y-90141600D01*
X87373833Y-86323223D02*
X84898959Y-83848350D01*
X84898959Y-83848350D02*
X78605709Y-90141600D01*
X87776884Y-87207107D02*
X88660767Y-86323223D01*
X87345549Y-87497021D02*
X87204127Y-87355599D01*
X87133417Y-87709153D02*
X87345549Y-87497021D01*
X87062706Y-87638442D02*
X87274838Y-87426310D01*
X86991995Y-87567731D02*
X87133417Y-87709153D01*
X86426310Y-88133417D02*
X85994975Y-87702082D01*
X85994975Y-87702082D02*
X87373833Y-86323223D01*
X83590812Y-85863604D02*
X83449390Y-86005025D01*
X83237258Y-85510051D02*
X83590812Y-85863604D01*
X83166548Y-85580761D02*
X83520101Y-85934315D01*
X83449390Y-86005025D02*
X83095837Y-85651472D01*
X82176598Y-87277817D02*
X82035177Y-87419239D01*
X81823045Y-86924264D02*
X82176598Y-87277817D01*
X81752334Y-86994975D02*
X82105887Y-87348528D01*
X82035177Y-87419239D02*
X81681623Y-87065685D01*
X80762385Y-88692031D02*
X80620963Y-88833452D01*
X80408831Y-88338478D02*
X80762385Y-88692031D01*
X80338120Y-88409188D02*
X80691674Y-88762742D01*
X80620963Y-88833452D02*
X80267410Y-88479899D01*
X82459441Y-91237615D02*
X82890776Y-91668951D01*
X81080583Y-92616474D02*
X82459441Y-91237615D01*
X78605709Y-90141600D02*
X81080583Y-92616474D01*
X81080583Y-93479144D02*
X88236503Y-86323223D01*
X80154273Y-92552834D02*
X80585608Y-92121499D01*
X79235034Y-91633595D02*
X79666369Y-91202260D01*
X77743039Y-90141600D02*
X81080583Y-93479144D01*
%TO.C,HEF1*%
X102340000Y-105360000D02*
X103590000Y-105360000D01*
X102640000Y-105060000D02*
X107360000Y-105060000D01*
X103950000Y-105060000D02*
X103950000Y-104450000D01*
X105250000Y-105060000D02*
X105250000Y-104450000D01*
X107360000Y-105060000D02*
X107360000Y-96940000D01*
X103250000Y-104450000D02*
X106750000Y-104450000D01*
X106750000Y-104450000D02*
X106750000Y-97550000D01*
X102340000Y-104110000D02*
X102340000Y-105360000D01*
X102440000Y-103600000D02*
X102640000Y-103600000D01*
X102440000Y-103300000D02*
X102440000Y-103600000D01*
X102540000Y-103300000D02*
X102540000Y-103600000D01*
X102640000Y-103300000D02*
X102440000Y-103300000D01*
X102640000Y-102500000D02*
X103250000Y-102500000D01*
X103250000Y-102500000D02*
X103250000Y-104450000D01*
X106250000Y-102100000D02*
X106250000Y-101900000D01*
X106750000Y-102100000D02*
X106250000Y-102100000D01*
X106750000Y-102000000D02*
X106250000Y-102000000D01*
X106250000Y-101900000D02*
X106750000Y-101900000D01*
X106250000Y-100100000D02*
X106250000Y-99900000D01*
X106750000Y-100100000D02*
X106250000Y-100100000D01*
X106750000Y-100000000D02*
X106250000Y-100000000D01*
X106250000Y-99900000D02*
X106750000Y-99900000D01*
X103250000Y-99500000D02*
X102640000Y-99500000D01*
X103250000Y-97550000D02*
X103250000Y-99500000D01*
X106750000Y-97550000D02*
X103250000Y-97550000D01*
X102640000Y-96940000D02*
X102640000Y-105060000D01*
X103950000Y-96940000D02*
X103950000Y-97550000D01*
X105250000Y-96940000D02*
X105250000Y-97550000D01*
X107360000Y-96940000D02*
X102640000Y-96940000D01*
%TO.C,PCF1*%
X114140000Y-106590000D02*
X114140000Y-107840000D01*
X114440000Y-106890000D02*
X114440000Y-111610000D01*
X114440000Y-108200000D02*
X115050000Y-108200000D01*
X114440000Y-109500000D02*
X115050000Y-109500000D01*
X114440000Y-111610000D02*
X120560000Y-111610000D01*
X115050000Y-107500000D02*
X115050000Y-111000000D01*
X115050000Y-111000000D02*
X119950000Y-111000000D01*
X115390000Y-106590000D02*
X114140000Y-106590000D01*
X115900000Y-106690000D02*
X115900000Y-106890000D01*
X116200000Y-106690000D02*
X115900000Y-106690000D01*
X116200000Y-106790000D02*
X115900000Y-106790000D01*
X116200000Y-106890000D02*
X116200000Y-106690000D01*
X117000000Y-106890000D02*
X117000000Y-107500000D01*
X117000000Y-107500000D02*
X115050000Y-107500000D01*
X117400000Y-110500000D02*
X117600000Y-110500000D01*
X117400000Y-111000000D02*
X117400000Y-110500000D01*
X117500000Y-111000000D02*
X117500000Y-110500000D01*
X117600000Y-110500000D02*
X117600000Y-111000000D01*
X118000000Y-107500000D02*
X118000000Y-106890000D01*
X119950000Y-107500000D02*
X118000000Y-107500000D01*
X119950000Y-111000000D02*
X119950000Y-107500000D01*
X120560000Y-106890000D02*
X114440000Y-106890000D01*
X120560000Y-108200000D02*
X119950000Y-108200000D01*
X120560000Y-109500000D02*
X119950000Y-109500000D01*
X120560000Y-111610000D02*
X120560000Y-106890000D01*
%TO.C,LED1*%
X93340000Y-105360000D02*
X94590000Y-105360000D01*
X93640000Y-105060000D02*
X98360000Y-105060000D01*
X94950000Y-105060000D02*
X94950000Y-104450000D01*
X96250000Y-105060000D02*
X96250000Y-104450000D01*
X98360000Y-105060000D02*
X98360000Y-96940000D01*
X94250000Y-104450000D02*
X97750000Y-104450000D01*
X97750000Y-104450000D02*
X97750000Y-97550000D01*
X93340000Y-104110000D02*
X93340000Y-105360000D01*
X93440000Y-103600000D02*
X93640000Y-103600000D01*
X93440000Y-103300000D02*
X93440000Y-103600000D01*
X93540000Y-103300000D02*
X93540000Y-103600000D01*
X93640000Y-103300000D02*
X93440000Y-103300000D01*
X93640000Y-102500000D02*
X94250000Y-102500000D01*
X94250000Y-102500000D02*
X94250000Y-104450000D01*
X97250000Y-102100000D02*
X97250000Y-101900000D01*
X97750000Y-102100000D02*
X97250000Y-102100000D01*
X97750000Y-102000000D02*
X97250000Y-102000000D01*
X97250000Y-101900000D02*
X97750000Y-101900000D01*
X97250000Y-100100000D02*
X97250000Y-99900000D01*
X97750000Y-100100000D02*
X97250000Y-100100000D01*
X97750000Y-100000000D02*
X97250000Y-100000000D01*
X97250000Y-99900000D02*
X97750000Y-99900000D01*
X94250000Y-99500000D02*
X93640000Y-99500000D01*
X94250000Y-97550000D02*
X94250000Y-99500000D01*
X97750000Y-97550000D02*
X94250000Y-97550000D01*
X93640000Y-96940000D02*
X93640000Y-105060000D01*
X94950000Y-96940000D02*
X94950000Y-97550000D01*
X96250000Y-96940000D02*
X96250000Y-97550000D01*
X98360000Y-96940000D02*
X93640000Y-96940000D01*
%TO.C,MCU1*%
X90815000Y-83470000D02*
X91815000Y-82470000D01*
X90815000Y-92600000D02*
X90815000Y-83470000D01*
X91815000Y-82470000D02*
X115185000Y-82470000D01*
X115185000Y-82470000D02*
X116185000Y-83470000D01*
X116185000Y-83470000D02*
X116185000Y-92600000D01*
X116185000Y-92600000D02*
X90815000Y-92600000D01*
%TO.C,HE0*%
X99435000Y-116060000D02*
X98435000Y-117060000D01*
X99435000Y-106940000D02*
X99435000Y-116060000D01*
X99435000Y-106940000D02*
X97010000Y-106940000D01*
X98435000Y-117060000D02*
X90565000Y-117060000D01*
X94990000Y-106940000D02*
X93651767Y-106940000D01*
X90565000Y-117060000D02*
X89565000Y-116060000D01*
X89565000Y-116060000D02*
X89565000Y-106940000D01*
X89565000Y-106940000D02*
X92348233Y-106940000D01*
%TO.C,PCF3*%
X121231785Y-106636417D02*
X122231785Y-106636417D01*
X121231785Y-106636417D02*
X121231785Y-107636417D01*
X124941785Y-106926417D02*
X121521785Y-106926417D01*
X121521785Y-106926417D02*
X121521785Y-111396417D01*
X123581785Y-107236417D02*
X123581785Y-107436417D01*
X122781785Y-107236417D02*
X123581785Y-107236417D01*
X124431785Y-107436417D02*
X124431785Y-109161417D01*
X123581785Y-107436417D02*
X124431785Y-107436417D01*
X122781785Y-107436417D02*
X122781785Y-107236417D01*
X122031785Y-107436417D02*
X122781785Y-107436417D01*
X122031785Y-109161417D02*
X122031785Y-107436417D01*
X122031785Y-109161417D02*
X122031785Y-110886417D01*
X124431785Y-110886417D02*
X124431785Y-109161417D01*
X123581785Y-110886417D02*
X124431785Y-110886417D01*
X122781785Y-110886417D02*
X122781785Y-111086417D01*
X122031785Y-110886417D02*
X122781785Y-110886417D01*
X123581785Y-111086417D02*
X123581785Y-110886417D01*
X122781785Y-111086417D02*
X123581785Y-111086417D01*
X124941785Y-111396417D02*
X124941785Y-106926417D01*
X121521785Y-111396417D02*
X124941785Y-111396417D01*
%TO.C,PROBE1*%
X84340000Y-105360000D02*
X85590000Y-105360000D01*
X84640000Y-105060000D02*
X89360000Y-105060000D01*
X85950000Y-105060000D02*
X85950000Y-104450000D01*
X87250000Y-105060000D02*
X87250000Y-104450000D01*
X89360000Y-105060000D02*
X89360000Y-96940000D01*
X85250000Y-104450000D02*
X88750000Y-104450000D01*
X88750000Y-104450000D02*
X88750000Y-97550000D01*
X84340000Y-104110000D02*
X84340000Y-105360000D01*
X84440000Y-103600000D02*
X84640000Y-103600000D01*
X84440000Y-103300000D02*
X84440000Y-103600000D01*
X84540000Y-103300000D02*
X84540000Y-103600000D01*
X84640000Y-103300000D02*
X84440000Y-103300000D01*
X84640000Y-102500000D02*
X85250000Y-102500000D01*
X85250000Y-102500000D02*
X85250000Y-104450000D01*
X88250000Y-102100000D02*
X88250000Y-101900000D01*
X88750000Y-102100000D02*
X88250000Y-102100000D01*
X88750000Y-102000000D02*
X88250000Y-102000000D01*
X88250000Y-101900000D02*
X88750000Y-101900000D01*
X88250000Y-100100000D02*
X88250000Y-99900000D01*
X88750000Y-100100000D02*
X88250000Y-100100000D01*
X88750000Y-100000000D02*
X88250000Y-100000000D01*
X88250000Y-99900000D02*
X88750000Y-99900000D01*
X85250000Y-99500000D02*
X84640000Y-99500000D01*
X85250000Y-97550000D02*
X85250000Y-99500000D01*
X88750000Y-97550000D02*
X85250000Y-97550000D01*
X84640000Y-96940000D02*
X84640000Y-105060000D01*
X85950000Y-96940000D02*
X85950000Y-97550000D01*
X87250000Y-96940000D02*
X87250000Y-97550000D01*
X89360000Y-96940000D02*
X84640000Y-96940000D01*
%TO.C,FS1*%
X111340000Y-105360000D02*
X112590000Y-105360000D01*
X111640000Y-105060000D02*
X116360000Y-105060000D01*
X112950000Y-105060000D02*
X112950000Y-104450000D01*
X114250000Y-105060000D02*
X114250000Y-104450000D01*
X116360000Y-105060000D02*
X116360000Y-96940000D01*
X112250000Y-104450000D02*
X115750000Y-104450000D01*
X115750000Y-104450000D02*
X115750000Y-97550000D01*
X111340000Y-104110000D02*
X111340000Y-105360000D01*
X111440000Y-103600000D02*
X111640000Y-103600000D01*
X111440000Y-103300000D02*
X111440000Y-103600000D01*
X111540000Y-103300000D02*
X111540000Y-103600000D01*
X111640000Y-103300000D02*
X111440000Y-103300000D01*
X111640000Y-102500000D02*
X112250000Y-102500000D01*
X112250000Y-102500000D02*
X112250000Y-104450000D01*
X115250000Y-102100000D02*
X115250000Y-101900000D01*
X115750000Y-102100000D02*
X115250000Y-102100000D01*
X115750000Y-102000000D02*
X115250000Y-102000000D01*
X115250000Y-101900000D02*
X115750000Y-101900000D01*
X115250000Y-100100000D02*
X115250000Y-99900000D01*
X115750000Y-100100000D02*
X115250000Y-100100000D01*
X115750000Y-100000000D02*
X115250000Y-100000000D01*
X115250000Y-99900000D02*
X115750000Y-99900000D01*
X112250000Y-99500000D02*
X111640000Y-99500000D01*
X112250000Y-97550000D02*
X112250000Y-99500000D01*
X115750000Y-97550000D02*
X112250000Y-97550000D01*
X111640000Y-96940000D02*
X111640000Y-105060000D01*
X112950000Y-96940000D02*
X112950000Y-97550000D01*
X114250000Y-96940000D02*
X114250000Y-97550000D01*
X116360000Y-96940000D02*
X111640000Y-96940000D01*
%TO.C,PCF4*%
X74877718Y-106676964D02*
X75877718Y-106676964D01*
X74877718Y-106676964D02*
X74877718Y-107676964D01*
X78587718Y-106966964D02*
X75167718Y-106966964D01*
X75167718Y-106966964D02*
X75167718Y-111436964D01*
X77227718Y-107276964D02*
X77227718Y-107476964D01*
X76427718Y-107276964D02*
X77227718Y-107276964D01*
X78077718Y-107476964D02*
X78077718Y-109201964D01*
X77227718Y-107476964D02*
X78077718Y-107476964D01*
X76427718Y-107476964D02*
X76427718Y-107276964D01*
X75677718Y-107476964D02*
X76427718Y-107476964D01*
X75677718Y-109201964D02*
X75677718Y-107476964D01*
X75677718Y-109201964D02*
X75677718Y-110926964D01*
X78077718Y-110926964D02*
X78077718Y-109201964D01*
X77227718Y-110926964D02*
X78077718Y-110926964D01*
X76427718Y-110926964D02*
X76427718Y-111126964D01*
X75677718Y-110926964D02*
X76427718Y-110926964D01*
X77227718Y-111126964D02*
X77227718Y-110926964D01*
X76427718Y-111126964D02*
X77227718Y-111126964D01*
X78587718Y-111436964D02*
X78587718Y-106966964D01*
X75167718Y-111436964D02*
X78587718Y-111436964D01*
%TO.C,MCU2*%
X117815000Y-83555000D02*
X118815000Y-82555000D01*
X117815000Y-92685000D02*
X117815000Y-83555000D01*
X118815000Y-82555000D02*
X124185000Y-82555000D01*
X124185000Y-82555000D02*
X125185000Y-83555000D01*
X125185000Y-83555000D02*
X125185000Y-92685000D01*
X125185000Y-92685000D02*
X117815000Y-92685000D01*
%TD*%
%LPC*%
D13*
%TO.C,TH0*%
X105500000Y-112350000D03*
D14*
X107000000Y-108030000D03*
D15*
X104000000Y-108030000D03*
%TD*%
D16*
%TO.C,PCF2*%
X81498263Y-108736417D03*
D17*
X83498263Y-108736417D03*
%TD*%
D18*
%TO.C,H1*%
X78075000Y-100000000D03*
%TD*%
D19*
%TO.C,ESTEP1*%
X85500000Y-86500000D03*
D20*
X84085786Y-87914214D03*
X82671573Y-89328427D03*
X81257359Y-90742641D03*
%TD*%
D21*
%TO.C,HEF1*%
X104450000Y-103000000D03*
D22*
X104450000Y-101000000D03*
X104450000Y-99000000D03*
%TD*%
D18*
%TO.C,H2*%
X121925000Y-100000000D03*
%TD*%
D16*
%TO.C,PCF1*%
X116500000Y-108700000D03*
D17*
X118500000Y-108700000D03*
%TD*%
D21*
%TO.C,LED1*%
X95450000Y-103000000D03*
D22*
X95450000Y-101000000D03*
X95450000Y-99000000D03*
%TD*%
D13*
%TO.C,MCU1*%
X96660000Y-87180000D03*
X110360000Y-87180000D03*
D23*
X94500000Y-91500000D03*
D24*
X97500000Y-91500000D03*
X100500000Y-91500000D03*
X103500000Y-91500000D03*
X106500000Y-91500000D03*
X109500000Y-91500000D03*
X112500000Y-91500000D03*
X94500000Y-94500000D03*
X97500000Y-94500000D03*
X100500000Y-94500000D03*
X103500000Y-94500000D03*
X106500000Y-94500000D03*
X109500000Y-94500000D03*
X112500000Y-94500000D03*
%TD*%
D13*
%TO.C,HE0*%
X94500000Y-112350000D03*
D14*
X96000000Y-108030000D03*
D15*
X93000000Y-108030000D03*
%TD*%
D25*
%TO.C,PCF3*%
X122781785Y-108536417D03*
D26*
X122781785Y-109786417D03*
%TD*%
D21*
%TO.C,PROBE1*%
X86450000Y-103000000D03*
D22*
X86450000Y-101000000D03*
X86450000Y-99000000D03*
%TD*%
D21*
%TO.C,FS1*%
X113450000Y-103000000D03*
D22*
X113450000Y-101000000D03*
X113450000Y-99000000D03*
%TD*%
D25*
%TO.C,PCF4*%
X76427718Y-108576964D03*
D26*
X76427718Y-109826964D03*
%TD*%
D13*
%TO.C,MCU2*%
X121500000Y-87265000D03*
D23*
X121500000Y-91585000D03*
D24*
X121500000Y-94585000D03*
%TD*%
%LPD*%
M02*
