%TF.GenerationSoftware,KiCad,Pcbnew,7.0.5*%
%TF.CreationDate,2023-07-25T09:46:53+02:00*%
%TF.ProjectId,XOL Breakout,584f4c20-4272-4656-916b-6f75742e6b69,rev?*%
%TF.SameCoordinates,Original*%
%TF.FileFunction,Soldermask,Top*%
%TF.FilePolarity,Negative*%
%FSLAX46Y46*%
G04 Gerber Fmt 4.6, Leading zero omitted, Abs format (unit mm)*
G04 Created by KiCad (PCBNEW 7.0.5) date 2023-07-25 09:46:53*
%MOMM*%
%LPD*%
G01*
G04 APERTURE LIST*
G04 Aperture macros list*
%AMRoundRect*
0 Rectangle with rounded corners*
0 $1 Rounding radius*
0 $2 $3 $4 $5 $6 $7 $8 $9 X,Y pos of 4 corners*
0 Add a 4 corners polygon primitive as box body*
4,1,4,$2,$3,$4,$5,$6,$7,$8,$9,$2,$3,0*
0 Add four circle primitives for the rounded corners*
1,1,$1+$1,$2,$3*
1,1,$1+$1,$4,$5*
1,1,$1+$1,$6,$7*
1,1,$1+$1,$8,$9*
0 Add four rect primitives between the rounded corners*
20,1,$1+$1,$2,$3,$4,$5,0*
20,1,$1+$1,$4,$5,$6,$7,0*
20,1,$1+$1,$6,$7,$8,$9,0*
20,1,$1+$1,$8,$9,$2,$3,0*%
%AMHorizOval*
0 Thick line with rounded ends*
0 $1 width*
0 $2 $3 position (X,Y) of the first rounded end (center of the circle)*
0 $4 $5 position (X,Y) of the second rounded end (center of the circle)*
0 Add line between two ends*
20,1,$1,$2,$3,$4,$5,0*
0 Add two circle primitives to create the rounded ends*
1,1,$1,$2,$3*
1,1,$1,$4,$5*%
G04 Aperture macros list end*
%ADD10C,3.000000*%
%ADD11RoundRect,0.250001X0.499999X0.759999X-0.499999X0.759999X-0.499999X-0.759999X0.499999X-0.759999X0*%
%ADD12O,1.500000X2.020000*%
%ADD13RoundRect,0.250000X-0.350000X-0.625000X0.350000X-0.625000X0.350000X0.625000X-0.350000X0.625000X0*%
%ADD14O,1.200000X1.750000*%
%ADD15C,5.600000*%
%ADD16RoundRect,0.250000X-0.194454X0.689429X-0.689429X0.194454X0.194454X-0.689429X0.689429X-0.194454X0*%
%ADD17HorizOval,1.200000X-0.194454X0.194454X0.194454X-0.194454X0*%
%ADD18RoundRect,0.250000X0.625000X-0.350000X0.625000X0.350000X-0.625000X0.350000X-0.625000X-0.350000X0*%
%ADD19O,1.750000X1.200000*%
%ADD20RoundRect,0.250001X-0.499999X-0.499999X0.499999X-0.499999X0.499999X0.499999X-0.499999X0.499999X0*%
%ADD21C,1.500000*%
%ADD22RoundRect,0.200000X-0.450000X0.200000X-0.450000X-0.200000X0.450000X-0.200000X0.450000X0.200000X0*%
%ADD23O,1.300000X0.800000*%
G04 APERTURE END LIST*
D10*
%TO.C,TH0*%
X105500000Y-112350000D03*
D11*
X107000000Y-108030000D03*
D12*
X104000000Y-108030000D03*
%TD*%
D13*
%TO.C,PCF2*%
X81498263Y-108736417D03*
D14*
X83498263Y-108736417D03*
%TD*%
D15*
%TO.C,H1*%
X78075000Y-100000000D03*
%TD*%
D16*
%TO.C,ESTEP1*%
X85500000Y-86500000D03*
D17*
X84085786Y-87914214D03*
X82671573Y-89328427D03*
X81257359Y-90742641D03*
%TD*%
D18*
%TO.C,HEF1*%
X104450000Y-103000000D03*
D19*
X104450000Y-101000000D03*
X104450000Y-99000000D03*
%TD*%
D15*
%TO.C,H2*%
X121925000Y-100000000D03*
%TD*%
D13*
%TO.C,PCF1*%
X116500000Y-108700000D03*
D14*
X118500000Y-108700000D03*
%TD*%
D18*
%TO.C,LED1*%
X95450000Y-103000000D03*
D19*
X95450000Y-101000000D03*
X95450000Y-99000000D03*
%TD*%
D10*
%TO.C,MCU1*%
X96660000Y-87180000D03*
X110360000Y-87180000D03*
D20*
X94500000Y-91500000D03*
D21*
X97500000Y-91500000D03*
X100500000Y-91500000D03*
X103500000Y-91500000D03*
X106500000Y-91500000D03*
X109500000Y-91500000D03*
X112500000Y-91500000D03*
X94500000Y-94500000D03*
X97500000Y-94500000D03*
X100500000Y-94500000D03*
X103500000Y-94500000D03*
X106500000Y-94500000D03*
X109500000Y-94500000D03*
X112500000Y-94500000D03*
%TD*%
D10*
%TO.C,HE0*%
X94500000Y-112350000D03*
D11*
X96000000Y-108030000D03*
D12*
X93000000Y-108030000D03*
%TD*%
D22*
%TO.C,PCF3*%
X122781785Y-108536417D03*
D23*
X122781785Y-109786417D03*
%TD*%
D18*
%TO.C,PROBE1*%
X86450000Y-103000000D03*
D19*
X86450000Y-101000000D03*
X86450000Y-99000000D03*
%TD*%
D18*
%TO.C,FS1*%
X113450000Y-103000000D03*
D19*
X113450000Y-101000000D03*
X113450000Y-99000000D03*
%TD*%
D22*
%TO.C,PCF4*%
X76427718Y-108576964D03*
D23*
X76427718Y-109826964D03*
%TD*%
D10*
%TO.C,MCU2*%
X121500000Y-87265000D03*
D20*
X121500000Y-91585000D03*
D21*
X121500000Y-94585000D03*
%TD*%
M02*
