%TF.GenerationSoftware,KiCad,Pcbnew,7.0.5*%
%TF.CreationDate,2023-07-25T09:46:54+02:00*%
%TF.ProjectId,XOL Breakout,584f4c20-4272-4656-916b-6f75742e6b69,rev?*%
%TF.SameCoordinates,Original*%
%TF.FileFunction,Profile,NP*%
%FSLAX46Y46*%
G04 Gerber Fmt 4.6, Leading zero omitted, Abs format (unit mm)*
G04 Created by KiCad (PCBNEW 7.0.5) date 2023-07-25 09:46:54*
%MOMM*%
%LPD*%
G01*
G04 APERTURE LIST*
%TA.AperFunction,Profile*%
%ADD10C,0.200000*%
%TD*%
G04 APERTURE END LIST*
D10*
X88253835Y-84637031D02*
X85758866Y-82146341D01*
X76883807Y-89438001D02*
G75*
G03*
X76883840Y-91032032I797493J-796999D01*
G01*
X78450840Y-95440031D02*
G75*
G03*
X78555837Y-92695034I-1218940J1421131D01*
G01*
X124280131Y-112184244D02*
G75*
G03*
X125617000Y-110783117I-90031J1424244D01*
G01*
X84211862Y-82160085D02*
X76883840Y-89438034D01*
X123617904Y-81944315D02*
X100108781Y-81944315D01*
X92176839Y-81944339D02*
G75*
G03*
X90176839Y-83944315I-39J-1999961D01*
G01*
X76053916Y-96954616D02*
G75*
G03*
X74355341Y-100069527I2006784J-3114884D01*
G01*
X125617000Y-110783117D02*
X125617904Y-83944315D01*
X89597754Y-85167247D02*
G75*
G03*
X89766245Y-85075051I-102154J386747D01*
G01*
X89853470Y-84994897D02*
X89766245Y-85075051D01*
X76883840Y-91032032D02*
X78555837Y-92695034D01*
X85758912Y-82146292D02*
G75*
G03*
X84211862Y-82160085I-766212J-827108D01*
G01*
X88253798Y-84637054D02*
G75*
G03*
X89597756Y-85167256I1032502J648754D01*
G01*
X74355341Y-100069527D02*
X74360150Y-110840435D01*
X74360111Y-110840438D02*
G75*
G03*
X75802061Y-112186983I1460489J118638D01*
G01*
X89853491Y-84994920D02*
G75*
G03*
X90176839Y-84258575I-676691J736320D01*
G01*
X113449370Y-112206032D02*
X124209837Y-112206032D01*
X90176839Y-83944315D02*
X90176839Y-84258575D01*
X125617885Y-83944315D02*
G75*
G03*
X123617904Y-81944315I-1999985J15D01*
G01*
X75802061Y-112186983D02*
X86500610Y-112175033D01*
X124209837Y-112206032D02*
X124280131Y-112184251D01*
X100108781Y-81944315D02*
X92176839Y-81944315D01*
X78450842Y-95440033D02*
X76053936Y-96954647D01*
X86500610Y-112175033D02*
G75*
G03*
X113449370Y-112206032I13488330J12111963D01*
G01*
M02*
