%TF.GenerationSoftware,KiCad,Pcbnew,7.0.5*%
%TF.CreationDate,2023-07-25T09:46:54+02:00*%
%TF.ProjectId,XOL Breakout,584f4c20-4272-4656-916b-6f75742e6b69,rev?*%
%TF.SameCoordinates,Original*%
%TF.FileFunction,Legend,Bot*%
%TF.FilePolarity,Positive*%
%FSLAX46Y46*%
G04 Gerber Fmt 4.6, Leading zero omitted, Abs format (unit mm)*
G04 Created by KiCad (PCBNEW 7.0.5) date 2023-07-25 09:46:54*
%MOMM*%
%LPD*%
G01*
G04 APERTURE LIST*
G04 Aperture macros list*
%AMRoundRect*
0 Rectangle with rounded corners*
0 $1 Rounding radius*
0 $2 $3 $4 $5 $6 $7 $8 $9 X,Y pos of 4 corners*
0 Add a 4 corners polygon primitive as box body*
4,1,4,$2,$3,$4,$5,$6,$7,$8,$9,$2,$3,0*
0 Add four circle primitives for the rounded corners*
1,1,$1+$1,$2,$3*
1,1,$1+$1,$4,$5*
1,1,$1+$1,$6,$7*
1,1,$1+$1,$8,$9*
0 Add four rect primitives between the rounded corners*
20,1,$1+$1,$2,$3,$4,$5,0*
20,1,$1+$1,$4,$5,$6,$7,0*
20,1,$1+$1,$6,$7,$8,$9,0*
20,1,$1+$1,$8,$9,$2,$3,0*%
%AMHorizOval*
0 Thick line with rounded ends*
0 $1 width*
0 $2 $3 position (X,Y) of the first rounded end (center of the circle)*
0 $4 $5 position (X,Y) of the second rounded end (center of the circle)*
0 Add line between two ends*
20,1,$1,$2,$3,$4,$5,0*
0 Add two circle primitives to create the rounded ends*
1,1,$1,$2,$3*
1,1,$1,$4,$5*%
%AMFreePoly0*
4,1,6,1.000000,0.000000,0.500000,-0.750000,-0.500000,-0.750000,-0.500000,0.750000,0.500000,0.750000,1.000000,0.000000,1.000000,0.000000,$1*%
%AMFreePoly1*
4,1,6,0.500000,-0.750000,-0.650000,-0.750000,-0.150000,0.000000,-0.650000,0.750000,0.500000,0.750000,0.500000,-0.750000,0.500000,-0.750000,$1*%
G04 Aperture macros list end*
%ADD10C,0.100000*%
%ADD11C,0.120000*%
%ADD12C,3.000000*%
%ADD13RoundRect,0.250001X0.499999X0.759999X-0.499999X0.759999X-0.499999X-0.759999X0.499999X-0.759999X0*%
%ADD14O,1.500000X2.020000*%
%ADD15RoundRect,0.250000X-0.350000X-0.625000X0.350000X-0.625000X0.350000X0.625000X-0.350000X0.625000X0*%
%ADD16O,1.200000X1.750000*%
%ADD17C,5.600000*%
%ADD18RoundRect,0.250000X-0.194454X0.689429X-0.689429X0.194454X0.194454X-0.689429X0.689429X-0.194454X0*%
%ADD19HorizOval,1.200000X-0.194454X0.194454X0.194454X-0.194454X0*%
%ADD20RoundRect,0.250000X0.625000X-0.350000X0.625000X0.350000X-0.625000X0.350000X-0.625000X-0.350000X0*%
%ADD21O,1.750000X1.200000*%
%ADD22RoundRect,0.250001X-0.499999X-0.499999X0.499999X-0.499999X0.499999X0.499999X-0.499999X0.499999X0*%
%ADD23C,1.500000*%
%ADD24RoundRect,0.200000X-0.450000X0.200000X-0.450000X-0.200000X0.450000X-0.200000X0.450000X0.200000X0*%
%ADD25O,1.300000X0.800000*%
%ADD26R,1.500000X1.500000*%
%ADD27FreePoly0,90.000000*%
%ADD28FreePoly0,270.000000*%
%ADD29FreePoly0,0.000000*%
%ADD30FreePoly1,0.000000*%
%ADD31FreePoly0,180.000000*%
%ADD32FreePoly1,180.000000*%
G04 APERTURE END LIST*
D10*
X109316666Y-96782133D02*
X109316666Y-96082133D01*
X109316666Y-96415466D02*
X108916666Y-96415466D01*
X108916666Y-96782133D02*
X108916666Y-96082133D01*
X108583333Y-96415466D02*
X108350000Y-96415466D01*
X108250000Y-96782133D02*
X108583333Y-96782133D01*
X108583333Y-96782133D02*
X108583333Y-96082133D01*
X108583333Y-96082133D02*
X108250000Y-96082133D01*
X107716667Y-96415466D02*
X107950000Y-96415466D01*
X107950000Y-96782133D02*
X107950000Y-96082133D01*
X107950000Y-96082133D02*
X107616667Y-96082133D01*
X110366666Y-97209133D02*
X110133333Y-97909133D01*
X110133333Y-97909133D02*
X109899999Y-97209133D01*
X109566666Y-97909133D02*
X109633333Y-97875800D01*
X109633333Y-97875800D02*
X109666666Y-97842466D01*
X109666666Y-97842466D02*
X109699999Y-97775800D01*
X109699999Y-97775800D02*
X109699999Y-97575800D01*
X109699999Y-97575800D02*
X109666666Y-97509133D01*
X109666666Y-97509133D02*
X109633333Y-97475800D01*
X109633333Y-97475800D02*
X109566666Y-97442466D01*
X109566666Y-97442466D02*
X109466666Y-97442466D01*
X109466666Y-97442466D02*
X109399999Y-97475800D01*
X109399999Y-97475800D02*
X109366666Y-97509133D01*
X109366666Y-97509133D02*
X109333333Y-97575800D01*
X109333333Y-97575800D02*
X109333333Y-97775800D01*
X109333333Y-97775800D02*
X109366666Y-97842466D01*
X109366666Y-97842466D02*
X109399999Y-97875800D01*
X109399999Y-97875800D02*
X109466666Y-97909133D01*
X109466666Y-97909133D02*
X109566666Y-97909133D01*
X108933333Y-97909133D02*
X109000000Y-97875800D01*
X109000000Y-97875800D02*
X109033333Y-97809133D01*
X109033333Y-97809133D02*
X109033333Y-97209133D01*
X108766666Y-97442466D02*
X108499999Y-97442466D01*
X108666666Y-97209133D02*
X108666666Y-97809133D01*
X108666666Y-97809133D02*
X108633333Y-97875800D01*
X108633333Y-97875800D02*
X108566666Y-97909133D01*
X108566666Y-97909133D02*
X108499999Y-97909133D01*
X107966666Y-97909133D02*
X107966666Y-97542466D01*
X107966666Y-97542466D02*
X107999999Y-97475800D01*
X107999999Y-97475800D02*
X108066666Y-97442466D01*
X108066666Y-97442466D02*
X108199999Y-97442466D01*
X108199999Y-97442466D02*
X108266666Y-97475800D01*
X107966666Y-97875800D02*
X108033333Y-97909133D01*
X108033333Y-97909133D02*
X108199999Y-97909133D01*
X108199999Y-97909133D02*
X108266666Y-97875800D01*
X108266666Y-97875800D02*
X108299999Y-97809133D01*
X108299999Y-97809133D02*
X108299999Y-97742466D01*
X108299999Y-97742466D02*
X108266666Y-97675800D01*
X108266666Y-97675800D02*
X108199999Y-97642466D01*
X108199999Y-97642466D02*
X108033333Y-97642466D01*
X108033333Y-97642466D02*
X107966666Y-97609133D01*
X107333333Y-97442466D02*
X107333333Y-98009133D01*
X107333333Y-98009133D02*
X107366666Y-98075800D01*
X107366666Y-98075800D02*
X107400000Y-98109133D01*
X107400000Y-98109133D02*
X107466666Y-98142466D01*
X107466666Y-98142466D02*
X107566666Y-98142466D01*
X107566666Y-98142466D02*
X107633333Y-98109133D01*
X107333333Y-97875800D02*
X107400000Y-97909133D01*
X107400000Y-97909133D02*
X107533333Y-97909133D01*
X107533333Y-97909133D02*
X107600000Y-97875800D01*
X107600000Y-97875800D02*
X107633333Y-97842466D01*
X107633333Y-97842466D02*
X107666666Y-97775800D01*
X107666666Y-97775800D02*
X107666666Y-97575800D01*
X107666666Y-97575800D02*
X107633333Y-97509133D01*
X107633333Y-97509133D02*
X107600000Y-97475800D01*
X107600000Y-97475800D02*
X107533333Y-97442466D01*
X107533333Y-97442466D02*
X107400000Y-97442466D01*
X107400000Y-97442466D02*
X107333333Y-97475800D01*
X106733333Y-97875800D02*
X106800000Y-97909133D01*
X106800000Y-97909133D02*
X106933333Y-97909133D01*
X106933333Y-97909133D02*
X107000000Y-97875800D01*
X107000000Y-97875800D02*
X107033333Y-97809133D01*
X107033333Y-97809133D02*
X107033333Y-97542466D01*
X107033333Y-97542466D02*
X107000000Y-97475800D01*
X107000000Y-97475800D02*
X106933333Y-97442466D01*
X106933333Y-97442466D02*
X106800000Y-97442466D01*
X106800000Y-97442466D02*
X106733333Y-97475800D01*
X106733333Y-97475800D02*
X106700000Y-97542466D01*
X106700000Y-97542466D02*
X106700000Y-97609133D01*
X106700000Y-97609133D02*
X107033333Y-97675800D01*
X118933333Y-97542466D02*
X119166666Y-97542466D01*
X119166666Y-97909133D02*
X119166666Y-97209133D01*
X119166666Y-97209133D02*
X118833333Y-97209133D01*
X118599999Y-97875800D02*
X118499999Y-97909133D01*
X118499999Y-97909133D02*
X118333333Y-97909133D01*
X118333333Y-97909133D02*
X118266666Y-97875800D01*
X118266666Y-97875800D02*
X118233333Y-97842466D01*
X118233333Y-97842466D02*
X118199999Y-97775800D01*
X118199999Y-97775800D02*
X118199999Y-97709133D01*
X118199999Y-97709133D02*
X118233333Y-97642466D01*
X118233333Y-97642466D02*
X118266666Y-97609133D01*
X118266666Y-97609133D02*
X118333333Y-97575800D01*
X118333333Y-97575800D02*
X118466666Y-97542466D01*
X118466666Y-97542466D02*
X118533333Y-97509133D01*
X118533333Y-97509133D02*
X118566666Y-97475800D01*
X118566666Y-97475800D02*
X118599999Y-97409133D01*
X118599999Y-97409133D02*
X118599999Y-97342466D01*
X118599999Y-97342466D02*
X118566666Y-97275800D01*
X118566666Y-97275800D02*
X118533333Y-97242466D01*
X118533333Y-97242466D02*
X118466666Y-97209133D01*
X118466666Y-97209133D02*
X118299999Y-97209133D01*
X118299999Y-97209133D02*
X118199999Y-97242466D01*
X117466666Y-97209133D02*
X117233333Y-97909133D01*
X117233333Y-97909133D02*
X116999999Y-97209133D01*
X116666666Y-97909133D02*
X116733333Y-97875800D01*
X116733333Y-97875800D02*
X116766666Y-97842466D01*
X116766666Y-97842466D02*
X116799999Y-97775800D01*
X116799999Y-97775800D02*
X116799999Y-97575800D01*
X116799999Y-97575800D02*
X116766666Y-97509133D01*
X116766666Y-97509133D02*
X116733333Y-97475800D01*
X116733333Y-97475800D02*
X116666666Y-97442466D01*
X116666666Y-97442466D02*
X116566666Y-97442466D01*
X116566666Y-97442466D02*
X116499999Y-97475800D01*
X116499999Y-97475800D02*
X116466666Y-97509133D01*
X116466666Y-97509133D02*
X116433333Y-97575800D01*
X116433333Y-97575800D02*
X116433333Y-97775800D01*
X116433333Y-97775800D02*
X116466666Y-97842466D01*
X116466666Y-97842466D02*
X116499999Y-97875800D01*
X116499999Y-97875800D02*
X116566666Y-97909133D01*
X116566666Y-97909133D02*
X116666666Y-97909133D01*
X116033333Y-97909133D02*
X116100000Y-97875800D01*
X116100000Y-97875800D02*
X116133333Y-97809133D01*
X116133333Y-97809133D02*
X116133333Y-97209133D01*
X115866666Y-97442466D02*
X115599999Y-97442466D01*
X115766666Y-97209133D02*
X115766666Y-97809133D01*
X115766666Y-97809133D02*
X115733333Y-97875800D01*
X115733333Y-97875800D02*
X115666666Y-97909133D01*
X115666666Y-97909133D02*
X115599999Y-97909133D01*
X115066666Y-97909133D02*
X115066666Y-97542466D01*
X115066666Y-97542466D02*
X115099999Y-97475800D01*
X115099999Y-97475800D02*
X115166666Y-97442466D01*
X115166666Y-97442466D02*
X115299999Y-97442466D01*
X115299999Y-97442466D02*
X115366666Y-97475800D01*
X115066666Y-97875800D02*
X115133333Y-97909133D01*
X115133333Y-97909133D02*
X115299999Y-97909133D01*
X115299999Y-97909133D02*
X115366666Y-97875800D01*
X115366666Y-97875800D02*
X115399999Y-97809133D01*
X115399999Y-97809133D02*
X115399999Y-97742466D01*
X115399999Y-97742466D02*
X115366666Y-97675800D01*
X115366666Y-97675800D02*
X115299999Y-97642466D01*
X115299999Y-97642466D02*
X115133333Y-97642466D01*
X115133333Y-97642466D02*
X115066666Y-97609133D01*
X114433333Y-97442466D02*
X114433333Y-98009133D01*
X114433333Y-98009133D02*
X114466666Y-98075800D01*
X114466666Y-98075800D02*
X114500000Y-98109133D01*
X114500000Y-98109133D02*
X114566666Y-98142466D01*
X114566666Y-98142466D02*
X114666666Y-98142466D01*
X114666666Y-98142466D02*
X114733333Y-98109133D01*
X114433333Y-97875800D02*
X114500000Y-97909133D01*
X114500000Y-97909133D02*
X114633333Y-97909133D01*
X114633333Y-97909133D02*
X114700000Y-97875800D01*
X114700000Y-97875800D02*
X114733333Y-97842466D01*
X114733333Y-97842466D02*
X114766666Y-97775800D01*
X114766666Y-97775800D02*
X114766666Y-97575800D01*
X114766666Y-97575800D02*
X114733333Y-97509133D01*
X114733333Y-97509133D02*
X114700000Y-97475800D01*
X114700000Y-97475800D02*
X114633333Y-97442466D01*
X114633333Y-97442466D02*
X114500000Y-97442466D01*
X114500000Y-97442466D02*
X114433333Y-97475800D01*
X113833333Y-97875800D02*
X113900000Y-97909133D01*
X113900000Y-97909133D02*
X114033333Y-97909133D01*
X114033333Y-97909133D02*
X114100000Y-97875800D01*
X114100000Y-97875800D02*
X114133333Y-97809133D01*
X114133333Y-97809133D02*
X114133333Y-97542466D01*
X114133333Y-97542466D02*
X114100000Y-97475800D01*
X114100000Y-97475800D02*
X114033333Y-97442466D01*
X114033333Y-97442466D02*
X113900000Y-97442466D01*
X113900000Y-97442466D02*
X113833333Y-97475800D01*
X113833333Y-97475800D02*
X113800000Y-97542466D01*
X113800000Y-97542466D02*
X113800000Y-97609133D01*
X113800000Y-97609133D02*
X114133333Y-97675800D01*
X102790866Y-104633333D02*
X102790866Y-104966666D01*
X102790866Y-104966666D02*
X102457533Y-104999999D01*
X102457533Y-104999999D02*
X102490866Y-104966666D01*
X102490866Y-104966666D02*
X102524200Y-104899999D01*
X102524200Y-104899999D02*
X102524200Y-104733333D01*
X102524200Y-104733333D02*
X102490866Y-104666666D01*
X102490866Y-104666666D02*
X102457533Y-104633333D01*
X102457533Y-104633333D02*
X102390866Y-104599999D01*
X102390866Y-104599999D02*
X102224200Y-104599999D01*
X102224200Y-104599999D02*
X102157533Y-104633333D01*
X102157533Y-104633333D02*
X102124200Y-104666666D01*
X102124200Y-104666666D02*
X102090866Y-104733333D01*
X102090866Y-104733333D02*
X102090866Y-104899999D01*
X102090866Y-104899999D02*
X102124200Y-104966666D01*
X102124200Y-104966666D02*
X102157533Y-104999999D01*
X102790866Y-104399999D02*
X102090866Y-104166666D01*
X102090866Y-104166666D02*
X102790866Y-103933332D01*
X85224200Y-100333333D02*
X85257533Y-100300000D01*
X85257533Y-100300000D02*
X85290866Y-100233333D01*
X85290866Y-100233333D02*
X85290866Y-100066667D01*
X85290866Y-100066667D02*
X85257533Y-100000000D01*
X85257533Y-100000000D02*
X85224200Y-99966667D01*
X85224200Y-99966667D02*
X85157533Y-99933333D01*
X85157533Y-99933333D02*
X85090866Y-99933333D01*
X85090866Y-99933333D02*
X84990866Y-99966667D01*
X84990866Y-99966667D02*
X84590866Y-100366667D01*
X84590866Y-100366667D02*
X84590866Y-99933333D01*
X85057533Y-99333333D02*
X84590866Y-99333333D01*
X85324200Y-99500000D02*
X84824200Y-99666666D01*
X84824200Y-99666666D02*
X84824200Y-99233333D01*
X85290866Y-99066666D02*
X84590866Y-98833333D01*
X84590866Y-98833333D02*
X85290866Y-98599999D01*
X100833333Y-96782133D02*
X100833333Y-96082133D01*
X100833333Y-96082133D02*
X100566666Y-96082133D01*
X100566666Y-96082133D02*
X100500000Y-96115466D01*
X100500000Y-96115466D02*
X100466666Y-96148800D01*
X100466666Y-96148800D02*
X100433333Y-96215466D01*
X100433333Y-96215466D02*
X100433333Y-96315466D01*
X100433333Y-96315466D02*
X100466666Y-96382133D01*
X100466666Y-96382133D02*
X100500000Y-96415466D01*
X100500000Y-96415466D02*
X100566666Y-96448800D01*
X100566666Y-96448800D02*
X100833333Y-96448800D01*
X99733333Y-96715466D02*
X99766666Y-96748800D01*
X99766666Y-96748800D02*
X99866666Y-96782133D01*
X99866666Y-96782133D02*
X99933333Y-96782133D01*
X99933333Y-96782133D02*
X100033333Y-96748800D01*
X100033333Y-96748800D02*
X100100000Y-96682133D01*
X100100000Y-96682133D02*
X100133333Y-96615466D01*
X100133333Y-96615466D02*
X100166666Y-96482133D01*
X100166666Y-96482133D02*
X100166666Y-96382133D01*
X100166666Y-96382133D02*
X100133333Y-96248800D01*
X100133333Y-96248800D02*
X100100000Y-96182133D01*
X100100000Y-96182133D02*
X100033333Y-96115466D01*
X100033333Y-96115466D02*
X99933333Y-96082133D01*
X99933333Y-96082133D02*
X99866666Y-96082133D01*
X99866666Y-96082133D02*
X99766666Y-96115466D01*
X99766666Y-96115466D02*
X99733333Y-96148800D01*
X99200000Y-96415466D02*
X99433333Y-96415466D01*
X99433333Y-96782133D02*
X99433333Y-96082133D01*
X99433333Y-96082133D02*
X99100000Y-96082133D01*
X101866666Y-97209133D02*
X101633333Y-97909133D01*
X101633333Y-97909133D02*
X101399999Y-97209133D01*
X101066666Y-97909133D02*
X101133333Y-97875800D01*
X101133333Y-97875800D02*
X101166666Y-97842466D01*
X101166666Y-97842466D02*
X101199999Y-97775800D01*
X101199999Y-97775800D02*
X101199999Y-97575800D01*
X101199999Y-97575800D02*
X101166666Y-97509133D01*
X101166666Y-97509133D02*
X101133333Y-97475800D01*
X101133333Y-97475800D02*
X101066666Y-97442466D01*
X101066666Y-97442466D02*
X100966666Y-97442466D01*
X100966666Y-97442466D02*
X100899999Y-97475800D01*
X100899999Y-97475800D02*
X100866666Y-97509133D01*
X100866666Y-97509133D02*
X100833333Y-97575800D01*
X100833333Y-97575800D02*
X100833333Y-97775800D01*
X100833333Y-97775800D02*
X100866666Y-97842466D01*
X100866666Y-97842466D02*
X100899999Y-97875800D01*
X100899999Y-97875800D02*
X100966666Y-97909133D01*
X100966666Y-97909133D02*
X101066666Y-97909133D01*
X100433333Y-97909133D02*
X100500000Y-97875800D01*
X100500000Y-97875800D02*
X100533333Y-97809133D01*
X100533333Y-97809133D02*
X100533333Y-97209133D01*
X100266666Y-97442466D02*
X99999999Y-97442466D01*
X100166666Y-97209133D02*
X100166666Y-97809133D01*
X100166666Y-97809133D02*
X100133333Y-97875800D01*
X100133333Y-97875800D02*
X100066666Y-97909133D01*
X100066666Y-97909133D02*
X99999999Y-97909133D01*
X99466666Y-97909133D02*
X99466666Y-97542466D01*
X99466666Y-97542466D02*
X99499999Y-97475800D01*
X99499999Y-97475800D02*
X99566666Y-97442466D01*
X99566666Y-97442466D02*
X99699999Y-97442466D01*
X99699999Y-97442466D02*
X99766666Y-97475800D01*
X99466666Y-97875800D02*
X99533333Y-97909133D01*
X99533333Y-97909133D02*
X99699999Y-97909133D01*
X99699999Y-97909133D02*
X99766666Y-97875800D01*
X99766666Y-97875800D02*
X99799999Y-97809133D01*
X99799999Y-97809133D02*
X99799999Y-97742466D01*
X99799999Y-97742466D02*
X99766666Y-97675800D01*
X99766666Y-97675800D02*
X99699999Y-97642466D01*
X99699999Y-97642466D02*
X99533333Y-97642466D01*
X99533333Y-97642466D02*
X99466666Y-97609133D01*
X98833333Y-97442466D02*
X98833333Y-98009133D01*
X98833333Y-98009133D02*
X98866666Y-98075800D01*
X98866666Y-98075800D02*
X98900000Y-98109133D01*
X98900000Y-98109133D02*
X98966666Y-98142466D01*
X98966666Y-98142466D02*
X99066666Y-98142466D01*
X99066666Y-98142466D02*
X99133333Y-98109133D01*
X98833333Y-97875800D02*
X98900000Y-97909133D01*
X98900000Y-97909133D02*
X99033333Y-97909133D01*
X99033333Y-97909133D02*
X99100000Y-97875800D01*
X99100000Y-97875800D02*
X99133333Y-97842466D01*
X99133333Y-97842466D02*
X99166666Y-97775800D01*
X99166666Y-97775800D02*
X99166666Y-97575800D01*
X99166666Y-97575800D02*
X99133333Y-97509133D01*
X99133333Y-97509133D02*
X99100000Y-97475800D01*
X99100000Y-97475800D02*
X99033333Y-97442466D01*
X99033333Y-97442466D02*
X98900000Y-97442466D01*
X98900000Y-97442466D02*
X98833333Y-97475800D01*
X98233333Y-97875800D02*
X98300000Y-97909133D01*
X98300000Y-97909133D02*
X98433333Y-97909133D01*
X98433333Y-97909133D02*
X98500000Y-97875800D01*
X98500000Y-97875800D02*
X98533333Y-97809133D01*
X98533333Y-97809133D02*
X98533333Y-97542466D01*
X98533333Y-97542466D02*
X98500000Y-97475800D01*
X98500000Y-97475800D02*
X98433333Y-97442466D01*
X98433333Y-97442466D02*
X98300000Y-97442466D01*
X98300000Y-97442466D02*
X98233333Y-97475800D01*
X98233333Y-97475800D02*
X98200000Y-97542466D01*
X98200000Y-97542466D02*
X98200000Y-97609133D01*
X98200000Y-97609133D02*
X98533333Y-97675800D01*
X102090866Y-102433333D02*
X102090866Y-102833333D01*
X102090866Y-102633333D02*
X102790866Y-102633333D01*
X102790866Y-102633333D02*
X102690866Y-102700000D01*
X102690866Y-102700000D02*
X102624200Y-102766667D01*
X102624200Y-102766667D02*
X102590866Y-102833333D01*
X102724200Y-102166666D02*
X102757533Y-102133333D01*
X102757533Y-102133333D02*
X102790866Y-102066666D01*
X102790866Y-102066666D02*
X102790866Y-101900000D01*
X102790866Y-101900000D02*
X102757533Y-101833333D01*
X102757533Y-101833333D02*
X102724200Y-101800000D01*
X102724200Y-101800000D02*
X102657533Y-101766666D01*
X102657533Y-101766666D02*
X102590866Y-101766666D01*
X102590866Y-101766666D02*
X102490866Y-101800000D01*
X102490866Y-101800000D02*
X102090866Y-102200000D01*
X102090866Y-102200000D02*
X102090866Y-101766666D01*
X102790866Y-101566666D02*
X102090866Y-101333333D01*
X102090866Y-101333333D02*
X102790866Y-101099999D01*
X83833332Y-96782133D02*
X83833332Y-96082133D01*
X83833332Y-96082133D02*
X83566665Y-96082133D01*
X83566665Y-96082133D02*
X83499999Y-96115466D01*
X83499999Y-96115466D02*
X83466665Y-96148800D01*
X83466665Y-96148800D02*
X83433332Y-96215466D01*
X83433332Y-96215466D02*
X83433332Y-96315466D01*
X83433332Y-96315466D02*
X83466665Y-96382133D01*
X83466665Y-96382133D02*
X83499999Y-96415466D01*
X83499999Y-96415466D02*
X83566665Y-96448800D01*
X83566665Y-96448800D02*
X83833332Y-96448800D01*
X83133332Y-96782133D02*
X83133332Y-96315466D01*
X83133332Y-96448800D02*
X83099999Y-96382133D01*
X83099999Y-96382133D02*
X83066665Y-96348800D01*
X83066665Y-96348800D02*
X82999999Y-96315466D01*
X82999999Y-96315466D02*
X82933332Y-96315466D01*
X82599999Y-96782133D02*
X82666666Y-96748800D01*
X82666666Y-96748800D02*
X82699999Y-96715466D01*
X82699999Y-96715466D02*
X82733332Y-96648800D01*
X82733332Y-96648800D02*
X82733332Y-96448800D01*
X82733332Y-96448800D02*
X82699999Y-96382133D01*
X82699999Y-96382133D02*
X82666666Y-96348800D01*
X82666666Y-96348800D02*
X82599999Y-96315466D01*
X82599999Y-96315466D02*
X82499999Y-96315466D01*
X82499999Y-96315466D02*
X82433332Y-96348800D01*
X82433332Y-96348800D02*
X82399999Y-96382133D01*
X82399999Y-96382133D02*
X82366666Y-96448800D01*
X82366666Y-96448800D02*
X82366666Y-96648800D01*
X82366666Y-96648800D02*
X82399999Y-96715466D01*
X82399999Y-96715466D02*
X82433332Y-96748800D01*
X82433332Y-96748800D02*
X82499999Y-96782133D01*
X82499999Y-96782133D02*
X82599999Y-96782133D01*
X82066666Y-96782133D02*
X82066666Y-96082133D01*
X82066666Y-96348800D02*
X81999999Y-96315466D01*
X81999999Y-96315466D02*
X81866666Y-96315466D01*
X81866666Y-96315466D02*
X81799999Y-96348800D01*
X81799999Y-96348800D02*
X81766666Y-96382133D01*
X81766666Y-96382133D02*
X81733333Y-96448800D01*
X81733333Y-96448800D02*
X81733333Y-96648800D01*
X81733333Y-96648800D02*
X81766666Y-96715466D01*
X81766666Y-96715466D02*
X81799999Y-96748800D01*
X81799999Y-96748800D02*
X81866666Y-96782133D01*
X81866666Y-96782133D02*
X81999999Y-96782133D01*
X81999999Y-96782133D02*
X82066666Y-96748800D01*
X81166666Y-96748800D02*
X81233333Y-96782133D01*
X81233333Y-96782133D02*
X81366666Y-96782133D01*
X81366666Y-96782133D02*
X81433333Y-96748800D01*
X81433333Y-96748800D02*
X81466666Y-96682133D01*
X81466666Y-96682133D02*
X81466666Y-96415466D01*
X81466666Y-96415466D02*
X81433333Y-96348800D01*
X81433333Y-96348800D02*
X81366666Y-96315466D01*
X81366666Y-96315466D02*
X81233333Y-96315466D01*
X81233333Y-96315466D02*
X81166666Y-96348800D01*
X81166666Y-96348800D02*
X81133333Y-96415466D01*
X81133333Y-96415466D02*
X81133333Y-96482133D01*
X81133333Y-96482133D02*
X81466666Y-96548800D01*
X84366666Y-97209133D02*
X84133333Y-97909133D01*
X84133333Y-97909133D02*
X83899999Y-97209133D01*
X83566666Y-97909133D02*
X83633333Y-97875800D01*
X83633333Y-97875800D02*
X83666666Y-97842466D01*
X83666666Y-97842466D02*
X83699999Y-97775800D01*
X83699999Y-97775800D02*
X83699999Y-97575800D01*
X83699999Y-97575800D02*
X83666666Y-97509133D01*
X83666666Y-97509133D02*
X83633333Y-97475800D01*
X83633333Y-97475800D02*
X83566666Y-97442466D01*
X83566666Y-97442466D02*
X83466666Y-97442466D01*
X83466666Y-97442466D02*
X83399999Y-97475800D01*
X83399999Y-97475800D02*
X83366666Y-97509133D01*
X83366666Y-97509133D02*
X83333333Y-97575800D01*
X83333333Y-97575800D02*
X83333333Y-97775800D01*
X83333333Y-97775800D02*
X83366666Y-97842466D01*
X83366666Y-97842466D02*
X83399999Y-97875800D01*
X83399999Y-97875800D02*
X83466666Y-97909133D01*
X83466666Y-97909133D02*
X83566666Y-97909133D01*
X82933333Y-97909133D02*
X83000000Y-97875800D01*
X83000000Y-97875800D02*
X83033333Y-97809133D01*
X83033333Y-97809133D02*
X83033333Y-97209133D01*
X82766666Y-97442466D02*
X82499999Y-97442466D01*
X82666666Y-97209133D02*
X82666666Y-97809133D01*
X82666666Y-97809133D02*
X82633333Y-97875800D01*
X82633333Y-97875800D02*
X82566666Y-97909133D01*
X82566666Y-97909133D02*
X82499999Y-97909133D01*
X81966666Y-97909133D02*
X81966666Y-97542466D01*
X81966666Y-97542466D02*
X81999999Y-97475800D01*
X81999999Y-97475800D02*
X82066666Y-97442466D01*
X82066666Y-97442466D02*
X82199999Y-97442466D01*
X82199999Y-97442466D02*
X82266666Y-97475800D01*
X81966666Y-97875800D02*
X82033333Y-97909133D01*
X82033333Y-97909133D02*
X82199999Y-97909133D01*
X82199999Y-97909133D02*
X82266666Y-97875800D01*
X82266666Y-97875800D02*
X82299999Y-97809133D01*
X82299999Y-97809133D02*
X82299999Y-97742466D01*
X82299999Y-97742466D02*
X82266666Y-97675800D01*
X82266666Y-97675800D02*
X82199999Y-97642466D01*
X82199999Y-97642466D02*
X82033333Y-97642466D01*
X82033333Y-97642466D02*
X81966666Y-97609133D01*
X81333333Y-97442466D02*
X81333333Y-98009133D01*
X81333333Y-98009133D02*
X81366666Y-98075800D01*
X81366666Y-98075800D02*
X81400000Y-98109133D01*
X81400000Y-98109133D02*
X81466666Y-98142466D01*
X81466666Y-98142466D02*
X81566666Y-98142466D01*
X81566666Y-98142466D02*
X81633333Y-98109133D01*
X81333333Y-97875800D02*
X81400000Y-97909133D01*
X81400000Y-97909133D02*
X81533333Y-97909133D01*
X81533333Y-97909133D02*
X81600000Y-97875800D01*
X81600000Y-97875800D02*
X81633333Y-97842466D01*
X81633333Y-97842466D02*
X81666666Y-97775800D01*
X81666666Y-97775800D02*
X81666666Y-97575800D01*
X81666666Y-97575800D02*
X81633333Y-97509133D01*
X81633333Y-97509133D02*
X81600000Y-97475800D01*
X81600000Y-97475800D02*
X81533333Y-97442466D01*
X81533333Y-97442466D02*
X81400000Y-97442466D01*
X81400000Y-97442466D02*
X81333333Y-97475800D01*
X80733333Y-97875800D02*
X80800000Y-97909133D01*
X80800000Y-97909133D02*
X80933333Y-97909133D01*
X80933333Y-97909133D02*
X81000000Y-97875800D01*
X81000000Y-97875800D02*
X81033333Y-97809133D01*
X81033333Y-97809133D02*
X81033333Y-97542466D01*
X81033333Y-97542466D02*
X81000000Y-97475800D01*
X81000000Y-97475800D02*
X80933333Y-97442466D01*
X80933333Y-97442466D02*
X80800000Y-97442466D01*
X80800000Y-97442466D02*
X80733333Y-97475800D01*
X80733333Y-97475800D02*
X80700000Y-97542466D01*
X80700000Y-97542466D02*
X80700000Y-97609133D01*
X80700000Y-97609133D02*
X81033333Y-97675800D01*
X118090866Y-95433333D02*
X118090866Y-95833333D01*
X118090866Y-95633333D02*
X118790866Y-95633333D01*
X118790866Y-95633333D02*
X118690866Y-95700000D01*
X118690866Y-95700000D02*
X118624200Y-95766667D01*
X118624200Y-95766667D02*
X118590866Y-95833333D01*
X118724200Y-95166666D02*
X118757533Y-95133333D01*
X118757533Y-95133333D02*
X118790866Y-95066666D01*
X118790866Y-95066666D02*
X118790866Y-94900000D01*
X118790866Y-94900000D02*
X118757533Y-94833333D01*
X118757533Y-94833333D02*
X118724200Y-94800000D01*
X118724200Y-94800000D02*
X118657533Y-94766666D01*
X118657533Y-94766666D02*
X118590866Y-94766666D01*
X118590866Y-94766666D02*
X118490866Y-94800000D01*
X118490866Y-94800000D02*
X118090866Y-95200000D01*
X118090866Y-95200000D02*
X118090866Y-94766666D01*
X118790866Y-94566666D02*
X118090866Y-94333333D01*
X118090866Y-94333333D02*
X118790866Y-94099999D01*
X119224200Y-100333333D02*
X119257533Y-100300000D01*
X119257533Y-100300000D02*
X119290866Y-100233333D01*
X119290866Y-100233333D02*
X119290866Y-100066667D01*
X119290866Y-100066667D02*
X119257533Y-100000000D01*
X119257533Y-100000000D02*
X119224200Y-99966667D01*
X119224200Y-99966667D02*
X119157533Y-99933333D01*
X119157533Y-99933333D02*
X119090866Y-99933333D01*
X119090866Y-99933333D02*
X118990866Y-99966667D01*
X118990866Y-99966667D02*
X118590866Y-100366667D01*
X118590866Y-100366667D02*
X118590866Y-99933333D01*
X119057533Y-99333333D02*
X118590866Y-99333333D01*
X119324200Y-99500000D02*
X118824200Y-99666666D01*
X118824200Y-99666666D02*
X118824200Y-99233333D01*
X119290866Y-99066666D02*
X118590866Y-98833333D01*
X118590866Y-98833333D02*
X119290866Y-98599999D01*
X118590866Y-102433333D02*
X118590866Y-102833333D01*
X118590866Y-102633333D02*
X119290866Y-102633333D01*
X119290866Y-102633333D02*
X119190866Y-102700000D01*
X119190866Y-102700000D02*
X119124200Y-102766667D01*
X119124200Y-102766667D02*
X119090866Y-102833333D01*
X119224200Y-102166666D02*
X119257533Y-102133333D01*
X119257533Y-102133333D02*
X119290866Y-102066666D01*
X119290866Y-102066666D02*
X119290866Y-101900000D01*
X119290866Y-101900000D02*
X119257533Y-101833333D01*
X119257533Y-101833333D02*
X119224200Y-101800000D01*
X119224200Y-101800000D02*
X119157533Y-101766666D01*
X119157533Y-101766666D02*
X119090866Y-101766666D01*
X119090866Y-101766666D02*
X118990866Y-101800000D01*
X118990866Y-101800000D02*
X118590866Y-102200000D01*
X118590866Y-102200000D02*
X118590866Y-101766666D01*
X119290866Y-101566666D02*
X118590866Y-101333333D01*
X118590866Y-101333333D02*
X119290866Y-101099999D01*
X85290866Y-104633333D02*
X85290866Y-104966666D01*
X85290866Y-104966666D02*
X84957533Y-104999999D01*
X84957533Y-104999999D02*
X84990866Y-104966666D01*
X84990866Y-104966666D02*
X85024200Y-104899999D01*
X85024200Y-104899999D02*
X85024200Y-104733333D01*
X85024200Y-104733333D02*
X84990866Y-104666666D01*
X84990866Y-104666666D02*
X84957533Y-104633333D01*
X84957533Y-104633333D02*
X84890866Y-104599999D01*
X84890866Y-104599999D02*
X84724200Y-104599999D01*
X84724200Y-104599999D02*
X84657533Y-104633333D01*
X84657533Y-104633333D02*
X84624200Y-104666666D01*
X84624200Y-104666666D02*
X84590866Y-104733333D01*
X84590866Y-104733333D02*
X84590866Y-104899999D01*
X84590866Y-104899999D02*
X84624200Y-104966666D01*
X84624200Y-104966666D02*
X84657533Y-104999999D01*
X85290866Y-104399999D02*
X84590866Y-104166666D01*
X84590866Y-104166666D02*
X85290866Y-103933332D01*
X118790866Y-93449999D02*
X118790866Y-93049999D01*
X118090866Y-93249999D02*
X118790866Y-93249999D01*
X118090866Y-92516666D02*
X118457533Y-92516666D01*
X118457533Y-92516666D02*
X118524200Y-92549999D01*
X118524200Y-92549999D02*
X118557533Y-92616666D01*
X118557533Y-92616666D02*
X118557533Y-92749999D01*
X118557533Y-92749999D02*
X118524200Y-92816666D01*
X118124200Y-92516666D02*
X118090866Y-92583333D01*
X118090866Y-92583333D02*
X118090866Y-92749999D01*
X118090866Y-92749999D02*
X118124200Y-92816666D01*
X118124200Y-92816666D02*
X118190866Y-92849999D01*
X118190866Y-92849999D02*
X118257533Y-92849999D01*
X118257533Y-92849999D02*
X118324200Y-92816666D01*
X118324200Y-92816666D02*
X118357533Y-92749999D01*
X118357533Y-92749999D02*
X118357533Y-92583333D01*
X118357533Y-92583333D02*
X118390866Y-92516666D01*
X118124200Y-91883333D02*
X118090866Y-91950000D01*
X118090866Y-91950000D02*
X118090866Y-92083333D01*
X118090866Y-92083333D02*
X118124200Y-92150000D01*
X118124200Y-92150000D02*
X118157533Y-92183333D01*
X118157533Y-92183333D02*
X118224200Y-92216666D01*
X118224200Y-92216666D02*
X118424200Y-92216666D01*
X118424200Y-92216666D02*
X118490866Y-92183333D01*
X118490866Y-92183333D02*
X118524200Y-92150000D01*
X118524200Y-92150000D02*
X118557533Y-92083333D01*
X118557533Y-92083333D02*
X118557533Y-91950000D01*
X118557533Y-91950000D02*
X118524200Y-91883333D01*
X118090866Y-91583333D02*
X118790866Y-91583333D01*
X118090866Y-91283333D02*
X118457533Y-91283333D01*
X118457533Y-91283333D02*
X118524200Y-91316666D01*
X118524200Y-91316666D02*
X118557533Y-91383333D01*
X118557533Y-91383333D02*
X118557533Y-91483333D01*
X118557533Y-91483333D02*
X118524200Y-91550000D01*
X118524200Y-91550000D02*
X118490866Y-91583333D01*
X118090866Y-90850000D02*
X118124200Y-90916667D01*
X118124200Y-90916667D02*
X118157533Y-90950000D01*
X118157533Y-90950000D02*
X118224200Y-90983333D01*
X118224200Y-90983333D02*
X118424200Y-90983333D01*
X118424200Y-90983333D02*
X118490866Y-90950000D01*
X118490866Y-90950000D02*
X118524200Y-90916667D01*
X118524200Y-90916667D02*
X118557533Y-90850000D01*
X118557533Y-90850000D02*
X118557533Y-90750000D01*
X118557533Y-90750000D02*
X118524200Y-90683333D01*
X118524200Y-90683333D02*
X118490866Y-90650000D01*
X118490866Y-90650000D02*
X118424200Y-90616667D01*
X118424200Y-90616667D02*
X118224200Y-90616667D01*
X118224200Y-90616667D02*
X118157533Y-90650000D01*
X118157533Y-90650000D02*
X118124200Y-90683333D01*
X118124200Y-90683333D02*
X118090866Y-90750000D01*
X118090866Y-90750000D02*
X118090866Y-90850000D01*
X119290866Y-104633333D02*
X119290866Y-104966666D01*
X119290866Y-104966666D02*
X118957533Y-104999999D01*
X118957533Y-104999999D02*
X118990866Y-104966666D01*
X118990866Y-104966666D02*
X119024200Y-104899999D01*
X119024200Y-104899999D02*
X119024200Y-104733333D01*
X119024200Y-104733333D02*
X118990866Y-104666666D01*
X118990866Y-104666666D02*
X118957533Y-104633333D01*
X118957533Y-104633333D02*
X118890866Y-104599999D01*
X118890866Y-104599999D02*
X118724200Y-104599999D01*
X118724200Y-104599999D02*
X118657533Y-104633333D01*
X118657533Y-104633333D02*
X118624200Y-104666666D01*
X118624200Y-104666666D02*
X118590866Y-104733333D01*
X118590866Y-104733333D02*
X118590866Y-104899999D01*
X118590866Y-104899999D02*
X118624200Y-104966666D01*
X118624200Y-104966666D02*
X118657533Y-104999999D01*
X119290866Y-104399999D02*
X118590866Y-104166666D01*
X118590866Y-104166666D02*
X119290866Y-103933332D01*
X111290866Y-104633333D02*
X111290866Y-104966666D01*
X111290866Y-104966666D02*
X110957533Y-104999999D01*
X110957533Y-104999999D02*
X110990866Y-104966666D01*
X110990866Y-104966666D02*
X111024200Y-104899999D01*
X111024200Y-104899999D02*
X111024200Y-104733333D01*
X111024200Y-104733333D02*
X110990866Y-104666666D01*
X110990866Y-104666666D02*
X110957533Y-104633333D01*
X110957533Y-104633333D02*
X110890866Y-104599999D01*
X110890866Y-104599999D02*
X110724200Y-104599999D01*
X110724200Y-104599999D02*
X110657533Y-104633333D01*
X110657533Y-104633333D02*
X110624200Y-104666666D01*
X110624200Y-104666666D02*
X110590866Y-104733333D01*
X110590866Y-104733333D02*
X110590866Y-104899999D01*
X110590866Y-104899999D02*
X110624200Y-104966666D01*
X110624200Y-104966666D02*
X110657533Y-104999999D01*
X111290866Y-104399999D02*
X110590866Y-104166666D01*
X110590866Y-104166666D02*
X111290866Y-103933332D01*
X111224200Y-100333333D02*
X111257533Y-100300000D01*
X111257533Y-100300000D02*
X111290866Y-100233333D01*
X111290866Y-100233333D02*
X111290866Y-100066667D01*
X111290866Y-100066667D02*
X111257533Y-100000000D01*
X111257533Y-100000000D02*
X111224200Y-99966667D01*
X111224200Y-99966667D02*
X111157533Y-99933333D01*
X111157533Y-99933333D02*
X111090866Y-99933333D01*
X111090866Y-99933333D02*
X110990866Y-99966667D01*
X110990866Y-99966667D02*
X110590866Y-100366667D01*
X110590866Y-100366667D02*
X110590866Y-99933333D01*
X111057533Y-99333333D02*
X110590866Y-99333333D01*
X111324200Y-99500000D02*
X110824200Y-99666666D01*
X110824200Y-99666666D02*
X110824200Y-99233333D01*
X111290866Y-99066666D02*
X110590866Y-98833333D01*
X110590866Y-98833333D02*
X111290866Y-98599999D01*
X117366666Y-88582133D02*
X117033333Y-88582133D01*
X117433333Y-88782133D02*
X117200000Y-88082133D01*
X117200000Y-88082133D02*
X116966666Y-88782133D01*
X116733333Y-88082133D02*
X116733333Y-88648800D01*
X116733333Y-88648800D02*
X116700000Y-88715466D01*
X116700000Y-88715466D02*
X116666666Y-88748800D01*
X116666666Y-88748800D02*
X116600000Y-88782133D01*
X116600000Y-88782133D02*
X116466666Y-88782133D01*
X116466666Y-88782133D02*
X116400000Y-88748800D01*
X116400000Y-88748800D02*
X116366666Y-88715466D01*
X116366666Y-88715466D02*
X116333333Y-88648800D01*
X116333333Y-88648800D02*
X116333333Y-88082133D01*
X116066667Y-88082133D02*
X115600000Y-88782133D01*
X115600000Y-88082133D02*
X116066667Y-88782133D01*
X117983333Y-89875800D02*
X117883333Y-89909133D01*
X117883333Y-89909133D02*
X117716667Y-89909133D01*
X117716667Y-89909133D02*
X117650000Y-89875800D01*
X117650000Y-89875800D02*
X117616667Y-89842466D01*
X117616667Y-89842466D02*
X117583333Y-89775800D01*
X117583333Y-89775800D02*
X117583333Y-89709133D01*
X117583333Y-89709133D02*
X117616667Y-89642466D01*
X117616667Y-89642466D02*
X117650000Y-89609133D01*
X117650000Y-89609133D02*
X117716667Y-89575800D01*
X117716667Y-89575800D02*
X117850000Y-89542466D01*
X117850000Y-89542466D02*
X117916667Y-89509133D01*
X117916667Y-89509133D02*
X117950000Y-89475800D01*
X117950000Y-89475800D02*
X117983333Y-89409133D01*
X117983333Y-89409133D02*
X117983333Y-89342466D01*
X117983333Y-89342466D02*
X117950000Y-89275800D01*
X117950000Y-89275800D02*
X117916667Y-89242466D01*
X117916667Y-89242466D02*
X117850000Y-89209133D01*
X117850000Y-89209133D02*
X117683333Y-89209133D01*
X117683333Y-89209133D02*
X117583333Y-89242466D01*
X117016666Y-89875800D02*
X117083333Y-89909133D01*
X117083333Y-89909133D02*
X117216666Y-89909133D01*
X117216666Y-89909133D02*
X117283333Y-89875800D01*
X117283333Y-89875800D02*
X117316666Y-89809133D01*
X117316666Y-89809133D02*
X117316666Y-89542466D01*
X117316666Y-89542466D02*
X117283333Y-89475800D01*
X117283333Y-89475800D02*
X117216666Y-89442466D01*
X117216666Y-89442466D02*
X117083333Y-89442466D01*
X117083333Y-89442466D02*
X117016666Y-89475800D01*
X117016666Y-89475800D02*
X116983333Y-89542466D01*
X116983333Y-89542466D02*
X116983333Y-89609133D01*
X116983333Y-89609133D02*
X117316666Y-89675800D01*
X116583333Y-89909133D02*
X116650000Y-89875800D01*
X116650000Y-89875800D02*
X116683333Y-89809133D01*
X116683333Y-89809133D02*
X116683333Y-89209133D01*
X116049999Y-89875800D02*
X116116666Y-89909133D01*
X116116666Y-89909133D02*
X116249999Y-89909133D01*
X116249999Y-89909133D02*
X116316666Y-89875800D01*
X116316666Y-89875800D02*
X116349999Y-89809133D01*
X116349999Y-89809133D02*
X116349999Y-89542466D01*
X116349999Y-89542466D02*
X116316666Y-89475800D01*
X116316666Y-89475800D02*
X116249999Y-89442466D01*
X116249999Y-89442466D02*
X116116666Y-89442466D01*
X116116666Y-89442466D02*
X116049999Y-89475800D01*
X116049999Y-89475800D02*
X116016666Y-89542466D01*
X116016666Y-89542466D02*
X116016666Y-89609133D01*
X116016666Y-89609133D02*
X116349999Y-89675800D01*
X115416666Y-89875800D02*
X115483333Y-89909133D01*
X115483333Y-89909133D02*
X115616666Y-89909133D01*
X115616666Y-89909133D02*
X115683333Y-89875800D01*
X115683333Y-89875800D02*
X115716666Y-89842466D01*
X115716666Y-89842466D02*
X115749999Y-89775800D01*
X115749999Y-89775800D02*
X115749999Y-89575800D01*
X115749999Y-89575800D02*
X115716666Y-89509133D01*
X115716666Y-89509133D02*
X115683333Y-89475800D01*
X115683333Y-89475800D02*
X115616666Y-89442466D01*
X115616666Y-89442466D02*
X115483333Y-89442466D01*
X115483333Y-89442466D02*
X115416666Y-89475800D01*
X115216666Y-89442466D02*
X114949999Y-89442466D01*
X115116666Y-89209133D02*
X115116666Y-89809133D01*
X115116666Y-89809133D02*
X115083333Y-89875800D01*
X115083333Y-89875800D02*
X115016666Y-89909133D01*
X115016666Y-89909133D02*
X114949999Y-89909133D01*
X110590866Y-102433333D02*
X110590866Y-102833333D01*
X110590866Y-102633333D02*
X111290866Y-102633333D01*
X111290866Y-102633333D02*
X111190866Y-102700000D01*
X111190866Y-102700000D02*
X111124200Y-102766667D01*
X111124200Y-102766667D02*
X111090866Y-102833333D01*
X111224200Y-102166666D02*
X111257533Y-102133333D01*
X111257533Y-102133333D02*
X111290866Y-102066666D01*
X111290866Y-102066666D02*
X111290866Y-101900000D01*
X111290866Y-101900000D02*
X111257533Y-101833333D01*
X111257533Y-101833333D02*
X111224200Y-101800000D01*
X111224200Y-101800000D02*
X111157533Y-101766666D01*
X111157533Y-101766666D02*
X111090866Y-101766666D01*
X111090866Y-101766666D02*
X110990866Y-101800000D01*
X110990866Y-101800000D02*
X110590866Y-102200000D01*
X110590866Y-102200000D02*
X110590866Y-101766666D01*
X111290866Y-101566666D02*
X110590866Y-101333333D01*
X110590866Y-101333333D02*
X111290866Y-101099999D01*
X102724200Y-100333333D02*
X102757533Y-100300000D01*
X102757533Y-100300000D02*
X102790866Y-100233333D01*
X102790866Y-100233333D02*
X102790866Y-100066667D01*
X102790866Y-100066667D02*
X102757533Y-100000000D01*
X102757533Y-100000000D02*
X102724200Y-99966667D01*
X102724200Y-99966667D02*
X102657533Y-99933333D01*
X102657533Y-99933333D02*
X102590866Y-99933333D01*
X102590866Y-99933333D02*
X102490866Y-99966667D01*
X102490866Y-99966667D02*
X102090866Y-100366667D01*
X102090866Y-100366667D02*
X102090866Y-99933333D01*
X102557533Y-99333333D02*
X102090866Y-99333333D01*
X102824200Y-99500000D02*
X102324200Y-99666666D01*
X102324200Y-99666666D02*
X102324200Y-99233333D01*
X102790866Y-99066666D02*
X102090866Y-98833333D01*
X102090866Y-98833333D02*
X102790866Y-98599999D01*
D11*
%TO.C,JP1*%
X115550000Y-96250000D02*
X117500000Y-96250000D01*
X117500000Y-96250000D02*
X117500000Y-90750000D01*
X115000000Y-95200000D02*
X115000000Y-94600000D01*
X115300000Y-94900000D02*
X115000000Y-95200000D01*
X115000000Y-94600000D02*
X115300000Y-94900000D01*
X115550000Y-90750000D02*
X115550000Y-96250000D01*
X117500000Y-90750000D02*
X115550000Y-90750000D01*
%TO.C,JP8*%
X81325000Y-98500000D02*
X81325000Y-100500000D01*
X81325000Y-100500000D02*
X84125000Y-100500000D01*
X84125000Y-98500000D02*
X81325000Y-98500000D01*
X84125000Y-100500000D02*
X84125000Y-98500000D01*
%TO.C,JP11*%
X118125000Y-100500000D02*
X118125000Y-98500000D01*
X118125000Y-98500000D02*
X115325000Y-98500000D01*
X115325000Y-100500000D02*
X118125000Y-100500000D01*
X115325000Y-98500000D02*
X115325000Y-100500000D01*
%TO.C,JP4*%
X110175000Y-105500000D02*
X110175000Y-103500000D01*
X110175000Y-103500000D02*
X107375000Y-103500000D01*
X107375000Y-105500000D02*
X110175000Y-105500000D01*
X107375000Y-103500000D02*
X107375000Y-105500000D01*
%TO.C,JP7*%
X101675000Y-105500000D02*
X101675000Y-103500000D01*
X101675000Y-103500000D02*
X98875000Y-103500000D01*
X98875000Y-105500000D02*
X101675000Y-105500000D01*
X98875000Y-103500000D02*
X98875000Y-105500000D01*
%TO.C,JP5*%
X101675000Y-100500000D02*
X101675000Y-98500000D01*
X101675000Y-98500000D02*
X98875000Y-98500000D01*
X98875000Y-100500000D02*
X101675000Y-100500000D01*
X98875000Y-98500000D02*
X98875000Y-100500000D01*
%TO.C,JP3*%
X110175000Y-103000000D02*
X110175000Y-101000000D01*
X110175000Y-101000000D02*
X107375000Y-101000000D01*
X107375000Y-103000000D02*
X110175000Y-103000000D01*
X107375000Y-101000000D02*
X107375000Y-103000000D01*
%TO.C,JP6*%
X101675000Y-103000000D02*
X101675000Y-101000000D01*
X101675000Y-101000000D02*
X98875000Y-101000000D01*
X98875000Y-103000000D02*
X101675000Y-103000000D01*
X98875000Y-101000000D02*
X98875000Y-103000000D01*
%TO.C,JP10*%
X81325000Y-103500000D02*
X81325000Y-105500000D01*
X81325000Y-105500000D02*
X84125000Y-105500000D01*
X84125000Y-103500000D02*
X81325000Y-103500000D01*
X84125000Y-105500000D02*
X84125000Y-103500000D01*
%TO.C,JP13*%
X118125000Y-105500000D02*
X118125000Y-103500000D01*
X118125000Y-103500000D02*
X115325000Y-103500000D01*
X115325000Y-105500000D02*
X118125000Y-105500000D01*
X115325000Y-103500000D02*
X115325000Y-105500000D01*
%TO.C,JP2*%
X110175000Y-100500000D02*
X110175000Y-98500000D01*
X110175000Y-98500000D02*
X107375000Y-98500000D01*
X107375000Y-100500000D02*
X110175000Y-100500000D01*
X107375000Y-98500000D02*
X107375000Y-100500000D01*
%TO.C,JP12*%
X118125000Y-103000000D02*
X118125000Y-101000000D01*
X118125000Y-101000000D02*
X115325000Y-101000000D01*
X115325000Y-103000000D02*
X118125000Y-103000000D01*
X115325000Y-101000000D02*
X115325000Y-103000000D01*
%TD*%
%LPC*%
D12*
%TO.C,TH0*%
X105500000Y-112350000D03*
D13*
X107000000Y-108030000D03*
D14*
X104000000Y-108030000D03*
%TD*%
D15*
%TO.C,PCF2*%
X81498263Y-108736417D03*
D16*
X83498263Y-108736417D03*
%TD*%
D17*
%TO.C,H1*%
X78075000Y-100000000D03*
%TD*%
D18*
%TO.C,ESTEP1*%
X85500000Y-86500000D03*
D19*
X84085786Y-87914214D03*
X82671573Y-89328427D03*
X81257359Y-90742641D03*
%TD*%
D20*
%TO.C,HEF1*%
X104450000Y-103000000D03*
D21*
X104450000Y-101000000D03*
X104450000Y-99000000D03*
%TD*%
D17*
%TO.C,H2*%
X121925000Y-100000000D03*
%TD*%
D15*
%TO.C,PCF1*%
X116500000Y-108700000D03*
D16*
X118500000Y-108700000D03*
%TD*%
D20*
%TO.C,LED1*%
X95450000Y-103000000D03*
D21*
X95450000Y-101000000D03*
X95450000Y-99000000D03*
%TD*%
D12*
%TO.C,MCU1*%
X96660000Y-87180000D03*
X110360000Y-87180000D03*
D22*
X94500000Y-91500000D03*
D23*
X97500000Y-91500000D03*
X100500000Y-91500000D03*
X103500000Y-91500000D03*
X106500000Y-91500000D03*
X109500000Y-91500000D03*
X112500000Y-91500000D03*
X94500000Y-94500000D03*
X97500000Y-94500000D03*
X100500000Y-94500000D03*
X103500000Y-94500000D03*
X106500000Y-94500000D03*
X109500000Y-94500000D03*
X112500000Y-94500000D03*
%TD*%
D12*
%TO.C,HE0*%
X94500000Y-112350000D03*
D13*
X96000000Y-108030000D03*
D14*
X93000000Y-108030000D03*
%TD*%
D24*
%TO.C,PCF3*%
X122781785Y-108536417D03*
D25*
X122781785Y-109786417D03*
%TD*%
D20*
%TO.C,PROBE1*%
X86450000Y-103000000D03*
D21*
X86450000Y-101000000D03*
X86450000Y-99000000D03*
%TD*%
D20*
%TO.C,FS1*%
X113450000Y-103000000D03*
D21*
X113450000Y-101000000D03*
X113450000Y-99000000D03*
%TD*%
D24*
%TO.C,PCF4*%
X76427718Y-108576964D03*
D25*
X76427718Y-109826964D03*
%TD*%
D12*
%TO.C,MCU2*%
X121500000Y-87265000D03*
D22*
X121500000Y-91585000D03*
D23*
X121500000Y-94585000D03*
%TD*%
D26*
%TO.C,JP1*%
X116500000Y-94700000D03*
X116500000Y-92300000D03*
D27*
X116500000Y-95500000D03*
D28*
X116500000Y-91500000D03*
%TD*%
D29*
%TO.C,JP8*%
X82000000Y-99500000D03*
D30*
X83450000Y-99500000D03*
%TD*%
D31*
%TO.C,JP11*%
X117450000Y-99500000D03*
D32*
X116000000Y-99500000D03*
%TD*%
D31*
%TO.C,JP4*%
X109500000Y-104500000D03*
D32*
X108050000Y-104500000D03*
%TD*%
D31*
%TO.C,JP7*%
X101000000Y-104500000D03*
D32*
X99550000Y-104500000D03*
%TD*%
D31*
%TO.C,JP5*%
X101000000Y-99500000D03*
D32*
X99550000Y-99500000D03*
%TD*%
D31*
%TO.C,JP3*%
X109500000Y-102000000D03*
D32*
X108050000Y-102000000D03*
%TD*%
D31*
%TO.C,JP6*%
X101000000Y-102000000D03*
D32*
X99550000Y-102000000D03*
%TD*%
D29*
%TO.C,JP10*%
X82000000Y-104500000D03*
D30*
X83450000Y-104500000D03*
%TD*%
D31*
%TO.C,JP13*%
X117450000Y-104500000D03*
D32*
X116000000Y-104500000D03*
%TD*%
D31*
%TO.C,JP2*%
X109500000Y-99500000D03*
D32*
X108050000Y-99500000D03*
%TD*%
D31*
%TO.C,JP12*%
X117450000Y-102000000D03*
D32*
X116000000Y-102000000D03*
%TD*%
%LPD*%
M02*
